{
.appVersion = "3225";
.formatVersion = 3;
axes = (
{
name = weight;
tag = wght;
}
);
classes = (
{
code = "ampersand.sc hyphen guilsinglleft guilsinglright guillemotleft guillemotright quotedblleft.sc quotedblright.sc quoteleft.sc quoteright.sc endash emdash at.sc";
name = kern_punct_sc;
},
{
code = "A B C D E F G H I J K L M N O P Q R S T U V W X Y Z AE Eng Eth Thorn Schwa";
name = kern_uc;
},
{
code = "a.sc b.sc c.sc d.sc e.sc f.sc g.sc h.sc i.sc j.sc k.sc l.sc m.sc n.sc o.sc p.sc q.sc r.sc s.sc t.sc u.sc v.sc w.sc x.sc y.sc z.sc eng.sc eth.sc thorn.sc schwa.sc ae.sc";
name = kern_sc;
},
{
code = "ampersand hyphen.case guilsinglleft.case guilsinglright.case guillemotleft.case guillemotright.case quotedblleft quotedblright quoteleft quoteright endash.case emdash.case parenleft.case parenright.case bracketleft.case bracketright.case braceleft.case braceright.case at.case";
name = kern_punct_uc;
},
{
code = "comma semicolon colon period ellipsis exclam exclamdown question questiondown quoteleft quoteright quotedblleft quotedblright quotesinglbase quotedblbase quotesingle quotedbl slash backslash bullet periodcentered asterisk dagger daggerdbl copyright registered trademark servicemark";
name = kern_punct;
},
{

glyphs = (
{
glyphname = .notdef;
kernLeft = kern_notdef3;
kernRight = kern_notdef3;
layers = (
{
layerId = m001;
shapes = (
{
closed = 1;
nodes = (
(445,0,l),
(445,750,l),
(55,750,l),
(55,0,l)
);
},
{
closed = 1;
nodes = (
(100,718,l),
(400,718,l),
(250,406,l)
);
},
{
closed = 1;
nodes = (
(85,688,l),
(235,375,l),
(85,62,l)
);
},
{
closed = 1;
nodes = (
(265,375,l),
(415,688,l),
(415,62,l)
);
},
{
closed = 1;
nodes = (
(250,344,l),
(400,32,l),
(100,32,l)
);
}
);
width = 500;
},
{
layerId = m002;
shapes = (
{
closed = 1;
nodes = (
(445,0,l),
(445,750,l),
(55,750,l),
(55,0,l)
);
},
{
closed = 1;
nodes = (
(100,718,l),
(400,718,l),
(250,406,l)
);
},
{
closed = 1;
nodes = (
(85,688,l),
(235,375,l),
(85,62,l)
);
},
{
closed = 1;
nodes = (
(265,375,l),
(415,688,l),
(415,62,l)
);
},
{
closed = 1;
nodes = (
(250,344,l),
(400,32,l),
(100,32,l)
);
}
);
width = 500;
},
{
layerId = m003;
shapes = (
{
closed = 1;
nodes = (
(445,0,l),
(445,750,l),
(55,750,l),
(55,0,l)
);
},
{
closed = 1;
nodes = (
(100,718,l),
(400,718,l),
(250,406,l)
);
},
{
closed = 1;
nodes = (
(85,688,l),
(235,375,l),
(85,62,l)
);
},
{
closed = 1;
nodes = (
(265,375,l),
(415,688,l),
(415,62,l)
);
},
{
closed = 1;
nodes = (
(250,344,l),
(400,32,l),
(100,32,l)
);
}
);
width = 500;
}
);
},
{
glyphname = A;
kernLeft = kern_A3;
kernRight = kern_A3;
layers = (
{
anchors = (
{
name = bottom;
pos = (341,0);
},
{
name = right;
pos = (606,0);
},
{
name = top;
pos = (352,710);
}
);
layerId = m001;
shapes = (
{
closed = 1;
nodes = (
(219,0,l),
(219,25,l),
(127,38,l),
(126,28,l),
(341,588,l),
(330,588,l),
(552,29,l),
(554,39,l),
(463,25,l),
(463,0,l),
(676,0,l),
(676,25,l),
(576,47,l),
(620,28,l),
(362,665,l),
(341,665,l),
(82,28,l),
(105,42,l),
(33,25,l),
(33,0,l)
);
},
{
closed = 1;
nodes = (
(484,250,l),
(484,285,l),
(196,285,l),
(196,250,l)
);
}
);
width = 709;
},
{
anchors = (
{
name = bottom;
pos = (376,0);
},
{
name = right;
pos = (614,0);
},
{
name = top;
pos = (376,710);
}
);
layerId = m002;
shapes = (
{
closed = 1;
nodes = (
(249,0,l),
(249,16,l),
(152,55,l),
(156,28,l),
(386,599,l),
(335,599,l),
(566,28,l),
(578,58,l),
(469,16,l),
(469,0,l),
(717,0,l),
(717,16,l),
(610,73,l),
(660,28,l),
(398,665,l),
(353,665,l),
(88,28,l),
(119,61,l),
(33,16,l),
(33,0,l)
);
},
{
closed = 1;
nodes = (
(524,235,l),
(524,290,l),
(204,290,l),
(204,235,l)
);
}
);
width = 750;
},
{
anchors = (
{
name = bottom;
pos = (339,0);
},
{
name = right;
pos = (650,0);
},
{
name = top;
pos = (392,710);
}
);
layerId = m003;
shapes = (
{
closed = 1;
nodes = (
(227,0,l),
(227,16,l),
(125,62,l),
(134,28,l),
(348,539,l),
(303,539,l),
(517,28,l),
(529,63,l),
(420,16,l),
(420,0,l),
(780,0,l),
(780,16,l),
(686,64,l),
(721,28,l),
(449,665,l),
(334,665,l),
(59,28,l),
(88,62,l),
(10,16,l),
(10,0,l)
);
},
{
closed = 1;
nodes = (
(568,207,l),
(568,262,l),
(178,262,l),
(178,207,l)
);
}
);
width = 790;
}
);
unicode = 65;
},
{
glyphname = B;
kernLeft = kern_H2;
kernRight = kern_B1;
layers = (
{
layerId = m001;
shapes = (
{
closed = 1;
nodes = (
(203,0,l),
(203,660,l),
(65,660,l),
(65,635,l),
(143,618,l),
(143,42,l),
(65,25,l),
(65,0,l)
);
},
{
closed = 1;
nodes = (
(430,0,o),
(541,82,o),
(541,192,cs),
(541,292,o),
(440,354,o),
(275,354,c),
(267,339,l),
(406,339,o),
(483,421,o),
(483,512,cs),
(483,611,o),
(376,660,o),
(246,660,cs),
(151,660,l),
(151,624,l),
(254,624,ls),
(359,624,o),
(421,578,o),
(421,489,cs),
(421,406,o),
(355,358,o),
(260,358,cs),
(159,358,l),
(159,323,l),
(292,323,ls),
(405,323,o),
(478,278,o),
(478,178,cs),
(478,95,o),
(404,34,o),
(299,34,cs),
(179,34,l),
(179,0,l),
(281,0,ls)
);
}
);
width = 593;
},
{
layerId = m002;
shapes = (
{
closed = 1;
nodes = (
(235,0,l),
(235,660,l),
(65,660,l),
(65,644,l),
(145,604,l),
(145,56,l),
(65,16,l),
(65,0,l)
);
},
{
closed = 1;
nodes = (
(493,0,o),
(606,82,o),
(606,192,cs),
(606,298,o),
(507,363,o),
(346,363,c),
(338,348,l),
(472,348,o),
(549,426,o),
(549,512,cs),
(549,611,o),
(451,660,o),
(318,660,cs),
(182,660,l),
(182,605,l),
(295,605,ls),
(400,605,o),
(452,564,o),
(452,484,cs),
(452,411,o),
(396,368,o),
(301,368,cs),
(190,368,l),
(190,313,l),
(333,313,ls),
(446,313,o),
(509,274,o),
(509,184,cs),
(509,108,o),
(445,55,o),
(340,55,cs),
(210,55,l),
(210,0,l),
(341,0,ls)
);
}
);
width = 658;
},
{
layerId = m003;
shapes = (
{
closed = 1;
nodes = (
(309,0,l),
(309,660,l),
(30,660,l),
(30,644,l),
(119,602,l),
(119,58,l),
(30,16,l),
(30,0,l)
);
},
{
closed = 1;
nodes = (
(590,0,o),
(717,82,o),
(717,192,cs),
(717,298,o),
(596,363,o),
(407,363,c),
(407,348,l),
(564,348,o),
(656,426,o),
(656,512,cs),
(656,611,o),
(543,660,o),
(393,660,cs),
(227,660,l),
(227,605,l),
(327,605,ls),
(420,605,o),
(466,561,o),
(466,480,cs),
(466,409,o),
(416,363,o),
(332,363,cs),
(227,363,l),
(227,318,l),
(360,318,ls),
(460,318,o),
(516,275,o),
(516,189,cs),
(516,112,o),
(459,55,o),
(367,55,cs),
(227,55,l),
(227,0,l),
(418,0,ls)
);
}
);
width = 737;
}
);
unicode = 66;
},
{
glyphname = C;
kernLeft = kern_O2;
kernRight = kern_C1;
layers = (
{
anchors = (
{
name = bottom;
pos = (394,0);
},
{
name = top;
pos = (404,710);
}
);
layerId = m001;
shapes = (
{
closed = 1;
nodes = (
(501,-10,o),
(555,10,o),
(613,39,c),
(622,188,l),
(602,188,l),
(539,41,l),
(573,78,l),
(528,47,o),
(482,22,o),
(407,22,cs),
(247,22,o),
(125,155,o),
(125,352,cs),
(125,509,o),
(239,639,o),
(402,639,cs),
(465,639,o),
(512,613,o),
(576,562,c),
(542,608,l),
(591,466,l),
(612,466,l),
(607,621,l),
(553,647,o),
(504,670,o),
(410,670,cs),
(224,670,o),
(70,515,o),
(70,312,cs),
(70,129,o),
(206,-10,o),
(393,-10,cs)
);
}
);
width = 714;
},
{
anchors = (
{
name = bottom;
pos = (400,0);
},
{
name = top;
pos = (389,710);
}
);
layerId = m002;
shapes = (
{
closed = 1;
nodes = (
(510,-10,o),
(564,10,o),
(623,39,c),
(634,198,l),
(617,198,l),
(540,62,l),
(578,106,l),
(535,76,o),
(486,41,o),
(398,41,cs),
(268,41,o),
(163,152,o),
(163,342,cs),
(163,504,o),
(269,620,o),
(413,620,cs),
(467,620,o),
(502,600,o),
(565,554,c),
(529,599,l),
(605,447,l),
(623,447,l),
(618,622,l),
(563.216,648.894,o),
(515,670,o),
(415,670,cs),
(228,670,o),
(70,501.471,o),
(70,312,cs),
(70,126,o),
(195,-10,o),
(400,-10,cs)
);
}
);
width = 726;
},
{
anchors = (
{
name = bottom;
pos = (396,0);
},
{
name = top;
pos = (393,710);
}
);
layerId = m003;
shapes = (
{
closed = 1;
nodes = (
(486,-10,o),
(578,10,o),
(629,44,c),
(646,219,l),
(628,219,l),
(505,51,l),
(541,82,l),
(500,54,o),
(462,45,o),
(420,45,cs),
(312,45,o),
(234,150,o),
(234,316,cs),
(234,503,o),
(317,620,o),
(424,620,cs),
(470,620,o),
(492,612,o),
(524,591,c),
(495,615,l),
(621,428,l),
(639,428,l),
(624,622,l),
(566,650,o),
(523,670,o),
(415,670,cs),
(222,670,o),
(35,524,o),
(35,319,cs),
(35,133,o),
(185,-10,o),
(398,-10,cs)
);
}
);
width = 701;
}
);
unicode = 67;
},
{
glyphname = D;
kernLeft = kern_H2;
kernRight = kern_O1;
layers = (
{
anchors = (
{
name = bottom;
pos = (353,0);
},
{
name = top;
pos = (353,710);
}
);
layerId = m001;
shapes = (
{
closed = 1;
nodes = (
(205,0,l),
(205,660,l),
(65,660,l),
(65,635,l),
(145,618,l),
(145,42,l),
(65,25,l),
(65,0,l)
);
},
{
closed = 1;
nodes = (
(508,0,o),
(645,138,o),
(645,360,cs),
(645,532,o),
(519,660,o),
(298,660,cs),
(152,660,l),
(152,625,l),
(305,625,ls),
(481,625,o),
(580,508,o),
(580,329,cs),
(580,156,o),
(473,35,o),
(310,35,cs),
(180,35,l),
(180,0,l),
(291,0,ls)
);
}
);
width = 715;
},
{
anchors = (
{
name = bottom;
pos = (388,0);
},
{
name = top;
pos = (388,710);
}
);
layerId = m002;
shapes = (
{
closed = 1;
nodes = (
(235,0,l),
(235,660,l),
(65,660,l),
(65,644,l),
(145,604,l),
(145,56,l),
(65,16,l),
(65,0,l)
);
},
{
closed = 1;
nodes = (
(554,0,o),
(705,152,o),
(705,360,cs),
(705,532,o),
(579,660,o),
(358,660,cs),
(182,660,l),
(182,605,l),
(335,605,ls),
(511,605,o),
(610,496,o),
(610,329,cs),
(610,162,o),
(511,55,o),
(350,55,cs),
(210,55,l),
(210,0,l),
(351,0,ls)
);
}
);
width = 775;
},
{
anchors = (
{
name = bottom;
pos = (413,0);
},
{
name = top;
pos = (393,710);
}
);
layerId = m003;
shapes = (
{
closed = 1;
nodes = (
(309,0,l),
(309,660,l),
(30,660,l),
(30,644,l),
(119,602,l),
(119,58,l),
(30,16,l),
(30,0,l)
);
},
{
closed = 1;
nodes = (
(624,0,o),
(790,152,o),
(790,360,cs),
(790,532,o),
(649,660,o),
(402,660,cs),
(256,660,l),
(256,605,l),
(349,605,ls),
(514,605,o),
(594,498,o),
(594,329,cs),
(594,162,o),
(514,55,o),
(364,55,cs),
(284,55,l),
(284,0,l),
(395,0,ls)
);
}
);
width = 820;
}
);
unicode = 68;
},
{
glyphname = E;
kernLeft = kern_H2;
kernRight = kern_E1;
layers = (
{
anchors = (
{
name = bottom;
pos = (328,0);
},
{
name = right;
pos = (486,0);
},
{
name = top;
pos = (328,710);
}
);
layerId = m001;
shapes = (
{
closed = 1;
nodes = (
(203,0,l),
(203,660,l),
(65,660,l),
(65,635,l),
(143,618,l),
(143,42,l),
(65,25,l),
(65,0,l)
);
},
{
closed = 1;
nodes = (
(513,498,l),
(513,660,l),
(172,660,l),
(172,625,l),
(451,625,l),
(493,498,l)
);
},
{
closed = 1;
nodes = (
(430,242,l),
(430,441,l),
(410,441,l),
(385,358,l),
(172,358,l),
(172,323,l),
(385,323,l),
(410,242,l)
);
},
{
closed = 1;
nodes = (
(541,172,l),
(521,172,l),
(479,35,l),
(172,35,l),
(172,0,l),
(541,0,l)
);
}
);
width = 611;
},
{
anchors = (
{
name = bottom;
pos = (350,0);
},
{
name = right;
pos = (505,0);
},
{
name = top;
pos = (335,710);
}
);
layerId = m002;
shapes = (
{
closed = 1;
nodes = (
(235,0,l),
(235,660,l),
(65,660,l),
(65,644,l),
(145,604,l),
(145,56,l),
(65,16,l),
(65,0,l)
);
},
{
closed = 1;
nodes = (
(554,488,l),
(554,660,l),
(182,660,l),
(182,605,l),
(476,605,l),
(538,488,l)
);
},
{
closed = 1;
nodes = (
(471,232,l),
(471,451,l),
(455,451,l),
(405,368,l),
(190,368,l),
(190,313,l),
(405,313,l),
(455,232,l)
);
},
{
closed = 1;
nodes = (
(582,182,l),
(566,182,l),
(504,55,l),
(210,55,l),
(210,0,l),
(582,0,l)
);
}
);
width = 652;
},
{
anchors = (
{
name = bottom;
pos = (366,0);
},
{
name = right;
pos = (569,0);
},
{
name = top;
pos = (366,710);
}
);
layerId = m003;
shapes = (
{
closed = 1;
nodes = (
(309,0,l),
(309,660,l),
(30,660,l),
(30,644,l),
(119,602,l),
(119,58,l),
(30,16,l),
(30,0,l)
);
},
{
closed = 1;
nodes = (
(612,486,l),
(612,660,l),
(207,660,l),
(207,605,l),
(514,605,l),
(596,486,l)
);
},
{
closed = 1;
nodes = (
(529,227,l),
(529,456,l),
(513,456,l),
(453,368,l),
(215,368,l),
(215,313,l),
(453,313,l),
(513,227,l)
);
},
{
closed = 1;
nodes = (
(640,219,l),
(624,219,l),
(535,55,l),
(235,55,l),
(235,0,l),
(640,0,l)
);
}
);
width = 700;
}
);
unicode = 69;
},
{
glyphname = F;
kernLeft = kern_H2;
kernRight = kern_F1;
layers = (
{
layerId = m001;
shapes = (
{
closed = 1;
nodes = (
(296,0,l),
(296,25,l),
(205,42,l),
(205,660,l),
(67,660,l),
(67,635,l),
(145,618,l),
(145,42,l),
(65,25,l),
(65,0,l)
);
},
{
closed = 1;
nodes = (
(515,498,l),
(515,660,l),
(174,660,l),
(174,625,l),
(453,625,l),
(495,498,l)
);
},
{
closed = 1;
nodes = (
(432,242,l),
(432,441,l),
(412,441,l),
(387,358,l),
(174,358,l),
(174,323,l),
(387,323,l),
(412,242,l)
);
}
);
width = 585;
},
{
layerId = m002;
shapes = (
{
closed = 1;
nodes = (
(325,0,l),
(325,16,l),
(235,56,l),
(235,660,l),
(65,660,l),
(65,644,l),
(145,604,l),
(145,56,l),
(65,16,l),
(65,0,l)
);
},
{
closed = 1;
nodes = (
(544,488,l),
(544,660,l),
(172,660,l),
(172,605,l),
(466,605,l),
(528,488,l)
);
},
{
closed = 1;
nodes = (
(461,232,l),
(461,451,l),
(445,451,l),
(395,368,l),
(180,368,l),
(180,313,l),
(395,313,l),
(445,232,l)
);
}
);
width = 614;
},
{
layerId = m003;
shapes = (
{
closed = 1;
nodes = (
(419,0,l),
(419,16,l),
(309,58,l),
(309,660,l),
(30,660,l),
(30,644,l),
(119,602,l),
(119,58,l),
(30,16,l),
(30,0,l)
);
},
{
closed = 1;
nodes = (
(602,486,l),
(602,660,l),
(207,660,l),
(207,605,l),
(514,605,l),
(586,486,l)
);
},
{
closed = 1;
nodes = (
(519,232,l),
(519,451,l),
(503,451,l),
(443,363,l),
(215,363,l),
(215,318,l),
(443,318,l),
(503,232,l)
);
}
);
width = 642;
}
);
unicode = 70;
},
{
glyphname = G;
kernLeft = kern_O2;
kernRight = kern_G1;
layers = (
{
anchors = (
{
name = bottom;
pos = (403,0);
},
{
name = top;
pos = (415,710);
}
);
layerId = m001;
shapes = (
{
closed = 1;
nodes = (
(479,-10,o),
(565,19,o),
(619,64,c),
(619,248,l),
(697,265,l),
(697,290,l),
(472,290,l),
(472,265,l),
(559,245,l),
(559,41,l),
(588,67,l),
(525,35,o),
(472,29,o),
(413,29,cs),
(257,29,o),
(125,151,o),
(125,352,cs),
(125,504,o),
(235,639,o),
(408,639,cs),
(478,639,o),
(528,617,o),
(596,562,c),
(562,608,l),
(611,466,l),
(632,466,l),
(627,621,l),
(570,649,o),
(519,670,o),
(414,670,cs),
(225,670,o),
(70,517,o),
(70,312,cs),
(70,126,o),
(211,-10,o),
(403,-10,cs)
);
}
);
width = 747;
},
{
anchors = (
{
name = bottom;
pos = (415,0);
},
{
name = top;
pos = (400,710);
}
);
layerId = m002;
shapes = (
{
closed = 1;
nodes = (
(489,-10,o),
(588,23,o),
(649,74,c),
(649,231,l),
(718,274,l),
(718,290,l),
(470,290,l),
(470,274,l),
(559,234,l),
(559,61,l),
(588,82,l),
(533,54,o),
(485,48,o),
(432,48,cs),
(280,48,o),
(159,163,o),
(159,362,cs),
(159,510,o),
(270,620,o),
(424,620,cs),
(481,620,o),
(514,604,o),
(584,554,c),
(546,598,l),
(628,457,l),
(644,457,l),
(639,622,l),
(582,650,o),
(531,670,o),
(426,670,cs),
(230,670,o),
(70,517,o),
(70,312,cs),
(70,126,o),
(211,-10,o),
(403,-10,cs)
);
}
);
width = 768;
},
{
anchors = (
{
name = bottom;
pos = (405,0);
},
{
name = top;
pos = (406,710);
}
);
layerId = m003;
shapes = (
{
closed = 1;
nodes = (
(476,-10,o),
(592,23,o),
(653,74,c),
(653,239,l),
(732,291,l),
(732,307,l),
(374,307,l),
(374,291,l),
(463,239,l),
(463,22,l),
(575,77,l),
(530,53,o),
(461,43,o),
(419,43,cs),
(317,43,o),
(236,149.676,o),
(236,316,cs),
(236,503.329,o),
(329,622,o),
(436,622,cs),
(482,622,o),
(514,614,o),
(546,593,c),
(517,617,l),
(642,439,l),
(661,439,l),
(646,622,l),
(588,650,o),
(535,670,o),
(427,670,cs),
(224,670,o),
(37,524,o),
(37,319,cs),
(37,133,o),
(198,-10,o),
(390,-10,cs)
);
}
);
width = 749;
}
);
unicode = 71;
},
{
glyphname = H;
kernLeft = kern_H2;
kernRight = kern_H1;
layers = (
{
anchors = (
{
name = bottom;
pos = (392,0);
},
{
name = top;
pos = (392,710);
}
);
layerId = m001;
shapes = (
{
closed = 1;
nodes = (
(289,0,l),
(289,25,l),
(203,42,l),
(203,618,l),
(289,635,l),
(289,660,l),
(65,660,l),
(65,635,l),
(143,618,l),
(143,42,l),
(65,25,l),
(65,0,l)
);
},
{
closed = 1;
nodes = (
(610,323,l),
(610,358,l),
(180,358,l),
(180,323,l)
);
},
{
closed = 1;
nodes = (
(719,0,l),
(719,25,l),
(641,42,l),
(641,618,l),
(719,635,l),
(719,660,l),
(495,660,l),
(495,635,l),
(581,618,l),
(581,42,l),
(495,25,l),
(495,0,l)
);
}
);
width = 784;
},
{
anchors = (
{
name = bottom;
pos = (405,0);
},
{
name = top;
pos = (405,710);
}
);
layerId = m002;
shapes = (
{
closed = 1;
nodes = (
(315,0,l),
(315,16,l),
(235,56,l),
(235,604,l),
(315,644,l),
(315,660,l),
(65,660,l),
(65,644,l),
(145,604,l),
(145,56,l),
(65,16,l),
(65,0,l)
);
},
{
closed = 1;
nodes = (
(620,313,l),
(620,368,l),
(190,368,l),
(190,313,l)
);
},
{
closed = 1;
nodes = (
(745,0,l),
(745,16,l),
(665,56,l),
(665,604,l),
(745,644,l),
(745,660,l),
(495,660,l),
(495,644,l),
(575,604,l),
(575,56,l),
(495,16,l),
(495,0,l)
);
}
);
width = 810;
},
{
anchors = (
{
name = bottom;
pos = (426,0);
},
{
name = top;
pos = (426,710);
}
);
layerId = m003;
shapes = (
{
closed = 1;
nodes = (
(386,0,l),
(386,16,l),
(309,58,l),
(309,602,l),
(386,644,l),
(386,660,l),
(30,660,l),
(30,644,l),
(119,602,l),
(119,58,l),
(30,16,l),
(30,0,l)
);
},
{
closed = 1;
nodes = (
(645,312,l),
(645,367,l),
(215,367,l),
(215,312,l)
);
},
{
closed = 1;
nodes = (
(822,0,l),
(822,16,l),
(735,58,l),
(735,602,l),
(822,644,l),
(822,660,l),
(466,660,l),
(466,644,l),
(545,602,l),
(545,58,l),
(466,16,l),
(466,0,l)
);
}
);
width = 852;
}
);
unicode = 72;
},
{
glyphname = I;
kernLeft = kern_H2;
kernRight = kern_H1;
layers = (
{
anchors = (
{
name = bottom;
pos = (179,0);
},
{
name = right;
pos = (188,0);
},
{
name = top;
pos = (178,710);
}
);
layerId = m001;
shapes = (
{
closed = 1;
nodes = (
(286,0,l),
(286,25,l),
(208,42,l),
(208,618,l),
(286,635,l),
(286,660,l),
(70,660,l),
(70,635,l),
(148,618,l),
(148,42,l),
(70,25,l),
(70,0,l)
);
}
);
width = 356;
},
{
anchors = (
{
name = bottom;
pos = (195,0);
},
{
name = right;
pos = (212,0);
},
{
name = top;
pos = (195,710);
}
);
layerId = m002;
shapes = (
{
closed = 1;
nodes = (
(320,0,l),
(320,16,l),
(240,56,l),
(240,604,l),
(320,644,l),
(320,660,l),
(70,660,l),
(70,644,l),
(150,604,l),
(150,56,l),
(70,16,l),
(70,0,l)
);
}
);
width = 390;
},
{
anchors = (
{
name = bottom;
pos = (214,0);
},
{
name = right;
pos = (241,0);
},
{
name = top;
pos = (214,710);
}
);
layerId = m003;
shapes = (
{
closed = 1;
nodes = (
(398,0,l),
(398,16,l),
(309,58,l),
(309,602,l),
(398,644,l),
(398,660,l),
(30,660,l),
(30,644,l),
(119,602,l),
(119,58,l),
(30,16,l),
(30,0,l)
);
}
);
width = 428;
}
);
unicode = 73;
},
{
glyphname = J;
kernLeft = kern_J2;
kernRight = kern_J1;
layers = (
{
anchors = (
{
name = top;
pos = (180,710);
}
);
layerId = m001;
shapes = (
{
closed = 1;
nodes = (
(80.783,-173,o),
(91.872,-166.064,o),
(146,-108,cs),
(196.168,-54.822,o),
(210,45.306,o),
(210,210,cs),
(210,618,l),
(290,635,l),
(290,660,l),
(70,660,l),
(70,635,l),
(150,618,l),
(150,51,ls),
(150,-83,o),
(122,-108,o),
(79,-108,cs),
(61,-108,o),
(51,-105,o),
(28,-99,c),
(22,-99,l),
(16,-129,o),
(13,-142,o),
(13,-145,cs),
(13,-166,o),
(29,-173,o),
(46,-173,cs)
);
}
);
width = 360;
},
{
anchors = (
{
name = top;
pos = (195,710);
}
);
layerId = m002;
shapes = (
{
closed = 1;
nodes = (
(86,-173,o),
(103,-163,o),
(161,-99,cs),
(219,-35,o),
(240,90.385,o),
(240,240,cs),
(240,604,l),
(320,644,l),
(320,660,l),
(70,660,l),
(70,644,l),
(150,604,l),
(150,51,ls),
(150,-83,o),
(123,-100,o),
(80,-100,cs),
(62,-100,o),
(52,-97,o),
(29,-91,c),
(23,-91,l),
(13,-139,o),
(13,-142,o),
(13,-145,cs),
(13,-166,o),
(29,-173,o),
(46,-173,cs)
);
}
);
width = 390;
},
{
anchors = (
{
name = top;
pos = (245,710);
}
);
layerId = m003;
shapes = (
{
closed = 1;
nodes = (
(112.395,-173,o),
(159,-130,o),
(199,-83,cs),
(245,-28,o),
(340,92.142,o),
(340,249,cs),
(340,602,l),
(429,644,l),
(429,660,l),
(61,660,l),
(61,644,l),
(150,602,l),
(150,49,ls),
(150,-50,o),
(130,-63,o),
(98,-63,cs),
(85,-63,o),
(77,-61,o),
(60,-56,c),
(50,-56,l),
(42,-91,o),
(35,-126,o),
(35,-144,cs),
(35,-164,o),
(46,-173,o),
(66,-173,cs)
);
}
);
width = 459;
}
);
unicode = 74;
},
{
glyphname = K;
kernLeft = kern_H2;
kernRight = kern_K1;
layers = (
{
anchors = (
{
name = bottom;
pos = (352,0);
},
{
name = top;
pos = (352,710);
}
);
layerId = m001;
shapes = (
{
closed = 1;
nodes = (
(285,0,l),
(285,25,l),
(205,42,l),
(205,618,l),
(285,635,l),
(285,660,l),
(65,660,l),
(65,635,l),
(145,618,l),
(145,42,l),
(65,25,l),
(65,0,l)
);
},
{
closed = 1;
nodes = (
(554,0,l),
(668,0,l),
(668,25,l),
(567,43,l),
(621,18,l),
(244,373,l),
(241,337,l),
(567,632,l),
(541,620,l),
(616,635,l),
(616,660,l),
(418,660,l),
(418,635,l),
(517,611,l),
(511,632,l),
(200,338,l)
);
}
);
width = 703;
},
{
anchors = (
{
name = bottom;
pos = (385,0);
},
{
name = top;
pos = (385,710);
}
);
layerId = m002;
shapes = (
{
closed = 1;
nodes = (
(315,0,l),
(315,16,l),
(235,56,l),
(235,604,l),
(315,644,l),
(315,660,l),
(65,660,l),
(65,644,l),
(145,604,l),
(145,56,l),
(65,16,l),
(65,0,l)
);
},
{
closed = 1;
nodes = (
(560,0,l),
(704,0,l),
(704,16,l),
(604,59,l),
(654,31,l),
(303,386,l),
(303,338,l),
(609,638,l),
(568,611,l),
(652,644,l),
(652,660,l),
(442,660,l),
(442,644,l),
(530,602,l),
(530,627,l),
(236,338,l)
);
}
);
width = 719;
},
{
anchors = (
{
name = bottom;
pos = (452,0);
},
{
name = top;
pos = (452,710);
}
);
layerId = m003;
shapes = (
{
closed = 1;
nodes = (
(398,0,l),
(398,16,l),
(309,58,l),
(309,602,l),
(398,644,l),
(398,660,l),
(30,660,l),
(30,644,l),
(119,602,l),
(119,58,l),
(30,16,l),
(30,0,l)
);
},
{
closed = 1;
nodes = (
(533,0,l),
(806,0,l),
(806,16,l),
(697,61,l),
(743,29,l),
(467,428,l),
(399,339,l),
(708,632,l),
(638,591,l),
(757,644,l),
(757,660,l),
(505,660,l),
(505,644,l),
(613,591,l),
(607,632,l),
(309,330,l)
);
}
);
width = 810;
}
);
unicode = 75;
},
{
glyphname = L;
kernLeft = kern_H2;
kernRight = kern_L1;
layers = (
{
anchors = (
{
name = bottom;
pos = (317,0);
},
{
name = mid;
pos = (479,340);
},
{
name = right;
pos = (462,660);
},
{
name = top;
pos = (174,710);
}
);
layerId = m001;
shapes = (
{
closed = 1;
nodes = (
(541,0,l),
(541,212,l),
(521,212,l),
(474,35,l),
(203,35,l),
(203,618,l),
(293,635,l),
(293,660,l),
(65,660,l),
(65,635,l),
(143,618,l),
(143,42,l),
(65,25,l),
(65,0,l)
);
}
);
width = 611;
},
{
anchors = (
{
name = bottom;
pos = (354,0);
},
{
name = mid;
pos = (490,347);
},
{
name = right;
pos = (475,660);
},
{
name = top;
pos = (190,710);
}
);
layerId = m002;
shapes = (
{
closed = 1;
nodes = (
(562,0,l),
(562,222,l),
(546,222,l),
(478,55,l),
(235,55,l),
(235,604,l),
(325,644,l),
(325,660,l),
(65,660,l),
(65,644,l),
(145,604,l),
(145,56,l),
(65,16,l),
(65,0,l)
);
}
);
width = 632;
},
{
anchors = (
{
name = bottom;
pos = (362,0);
},
{
name = mid;
pos = (540,355);
},
{
name = right;
pos = (520,660);
},
{
name = top;
pos = (214,710);
}
);
layerId = m003;
shapes = (
{
closed = 1;
nodes = (
(620,0,l),
(620,259,l),
(604,259,l),
(514,55,l),
(309,55,l),
(309,602,l),
(408,644,l),
(408,660,l),
(30,660,l),
(30,644,l),
(119,602,l),
(119,58,l),
(30,16,l),
(30,0,l)
);
}
);
width = 660;
}
);
unicode = 76;
},
{
glyphname = M;
kernLeft = kern_M3;
kernRight = kern_M3;
layers = (
{
anchors = (
{
name = bottom;
pos = (460,0);
}
);
layerId = m001;
shapes = (
{
closed = 1;
nodes = (
(264,0,l),
(264,25,l),
(183,41,l),
(196,637,l),
(161,637,l),
(139,42,l),
(60,25,l),
(60,0,l)
);
},
{
closed = 1;
nodes = (
(470,-5,l),
(740,611,l),
(773,611,l),
(872,635,l),
(872,660,l),
(720,660,l),
(459,61,l),
(481,71,l),
(229,660,l),
(74,660,l),
(74,635,l),
(173,611,l),
(189,611,l),
(449,-5,l)
);
},
{
closed = 1;
nodes = (
(875,0,l),
(875,25,l),
(805,42,l),
(787,637,l),
(731,637,l),
(743,41,l),
(669,25,l),
(669,0,l)
);
}
);
width = 935;
},
{
anchors = (
{
name = bottom;
pos = (472,0);
}
);
layerId = m002;
shapes = (
{
closed = 1;
nodes = (
(282,0,l),
(282,16,l),
(201,55,l),
(217,642,l),
(161,642,l),
(139,56,l),
(60,16,l),
(60,0,l)
);
},
{
closed = 1;
nodes = (
(494,-5,l),
(754,597,l),
(797,597,l),
(896,644,l),
(896,660,l),
(720,660,l),
(465,71,l),
(514,71,l),
(259,660,l),
(74,660,l),
(74,644,l),
(173,597,l),
(190,597,l),
(449,-5,l)
);
},
{
closed = 1;
nodes = (
(899,0,l),
(899,16,l),
(829,56,l),
(811,642,l),
(731,642,l),
(743,55,l),
(669,16,l),
(669,0,l)
);
}
);
width = 959;
},
{
anchors = (
{
name = bottom;
pos = (461,0);
}
);
layerId = m003;
shapes = (
{
closed = 1;
nodes = (
(281,0,l),
(281,16,l),
(190,57,l),
(206,642,l),
(141,642,l),
(119,58,l),
(30,16,l),
(30,0,l)
);
},
{
closed = 1;
nodes = (
(493,-5,l),
(746,595,l),
(825,595,l),
(981,644,l),
(981,660,l),
(700,660,l),
(502,189,l),
(543,189,l),
(339,660,l),
(51,660,l),
(51,644,l),
(157,595,l),
(171,595,l),
(429,-5,l)
);
},
{
closed = 1;
nodes = (
(989,0,l),
(989,16,l),
(909,58,l),
(891,642,l),
(711,642,l),
(723,57,l),
(639,16,l),
(639,0,l)
);
}
);
width = 1019;
}
);
unicode = 77;
},
{
glyphname = N;
kernLeft = kern_H2;
kernRight = kern_N1;
layers = (
{
anchors = (
{
name = bottom;
pos = (392,0);
},
{
name = top;
pos = (392,710);
}
);
layerId = m001;
shapes = (
{
closed = 1;
nodes = (
(274,0,l),
(274,25,l),
(183,45,l),
(183,601,l),
(164,601,l),
(619,-5,l),
(641,-5,l),
(641,618,l),
(719,635,l),
(719,660,l),
(517,660,l),
(517,635,l),
(603,618,l),
(603,61,l),
(638,61,l),
(196,660,l),
(65,660,l),
(65,635,l),
(143,618,l),
(143,42,l),
(65,25,l),
(65,0,l)
);
}
);
width = 784;
},
{
anchors = (
{
name = bottom;
pos = (420,0);
},
{
name = top;
pos = (410,710);
}
);
layerId = m002;
shapes = (
{
closed = 1;
nodes = (
(310,0,l),
(310,16,l),
(210,55,l),
(210,561,l),
(174,561,l),
(623,-5,l),
(660,-5,l),
(660,605,l),
(739,644,l),
(739,660,l),
(490,660,l),
(490,644,l),
(590,606,l),
(590,100,l),
(654,100,l),
(208,660,l),
(61,660,l),
(61,644,l),
(140,602,l),
(140,56,l),
(60,16,l),
(60,0,l)
);
}
);
width = 799;
},
{
anchors = (
{
name = bottom;
pos = (414,0);
},
{
name = top;
pos = (415,710);
}
);
layerId = m003;
shapes = (
{
closed = 1;
nodes = (
(312,0,l),
(312,16,l),
(189,58,l),
(189,493,l),
(150,493,l),
(631,-5,l),
(710,-5,l),
(710,602,l),
(797,644,l),
(797,660,l),
(517,660,l),
(517,644,l),
(640,602,l),
(640,187,l),
(698,187,l),
(247,660,l),
(30,660,l),
(30,644,l),
(119,602,l),
(119,58,l),
(30,16,l),
(30,0,l)
);
}
);
width = 827;
}
);
unicode = 78;
},
{
glyphname = O;
kernLeft = kern_O2;
kernRight = kern_O1;
layers = (
{
anchors = (
{
name = bottom;
pos = (384,0);
},
{
name = right;
pos = (426,0);
},
{
name = top;
pos = (384,710);
}
);
layerId = m001;
shapes = (
{
closed = 1;
nodes = (
(564,-10,o),
(697,134,o),
(697,330,cs),
(697,526,o),
(564,670,o),
(383,670,cs),
(203,670,o),
(70,526,o),
(70,330,cs),
(70,134,o),
(203,-10,o),
(383,-10,cs)
);
},
{
closed = 1;
nodes = (
(252.443,20,o),
(132,156,o),
(132,363,cs),
(132,533,o),
(229.416,641,o),
(366,641,cs),
(516,641,o),
(635,506,o),
(635,299,cs),
(635,129,o),
(541,20,o),
(404,20,cs)
);
}
);
width = 767;
},
{
anchors = (
{
name = bottom;
pos = (417,0);
},
{
name = right;
pos = (431,0);
},
{
name = top;
pos = (391,710);
}
);
layerId = m002;
shapes = (
{
closed = 1;
nodes = (
(595,-10,o),
(737,134,o),
(737,330,cs),
(737,526,o),
(595,670,o),
(403,670,cs),
(212,670,o),
(70,526,o),
(70,330,cs),
(70,134,o),
(212,-10,o),
(403,-10,cs)
);
},
{
closed = 1;
nodes = (
(281,40,o),
(167,168,o),
(167,363,cs),
(167,521,o),
(258,621,o),
(386,621,cs),
(528,621,o),
(640,494,o),
(640,299,cs),
(640,141,o),
(552,40,o),
(424,40,cs)
);
}
);
width = 807;
},
{
anchors = (
{
name = bottom;
pos = (389,0);
},
{
name = right;
pos = (423,0);
},
{
name = top;
pos = (389,710);
}
);
layerId = m003;
shapes = (
{
closed = 1;
nodes = (
(591,-10,o),
(742,134,o),
(742,330,cs),
(742,526,o),
(591,670,o),
(388,670,cs),
(186,670,o),
(35,526,o),
(35,330,cs),
(35,134,o),
(186,-10,o),
(388,-10,cs)
);
},
{
closed = 1;
nodes = (
(309,43,o),
(235,169,o),
(235,361,cs),
(235,518,o),
(296,618,o),
(377,618,cs),
(470,618,o),
(542,493,o),
(542,301,cs),
(542,144,o),
(485,43,o),
(401,43,cs)
);
}
);
width = 777;
}
);
unicode = 79;
},
{
glyphname = P;
kernLeft = kern_H2;
kernRight = kern_P1;
layers = (
{
layerId = m001;
shapes = (
{
closed = 1;
nodes = (
(295,0,l),
(295,25,l),
(205,42,l),
(205,625,l),
(273,625,ls),
(386,625,o),
(459,580,o),
(459,473,cs),
(459,386,o),
(385,326,o),
(280,326,cs),
(180,326,l),
(180,291,l),
(252,291,ls),
(415,291,o),
(526,372,o),
(526,481,cs),
(526,605,o),
(422,660,o),
(265,660,cs),
(65,660,l),
(65,635,l),
(145,618,l),
(145,42,l),
(65,25,l),
(65,0,l)
);
}
);
width = 578;
},
{
layerId = m002;
shapes = (
{
closed = 1;
nodes = (
(325,0,l),
(325,16,l),
(235,56,l),
(235,605,l),
(313,605,ls),
(426,605,o),
(489,566,o),
(489,473,cs),
(489,398,o),
(425,346,o),
(320,346,cs),
(210,346,l),
(210,291,l),
(301,291,ls),
(464,291,o),
(586,372,o),
(586,481,cs),
(586,605,o),
(482,660,o),
(325,660,cs),
(65,660,l),
(65,644,l),
(145,604,l),
(145,56,l),
(65,16,l),
(65,0,l)
);
}
);
width = 638;
},
{
layerId = m003;
shapes = (
{
closed = 1;
nodes = (
(419,0,l),
(419,16,l),
(309,58,l),
(309,605,l),
(327,605,ls),
(440,605,o),
(503,566,o),
(503,473,cs),
(503,398,o),
(439,341,o),
(334,341,cs),
(284,341,l),
(284,296,l),
(408,296,ls),
(571,296,o),
(693,368,o),
(693,483,cs),
(693,607,o),
(589,660,o),
(432,660,cs),
(30,660,l),
(30,644,l),
(119,602,l),
(119,58,l),
(30,16,l),
(30,0,l)
);
}
);
width = 713;
}
);
unicode = 80;
},
{
glyphname = Q;
kernLeft = kern_O2;
kernRight = kern_O1;
layers = (
{
layerId = m001;
shapes = (
{
closed = 1;
nodes = (
(564,-10,o),
(697,134,o),
(697,330,cs),
(697,526,o),
(564,670,o),
(383,670,cs),
(203,670,o),
(70,526,o),
(70,330,cs),
(70,134,o),
(203,-10,o),
(383,-10,cs)
);
},
{
closed = 1;
nodes = (
(252,20,o),
(132,156,o),
(132,363,cs),
(132,533,o),
(229,641,o),
(366,641,cs),
(516,641,o),
(635,506,o),
(635,299,cs),
(635,129,o),
(541,20,o),
(404,20,cs)
);
},
{
closed = 1;
nodes = (
(707,-149,o),
(750,-135,o),
(777,-122,c),
(777,-100,l),
(750.464,-110.384,o),
(720,-115,o),
(691,-115,cs),
(614,-115,o),
(564,-96,o),
(412,16,c),
(333,16,l),
(504,-128,o),
(576,-149,o),
(661,-149,cs)
);
}
);
width = 777;
},
{
layerId = m002;
shapes = (
{
closed = 1;
nodes = (
(595,-10,o),
(737,134,o),
(737,330,cs),
(737,526,o),
(595,670,o),
(403,670,cs),
(212,670,o),
(70,526,o),
(70,330,cs),
(70,134,o),
(212,-10,o),
(403,-10,cs)
);
},
{
closed = 1;
nodes = (
(281,40,o),
(167,168,o),
(167,363,cs),
(167,521,o),
(258,621,o),
(386,621,cs),
(528,621,o),
(640,494,o),
(640,299,cs),
(640,141,o),
(552,40,o),
(424,40,cs)
);
},
{
closed = 1;
nodes = (
(732,-149,o),
(776,-138,o),
(807,-122,c),
(807,-106,l),
(792,-111,o),
(771,-115,o),
(743,-115,cs),
(673,-115,o),
(606,-83,o),
(483,16,c),
(347,16,l),
(515,-126,o),
(599,-149,o),
(682,-149,cs)
);
}
);
width = 807;
},
{
layerId = m003;
shapes = (
{
closed = 1;
nodes = (
(591,-10,o),
(742,134,o),
(742,330,cs),
(742,526,o),
(591,670,o),
(388,670,cs),
(186,670,o),
(35,526,o),
(35,330,cs),
(35,134,o),
(186,-10,o),
(388,-10,cs)
);
},
{
closed = 1;
nodes = (
(309,43,o),
(235,169,o),
(235,361,cs),
(235,518,o),
(296,618,o),
(377,618,cs),
(470,618,o),
(542,493,o),
(542,301,cs),
(542,144,o),
(485,43,o),
(401,43,cs)
);
},
{
closed = 1;
nodes = (
(748.765,-159,o),
(786.595,-146.196,o),
(816,-132,c),
(816,-104,l),
(801,-108,o),
(780,-114,o),
(748,-114,cs),
(694,-114,o),
(623,-86,o),
(510,16,c),
(293,16,l),
(460.505,-116.608,o),
(579.218,-159,o),
(689,-159,cs)
);
}
);
width = 777;
}
);
unicode = 81;
},
{
glyphname = R;
kernLeft = kern_H2;
kernRight = kern_R1;
layers = (
{
anchors = (
{
name = bottom;
pos = (347,0);
},
{
name = top;
pos = (297,710);
}
);
layerId = m001;
shapes = (
{
closed = 1;
nodes = (
(280,0,l),
(280,25,l),
(205,43,l),
(205,660,l),
(65,660,l),
(65,635,l),
(145,618,l),
(145,42,l),
(65,25,l),
(65,0,l)
);
},
{
closed = 1;
nodes = (
(489,598,o),
(403,660,o),
(263,660,cs),
(182,660,l),
(182,625,l),
(270,625,ls),
(364,625,o),
(422,571,o),
(422,484,cs),
(422,405,o),
(360,348,o),
(276,348,c),
(190,348,l),
(190,313,l),
(308,313,l),
(308,322,l),
(414,343,o),
(489,404,o),
(489,497,cs)
);
},
{
closed = 1;
nodes = (
(608,0,l),
(608,25,l),
(542,38,l),
(344,341,l),
(274,341,l),
(492,0,l)
);
}
);
width = 603;
},
{
anchors = (
{
name = bottom;
pos = (367,0);
},
{
name = top;
pos = (317,710);
}
);
layerId = m002;
shapes = (
{
closed = 1;
nodes = (
(310,0,l),
(310,16,l),
(235,57,l),
(235,660,l),
(65,660,l),
(65,644,l),
(145,604,l),
(145,56,l),
(65,16,l),
(65,0,l)
);
},
{
closed = 1;
nodes = (
(549,598,o),
(463,660,o),
(323,660,cs),
(182,660,l),
(182,605,l),
(300,605,ls),
(394,605,o),
(452,559,o),
(452,484,cs),
(452,411,o),
(390,358,o),
(306,358,cs),
(190,358,l),
(190,303,l),
(333,303,l),
(333,312,l),
(457,324,o),
(549,401,o),
(549,497,cs)
);
},
{
closed = 1;
nodes = (
(666,0,l),
(666,16,l),
(600,52,l),
(402,341,l),
(304,341,l),
(522,0,l)
);
}
);
width = 661;
},
{
anchors = (
{
name = bottom;
pos = (428,0);
},
{
name = top;
pos = (357,710);
}
);
layerId = m003;
shapes = (
{
closed = 1;
nodes = (
(384,0,l),
(384,16,l),
(309,59,l),
(309,660,l),
(30,660,l),
(30,644,l),
(119,602,l),
(119,58,l),
(30,16,l),
(30,0,l)
);
},
{
closed = 1;
nodes = (
(653,598,o),
(567,660,o),
(427,660,cs),
(256,660,l),
(256,605,l),
(333,605,ls),
(423,605,o),
(466,560.466,o),
(466,479,cs),
(466,402.983,o),
(419,353,o),
(339,353,cs),
(264,353,l),
(264,308,l),
(398,308,l),
(414,319,l),
(551,342,o),
(653,394,o),
(653,497,cs)
);
},
{
closed = 1;
nodes = (
(780,0,l),
(780,16,l),
(704,59,l),
(512,361,l),
(321,336,l),
(516,0,l)
);
}
);
width = 770;
}
);
unicode = 82;
},
{
glyphname = S;
kernLeft = kern_S3;
kernRight = kern_S3;
layers = (
{
anchors = (
{
name = bottom;
pos = (261,0);
},
{
name = top;
pos = (270,710);
}
);
layerId = m001;
shapes = (
{
closed = 1;
nodes = (
(357,-10,o),
(461,63,o),
(461,162,cs),
(461,266,o),
(407,306,o),
(286,364,cs),
(188,412,o),
(142,444,o),
(142,520,cs),
(142,587,o),
(187,640,o),
(269,640,cs),
(320,640,o),
(351,622,o),
(396,577,c),
(364,626,l),
(418,478,l),
(436,478,l),
(426,628,l),
(374,654,o),
(329,670,o),
(270,670,cs),
(175,670,o),
(85,582,o),
(85,497,cs),
(85,409,o),
(131,372,o),
(218,328,cs),
(330,272,o),
(402,251,o),
(402,156,cs),
(402,70,o),
(356,21,o),
(267,21,cs),
(215,21,o),
(167,32,o),
(112,81,c),
(147,35,l),
(78,190,l),
(60,190,l),
(70,36,l),
(129,6,o),
(176,-10,o),
(254,-10,cs)
);
}
);
width = 516;
},
{
anchors = (
{
name = bottom;
pos = (272,0);
},
{
name = top;
pos = (272,710);
}
);
layerId = m002;
shapes = (
{
closed = 1;
nodes = (
(356,-10,o),
(476,55,o),
(476,180,cs),
(476,282,o),
(420,319,o),
(299,378,cs),
(211,421,o),
(171,450,o),
(171,518,cs),
(171,577,o),
(213,622,o),
(272,622,cs),
(320,622,o),
(351,606,o),
(402,566,c),
(384,593,l),
(439,468,l),
(455,468,l),
(445,628,l),
(391,655,o),
(342,670,o),
(280,670,cs),
(179,670,o),
(81,577,o),
(81,487,cs),
(81,395,o),
(134,357,o),
(228,310,cs),
(328,260,o),
(390,239,o),
(390,152,cs),
(390,81,o),
(343,37,o),
(264,37,cs),
(215,37,o),
(168,56,o),
(115,102,c),
(142,56,l),
(76,200,l),
(60,200,l),
(70,36,l),
(132,5,o),
(182,-10,o),
(264,-10,cs)
);
}
);
width = 531;
},
{
anchors = (
{
name = bottom;
pos = (297,0);
},
{
name = top;
pos = (318,710);
}
);
layerId = m003;
shapes = (
{
closed = 1;
nodes = (
(425,-10,o),
(555,71,o),
(555,203,cs),
(555,295.82,o),
(499.631,354.161,o),
(378,407,cs),
(275.419,452.256,o),
(244,479.581,o),
(244,527,cs),
(244,581.871,o),
(282,615,o),
(334,615,cs),
(381,615,o),
(414,596,o),
(451,564,c),
(410,611,l),
(516,462,l),
(534,462,l),
(524,622,l),
(471.381,652.207,o),
(398,670,o),
(326,670,cs),
(195,670,o),
(60,576,o),
(60,455,cs),
(60,372.753,o),
(112.219,310.91,o),
(207,272,cs),
(348.478,212.8,o),
(375,191.943,o),
(375,136,cs),
(375,71.91,o),
(323,44,o),
(255,44,cs),
(207,44,o),
(159,66,o),
(132,93,c),
(158,62,l),
(58,217,l),
(39,217,l),
(49,44,l),
(113,11,o),
(184,-10,o),
(276,-10,cs)
);
}
);
width = 599;
}
);
unicode = 83;
},
{
glyphname = T;
kernLeft = kern_T2;
kernRight = kern_T1;
layers = (
{
anchors = (
{
name = bottom;
pos = (332,0);
},
{
name = top;
pos = (332,710);
}
);
layerId = m001;
shapes = (
{
closed = 1;
nodes = (
(462,0,l),
(462,25,l),
(362,42,l),
(362,625,l),
(557,625,l),
(599,478,l),
(619,478,l),
(619,660,l),
(45,660,l),
(45,478,l),
(65,478,l),
(107,625,l),
(302,625,l),
(302,42,l),
(202,25,l),
(202,0,l)
);
}
);
width = 664;
},
{
anchors = (
{
name = bottom;
pos = (337,0);
},
{
name = top;
pos = (337,710);
}
);
layerId = m002;
shapes = (
{
closed = 1;
nodes = (
(482,0,l),
(482,16,l),
(382,56,l),
(382,605,l),
(545,605,l),
(613,458,l),
(629,458,l),
(629,660,l),
(45,660,l),
(45,458,l),
(61,458,l),
(129,605,l),
(292,605,l),
(292,56,l),
(192,16,l),
(192,0,l)
);
}
);
width = 674;
},
{
anchors = (
{
name = bottom;
pos = (359,0);
},
{
name = top;
pos = (359,710);
}
);
layerId = m003;
shapes = (
{
closed = 1;
nodes = (
(564,0,l),
(564,16,l),
(454,58,l),
(454,605,l),
(584,605,l),
(672,429,l),
(688,429,l),
(688,660,l),
(30,660,l),
(30,429,l),
(46,429,l),
(134,605,l),
(264,605,l),
(264,58,l),
(154,16,l),
(154,0,l)
);
}
);
width = 718;
}
);
unicode = 84;
},
{
glyphname = U;
kernLeft = kern_U2;
kernRight = kern_U1;
layers = (
{
anchors = (
{
name = bottom;
pos = (401,0);
},
{
name = right;
pos = (432,0);
},
{
name = top;
pos = (401,710);
}
);
layerId = m001;
shapes = (
{
closed = 1;
nodes = (
(531,-10,o),
(635,63,o),
(635,238,cs),
(635,619,l),
(714,635,l),
(714,660,l),
(496,660,l),
(496,635,l),
(596,620,l),
(596,227,ls),
(596,92,o),
(513,32,o),
(408,32,cs),
(283,32,o),
(205,85,o),
(205,252,cs),
(205,618,l),
(285,635,l),
(285,660,l),
(65,660,l),
(65,635,l),
(145,618,l),
(145,238,ls),
(145,63,o),
(249,-10,o),
(390,-10,cs)
);
}
);
width = 779;
},
{
anchors = (
{
name = bottom;
pos = (402,0);
},
{
name = right;
pos = (431,0);
},
{
name = top;
pos = (415,710);
}
);
layerId = m002;
shapes = (
{
closed = 1;
nodes = (
(554,-10,o),
(665,70,o),
(665,256,cs),
(665,605,l),
(744,644,l),
(744,660,l),
(495,660,l),
(495,644,l),
(595,606,l),
(595,236,ls),
(595,101,o),
(519,48,o),
(431,48,cs),
(321,48,o),
(235,105,o),
(235,271,cs),
(235,604,l),
(315,644,l),
(315,660,l),
(65,660,l),
(65,644,l),
(145,604,l),
(145,256,ls),
(145,70,o),
(256,-10,o),
(405,-10,cs)
);
}
);
width = 809;
},
{
anchors = (
{
name = bottom;
pos = (468,0);
},
{
name = right;
pos = (479,0);
},
{
name = top;
pos = (483,710);
}
);
layerId = m003;
shapes = (
{
closed = 1;
nodes = (
(617.75,-10,o),
(736,66,o),
(736,302,cs),
(736,603,l),
(826,644,l),
(826,660,l),
(576,660,l),
(576,644,l),
(666,604,l),
(666,255,ls),
(666,124,o),
(586,76,o),
(498,76,cs),
(395,76,o),
(310,127,o),
(310,290,cs),
(310,602,l),
(400,644,l),
(400,660,l),
(30,660,l),
(30,644,l),
(120,602,l),
(120,302,ls),
(120,66,o),
(244.773,-10,o),
(435,-10,cs)
);
}
);
width = 856;
}
);
unicode = 85;
},
{
glyphname = V;
kernLeft = kern_V3;
kernRight = kern_V3;
layers = (
{
layerId = m001;
shapes = (
{
closed = 1;
nodes = (
(360,-5,l),
(609,632,l),
(586,620,l),
(658,635,l),
(658,660,l),
(472,660,l),
(472,635,l),
(560,621,l),
(560,618,l),
(360,72,l),
(381,96,l),
(349,96,l),
(371,72,l),
(164,618,l),
(164,621,l),
(248,635,l),
(248,660,l),
(35,660,l),
(35,635,l),
(135,609,l),
(91,632,l),
(339,-5,l)
);
}
);
width = 693;
},
{
layerId = m002;
shapes = (
{
closed = 1;
nodes = (
(391,-5,l),
(656,632,l),
(632,605,l),
(705,644,l),
(705,660,l),
(495,660,l),
(495,644,l),
(577,610,l),
(577,606,l),
(373,99,l),
(411,144,l),
(366,144,l),
(404,99,l),
(199,602,l),
(199,607,l),
(285,644,l),
(285,660,l),
(35,660,l),
(35,644,l),
(144,588,l),
(94,632,l),
(356,-5,l)
);
}
);
width = 740;
},
{
layerId = m003;
shapes = (
{
closed = 1;
nodes = (
(429,-5,l),
(720,632,l),
(680,594,l),
(769,644,l),
(769,660,l),
(552,660,l),
(552,644,l),
(654,594,l),
(645,632,l),
(435,168,l),
(486,229,l),
(431,229,l),
(482,168,l),
(272,632,l),
(260,594,l),
(361,644,l),
(361,660,l),
(9,660,l),
(9,644,l),
(118,581,l),
(68,632,l),
(356,-5,l)
);
}
);
width = 780;
}
);
unicode = 86;
},
{
glyphname = W;
kernLeft = kern_W3;
kernRight = kern_W3;
layers = (
{
anchors = (
{
name = top;
pos = (491,710);
}
);
layerId = m001;
shapes = (
{
closed = 1;
nodes = (
(289,-5,l),
(489,565,l),
(463,528,l),
(494,528,l),
(467,565,l),
(672,-5,l),
(693,-5,l),
(879,632,l),
(849,612,l),
(939,635,l),
(939,660,l),
(745,660,l),
(745,635,l),
(855,614,l),
(838,632,l),
(691,93,l),
(711,113,l),
(680,113,l),
(700,93,l),
(501,665,l),
(480,665,l),
(295,98,l),
(314,114,l),
(283,114,l),
(302,98,l),
(150,632,l),
(101,611,l),
(242,635,l),
(242,660,l),
(15,660,l),
(15,635,l),
(127,611,l),
(83,632,l),
(268,-5,l)
);
}
);
width = 954;
},
{
anchors = (
{
name = top;
pos = (506,710);
}
);
layerId = m002;
shapes = (
{
closed = 1;
nodes = (
(309,-5,l),
(512,543,l),
(471,485,l),
(516,485,l),
(475,543,l),
(678,-5,l),
(713,-5,l),
(906,632,l),
(876,595,l),
(966,644,l),
(966,660,l),
(745,660,l),
(745,644,l),
(854,595,l),
(838,632,l),
(694,129,l),
(726,174,l),
(681,174,l),
(717,129,l),
(524,665,l),
(487,665,l),
(296,122,l),
(333,174,l),
(288,174,l),
(324,122,l),
(177,632,l),
(150,592,l),
(269,644,l),
(269,660,l),
(15,660,l),
(15,644,l),
(124,592,l),
(83,632,l),
(274,-5,l)
);
}
);
width = 981;
},
{
anchors = (
{
name = top;
pos = (606,710);
}
);
layerId = m003;
shapes = (
{
closed = 1;
nodes = (
(358,-5,l),
(575,477,l),
(518,410,l),
(576,410,l),
(523,477,l),
(729,-5,l),
(802,-5,l),
(1011,632,l),
(973,594,l),
(1071,644,l),
(1071,660,l),
(843,660,l),
(843,644,l),
(953,594,l),
(936,632,l),
(790,162,l),
(843,252,l),
(789,252,l),
(848,162,l),
(642,665,l),
(569,665,l),
(359,164,l),
(424,252,l),
(364,252,l),
(416,164,l),
(272,632,l),
(245,589,l),
(364,644,l),
(364,660,l),
(10,660,l),
(10,644,l),
(119,583,l),
(78,632,l),
(285,-5,l)
);
}
);
width = 1081;
}
);
unicode = 87;
},
{
glyphname = X;
kernLeft = kern_X3;
kernRight = kern_X3;
layers = (
{
layerId = m001;
shapes = (
{
closed = 1;
nodes = (
(675,0,l),
(675,25,l),
(566,48,l),
(602,34,l),
(192,614,l),
(192,619,l),
(270,635,l),
(270,660,l),
(50,660,l),
(50,635,l),
(159,609,l),
(102,643,l),
(525,43,l),
(525,39,l),
(450,25,l),
(450,0,l)
);
},
{
closed = 1;
nodes = (
(236,0,l),
(236,25,l),
(157,41,l),
(157,45,l),
(347,313,l),
(335,352,l),
(94,25,l),
(136,48,l),
(35,25,l),
(35,0,l)
);
},
{
closed = 1;
nodes = (
(465,660,l),
(465,635,l),
(538,618,l),
(538,614,l),
(357,361,l),
(372,327,l),
(606,643,l),
(569,616,l),
(650,635,l),
(650,660,l)
);
}
);
width = 710;
},
{
layerId = m002;
shapes = (
{
closed = 1;
nodes = (
(705,0,l),
(705,16,l),
(596,76,l),
(664,16,l),
(220,602,l),
(220,607,l),
(300,644,l),
(300,660,l),
(50,660,l),
(50,644,l),
(159,584,l),
(96,632,l),
(523,56,l),
(523,52,l),
(450,16,l),
(450,0,l)
);
},
{
closed = 1;
nodes = (
(260,0,l),
(260,16,l),
(179,52,l),
(179,56,l),
(374,313,l),
(338,352,l),
(85,24,l),
(136,68,l),
(35,16,l),
(35,0,l)
);
},
{
closed = 1;
nodes = (
(470,660,l),
(470,644,l),
(546,607,l),
(546,603,l),
(366,373,l),
(399,327,l),
(636,632,l),
(599,597,l),
(680,644,l),
(680,660,l)
);
}
);
width = 740;
},
{
layerId = m003;
shapes = (
{
closed = 1;
nodes = (
(786,0,l),
(786,16,l),
(673,81,l),
(739,21,l),
(334,598,l),
(334,603,l),
(412,644,l),
(412,660,l),
(30,660,l),
(30,644,l),
(143,579,l),
(80,632,l),
(471,59,l),
(471,55,l),
(399,16,l),
(399,0,l)
);
},
{
closed = 1;
nodes = (
(270,0,l),
(270,16,l),
(190,57,l),
(193,61,l),
(402,313,l),
(351,352,l),
(87,38,l),
(129,70,l),
(20,16,l),
(20,0,l)
);
},
{
closed = 1;
nodes = (
(514,660,l),
(514,644,l),
(594,602,l),
(594,598,l),
(412,372,l),
(453,327,l),
(713,630,l),
(638,581,l),
(765,644,l),
(765,660,l)
);
}
);
width = 806;
}
);
unicode = 88;
},
{
glyphname = Y;
kernLeft = kern_Y3;
kernRight = kern_Y3;
layers = (
{
anchors = (
{
name = bottom;
pos = (348,0);
},
{
name = top;
pos = (355,710);
}
);
layerId = m001;
shapes = (
{
closed = 1;
nodes = (
(468,0,l),
(468,25,l),
(378,42,l),
(378,324,l),
(370,298,l),
(604,643,l),
(576,621,l),
(653,635,l),
(653,660,l),
(467,660,l),
(467,635,l),
(539,621,l),
(539,617,l),
(356,328,l),
(378,328,l),
(176,617,l),
(176,621,l),
(243,635,l),
(243,660,l),
(35,660,l),
(35,635,l),
(130,611,l),
(83,643,l),
(329,298,l),
(318,324,l),
(318,42,l),
(228,25,l),
(228,0,l)
);
}
);
width = 688;
},
{
anchors = (
{
name = bottom;
pos = (363,0);
},
{
name = top;
pos = (374,710);
}
);
layerId = m002;
shapes = (
{
closed = 1;
nodes = (
(498,0,l),
(498,16,l),
(408,56,l),
(408,332,l),
(378,266,l),
(634,632,l),
(598,600,l),
(683,644,l),
(683,660,l),
(471,660,l),
(471,644,l),
(544,608,l),
(544,604,l),
(372,346,l),
(395,346,l),
(204,605,l),
(204,609,l),
(277,644,l),
(277,660,l),
(35,660,l),
(35,644,l),
(130,592,l),
(80,632,l),
(349,266,l),
(318,332,l),
(318,56,l),
(228,16,l),
(228,0,l)
);
}
);
width = 718;
},
{
anchors = (
{
name = bottom;
pos = (393,0);
},
{
name = top;
pos = (442,710);
}
);
layerId = m003;
shapes = (
{
closed = 1;
nodes = (
(577,0,l),
(577,16,l),
(488,58,l),
(488,354,l),
(457,264,l),
(714,632,l),
(644,584,l),
(768,644,l),
(768,660,l),
(530,660,l),
(530,644,l),
(610,603,l),
(610,599,l),
(442,348,l),
(474,348,l),
(286,601,l),
(286,605,l),
(363,644,l),
(363,660,l),
(10,660,l),
(10,644,l),
(110,586,l),
(60,632,l),
(329,266,l),
(298,354,l),
(298,58,l),
(209,16,l),
(209,0,l)
);
}
);
width = 778;
}
);
unicode = 89;
},
{
glyphname = Z;
kernLeft = kern_Z3;
kernRight = kern_Z3;
layers = (
{
anchors = (
{
name = bottom;
pos = (314,0);
},
{
name = top;
pos = (314,710);
}
);
layerId = m001;
shapes = (
{
closed = 1;
nodes = (
(537,0,l),
(537,182,l),
(517,182,l),
(475,35,l),
(152,35,l),
(152,14,l),
(526,640,l),
(526,660,l),
(102,660,l),
(102,488,l),
(122,488,l),
(164,625,l),
(464,625,l),
(464,648,l),
(90,20,l),
(90,0,l)
);
}
);
width = 627;
},
{
anchors = (
{
name = bottom;
pos = (333,0);
},
{
name = top;
pos = (333,710);
}
);
layerId = m002;
shapes = (
{
closed = 1;
nodes = (
(556,0,l),
(556,192,l),
(540,192,l),
(478,55,l),
(182,55,l),
(182,19,l),
(545,635,l),
(545,660,l),
(102,660,l),
(102,478,l),
(118,478,l),
(180,605,l),
(452,605,l),
(452,641,l),
(90,25,l),
(90,0,l)
);
}
);
width = 646;
},
{
anchors = (
{
name = bottom;
pos = (369,0);
},
{
name = top;
pos = (369,710);
}
);
layerId = m003;
shapes = (
{
closed = 1;
nodes = (
(656,0,l),
(656,229,l),
(640,229,l),
(551,55,l),
(275,55,l),
(275,9,l),
(645,623,l),
(645,660,l),
(92,660,l),
(92,441,l),
(108,441,l),
(190,605,l),
(442,605,l),
(442,639,l),
(80,37,l),
(80,0,l)
);
}
);
width = 736;
}
);
unicode = 90;
},
{
glyphname = Aogonek;
kernLeft = kern_A3;
kernRight = kern_A3;
layers = (
{
layerId = m001;
shapes = (
{
closed = 1;
nodes = (
(552,29,l),
(554,39,l),
(463,25,l),
(463,0,l),
(676,0,l),
(676,25,l),
(576,47,l),
(620,28,l),
(362,665,l),
(341,665,l),
(82,28,l),
(105,42,l),
(33,25,l),
(33,0,l),
(219,0,l),
(219,25,l),
(127,38,l),
(126,28,l),
(341,588,l),
(330,588,l)
);
},
{
closed = 1;
nodes = (
(484,250,l),
(484,285,l),
(196,285,l),
(196,250,l)
);
},
{
closed = 1;
nodes = (
(533,-98,o),
(561,-47,o),
(615,10,c),
(597,10,l),
(535,-44,o),
(496,-98,o),
(496,-159,cs),
(496,-212,o),
(534,-240,o),
(584,-240,cs),
(618,-240,o),
(647,-226,o),
(660,-208,c),
(660,-195,l),
(657,-195,l),
(638,-210,o),
(618,-216,o),
(597,-216,cs),
(557,-216,o),
(533,-196,o),
(533,-149,cs)
);
}
);
width = 709;
},
{
layerId = m002;
shapes = (
{
closed = 1;
nodes = (
(566,28,l),
(578,58,l),
(469,16,l),
(469,0,l),
(717,0,l),
(717,16,l),
(610,73,l),
(660,28,l),
(398,665,l),
(353,665,l),
(88,28,l),
(119,61,l),
(33,16,l),
(33,0,l),
(249,0,l),
(249,16,l),
(152,55,l),
(156,28,l),
(386,599,l),
(335,599,l)
);
},
{
closed = 1;
nodes = (
(524,235,l),
(524,290,l),
(204,290,l),
(204,235,l)
);
},
{
closed = 1;
nodes = (
(571,-87,o),
(588,-41,o),
(631,20,c),
(609,20,l),
(549,-48,o),
(505,-98,o),
(505,-152,cs),
(505,-205,o),
(546,-240,o),
(604,-240,cs),
(643,-240,o),
(671,-223,o),
(689,-195,c),
(689,-183,l),
(686,-183,l),
(668,-193,o),
(651,-195,o),
(636,-195,cs),
(595,-195,o),
(571,-176,o),
(571,-130,cs)
);
}
);
width = 750;
},
{
layerId = m003;
shapes = (
{
closed = 1;
nodes = (
(517,28,l),
(529,63,l),
(420,16,l),
(420,0,l),
(780,0,l),
(780,16,l),
(671,77,l),
(721,28,l),
(449,665,l),
(334,665,l),
(59,28,l),
(129,87,l),
(10,16,l),
(10,0,l),
(227,0,l),
(227,16,l),
(125,62,l),
(134,28,l),
(348,539,l),
(303,539,l)
);
},
{
closed = 1;
nodes = (
(568,207,l),
(568,262,l),
(178,262,l),
(178,207,l)
);
},
{
closed = 1;
nodes = (
(618,-75,o),
(638,-25,o),
(669,27,c),
(640,27,l),
(570,-38,o),
(527,-94,o),
(527,-148,cs),
(527,-204,o),
(566,-240,o),
(628,-240,cs),
(671,-240,o),
(705,-221,o),
(721,-188,c),
(721,-165,l),
(717,-165,l),
(706,-177,o),
(687,-183,o),
(671,-183,cs),
(635,-183,o),
(618,-162,o),
(618,-125,cs)
);
}
);
width = 790;
}
);
unicode = 260;
},
{
glyphname = AE;
kernLeft = kern_AE2;
kernRight = kern_E1;
layers = (
{
anchors = (
{
name = top;
pos = (486,710);
}
);
layerId = m001;
shapes = (
{
closed = 1;
nodes = (
(82,28,l),
(105,42,l),
(33,25,l),
(33,0,l),
(219,0,l),
(219,25,l),
(127,38,l),
(126,28,l),
(469,640,l),
(451,640,l),
(451,42,l),
(373,25,l),
(373,0,l),
(511,0,l),
(511,660,l),
(442,660,l)
);
},
{
closed = 1;
nodes = (
(484,250,l),
(484,285,l),
(238,285,l),
(238,250,l)
);
},
{
closed = 1;
nodes = (
(480,660,l),
(480,625,l),
(759,625,l),
(801,498,l),
(821,498,l),
(821,660,l)
);
},
{
closed = 1;
nodes = (
(693,323,l),
(718,242,l),
(738,242,l),
(738,441,l),
(718,441,l),
(693,358,l),
(480,358,l),
(480,323,l)
);
},
{
closed = 1;
nodes = (
(849,172,l),
(829,172,l),
(787,35,l),
(480,35,l),
(480,0,l),
(849,0,l)
);
}
);
width = 919;
},
{
anchors = (
{
name = top;
pos = (535,710);
}
);
layerId = m002;
shapes = (
{
closed = 1;
nodes = (
(79,28,l),
(141,75,l),
(28,16,l),
(28,0,l),
(243,0,l),
(243,16,l),
(142,59,l),
(150,28,l),
(490,603,l),
(475,603,l),
(475,56,l),
(395,16,l),
(395,0,l),
(565,0,l),
(565,660,l),
(464,660,l)
);
},
{
closed = 1;
nodes = (
(508,235,l),
(508,290,l),
(258,290,l),
(258,235,l)
);
},
{
closed = 1;
nodes = (
(512,660,l),
(512,605,l),
(806,605,l),
(868,488,l),
(884,488,l),
(884,660,l)
);
},
{
closed = 1;
nodes = (
(735,313,l),
(785,232,l),
(801,232,l),
(801,451,l),
(785,451,l),
(735,368,l),
(520,368,l),
(520,313,l)
);
},
{
closed = 1;
nodes = (
(912,182,l),
(896,182,l),
(834,55,l),
(540,55,l),
(540,0,l),
(912,0,l)
);
}
);
width = 982;
},
{
anchors = (
{
name = top;
pos = (580,710);
}
);
layerId = m003;
shapes = (
{
closed = 1;
nodes = (
(59,28,l),
(129,83,l),
(10,16,l),
(10,0,l),
(227,0,l),
(227,16,l),
(125,62,l),
(134,28,l),
(500,599,l),
(478,599,l),
(478,58,l),
(389,16,l),
(389,0,l),
(668,0,l),
(668,660,l),
(464,660,l)
);
},
{
closed = 1;
nodes = (
(543,227,l),
(543,282,l),
(223,282,l),
(223,227,l)
);
},
{
closed = 1;
nodes = (
(566,660,l),
(566,605,l),
(873,605,l),
(955,486,l),
(971,486,l),
(971,660,l)
);
},
{
closed = 1;
nodes = (
(812,313,l),
(872,227,l),
(888,227,l),
(888,456,l),
(872,456,l),
(812,368,l),
(574,368,l),
(574,313,l)
);
},
{
closed = 1;
nodes = (
(999,219,l),
(983,219,l),
(894,55,l),
(594,55,l),
(594,0,l),
(999,0,l)
);
}
);
width = 1059;
}
);
unicode = 198;
},
{
glyphname = Ccedilla;
kernLeft = kern_O2;
kernRight = kern_C1;
layers = (
{
layerId = m001;
shapes = (
{
closed = 1;
nodes = (
(501,-10,o),
(555,10,o),
(613,39,c),
(622,188,l),
(602,188,l),
(548,62,l),
(573,78,l),
(528,47,o),
(482,22,o),
(407,22,cs),
(247,22,o),
(125,155,o),
(125,352,cs),
(125,509,o),
(239,639,o),
(402,639,cs),
(465,639,o),
(512,613,o),
(576,562,c),
(542,608,l),
(591,466,l),
(612,466,l),
(607,621,l),
(553,647,o),
(504,670,o),
(410,670,cs),
(224,670,o),
(70,515,o),
(70,312,cs),
(70,129,o),
(206,-10,o),
(393,-10,cs)
);
},
{
closed = 1;
nodes = (
(367,-221,o),
(346,-216,o),
(326,-205,c),
(323,-205,l),
(323,-218,l),
(337,-230,o),
(364,-240,o),
(391,-240,cs),
(447,-240,o),
(481,-208,o),
(481,-161,cs),
(481,-105,o),
(421,-78,o),
(355,-61,c),
(363,-71,l),
(413,10,l),
(392,10,l),
(331,-88,l),
(405,-108,o),
(450,-128,o),
(450,-171,cs),
(450,-203,o),
(430,-221,o),
(388,-221,cs)
);
}
);
width = 714;
},
{
layerId = m002;
shapes = (
{
closed = 1;
nodes = (
(510,-10,o),
(564,10,o),
(623,39,c),
(634,198,l),
(617,198,l),
(540,62,l),
(578,106,l),
(535,76,o),
(486,41,o),
(398,41,cs),
(268,41,o),
(163,152,o),
(163,342,cs),
(163,504,o),
(269,620,o),
(413,620,cs),
(467,620,o),
(502,600,o),
(565,554,c),
(529,599,l),
(605,447,l),
(623,447,l),
(618,622,l),
(563,649,o),
(515,670,o),
(415,670,cs),
(228,670,o),
(70,501,o),
(70,312,cs),
(70,126,o),
(195,-10,o),
(400,-10,cs)
);
},
{
closed = 1;
nodes = (
(356,-210,o),
(338,-206,o),
(320,-198,c),
(317,-198,l),
(317,-210,l),
(335,-231,o),
(363,-240,o),
(400,-240,c),
(463,-240,o),
(497,-203,o),
(497,-155,cs),
(497,-98,o),
(465,-75,o),
(374,-49,c),
(387,-69,l),
(428,20,l),
(393,20,l),
(336,-103,l),
(415,-128,o),
(437,-142,o),
(437,-171,cs),
(437,-192,o),
(423,-210,o),
(383,-210,cs)
);
}
);
width = 726;
},
{
layerId = m003;
shapes = (
{
closed = 1;
nodes = (
(486,-10,o),
(578,10,o),
(629,44,c),
(646,219,l),
(628,219,l),
(505,51,l),
(541,82,l),
(500,54,o),
(462,45,o),
(420,45,cs),
(312,45,o),
(234,150,o),
(234,316,cs),
(234,503,o),
(317,620,o),
(424,620,cs),
(470,620,o),
(492,612,o),
(524,591,c),
(495,615,l),
(621,428,l),
(639,428,l),
(624,622,l),
(566,650,o),
(523,670,o),
(415,670,cs),
(222,670,o),
(35,524,o),
(35,319,cs),
(35,133,o),
(185,-10,o),
(398,-10,cs)
);
},
{
closed = 1;
nodes = (
(354,-208,o),
(332,-205,o),
(317,-197,c),
(313,-197,l),
(313,-220,l),
(334,-233,o),
(359,-240,o),
(393,-240,cs),
(458,-240,o),
(503,-200,o),
(503,-143,cs),
(503,-85,o),
(471,-51,o),
(371,-27,c),
(388,-61,l),
(428,27,l),
(388,27,l),
(329,-103,l),
(408,-122,o),
(426,-142,o),
(426,-170,cs),
(426,-196,o),
(404,-208,o),
(370,-208,cs)
);
}
);
width = 701;
}
);
unicode = 199;
},
{
glyphname = Ccedillaacute;
kernLeft = kern_O2;
kernRight = kern_C1;
layers = (
{
layerId = m001;
shapes = (
{
closed = 1;
nodes = (
(501,-10,o),
(555,10,o),
(613,39,c),
(622,188,l),
(602,188,l),
(539,41,l),
(573,78,l),
(528,47,o),
(482,22,o),
(407,22,cs),
(247,22,o),
(125,155,o),
(125,352,cs),
(125,509,o),
(239,639,o),
(402,639,cs),
(465,639,o),
(512,613,o),
(576,562,c),
(542,608,l),
(591,466,l),
(612,466,l),
(607,621,l),
(553,647,o),
(504,670,o),
(410,670,cs),
(224,670,o),
(70,515,o),
(70,312,cs),
(70,129,o),
(206,-10,o),
(393,-10,cs)
);
},
{
closed = 1;
nodes = (
(411,710,l),
(505,799,ls),
(532,824,o),
(538,842,o),
(538,862,c),
(491,862,l),
(397,710,l)
);
},
{
closed = 1;
nodes = (
(447,-240,o),
(481,-208,o),
(481,-161,cs),
(481,-105,o),
(421,-78,o),
(355,-61,c),
(363,-71,l),
(413,10,l),
(392,10,l),
(331,-88,l),
(405,-108,o),
(450,-128,o),
(450,-171,cs),
(450,-203,o),
(430,-221,o),
(388,-221,cs),
(367,-221,o),
(346,-216,o),
(326,-205,c),
(323,-205,l),
(323,-218,l),
(337,-230,o),
(364,-240,o),
(391,-240,cs)
);
}
);
width = 714;
},
{
layerId = m002;
shapes = (
{
closed = 1;
nodes = (
(510,-10,o),
(564,10,o),
(623,39,c),
(634,198,l),
(617,198,l),
(540,62,l),
(578,106,l),
(535,76,o),
(486,41,o),
(398,41,cs),
(268,41,o),
(163,152,o),
(163,342,cs),
(163,504,o),
(269,620,o),
(413,620,cs),
(467,620,o),
(502,600,o),
(565,554,c),
(529,599,l),
(605,447,l),
(623,447,l),
(618,622,l),
(563,649,o),
(515,670,o),
(415,670,cs),
(228,670,o),
(70,501,o),
(70,312,cs),
(70,126,o),
(195,-10,o),
(400,-10,cs)
);
},
{
closed = 1;
nodes = (
(395,710,l),
(520,799,ls),
(549,820,o),
(553,842,o),
(553,862,c),
(471,862,l),
(384,710,l)
);
},
{
closed = 1;
nodes = (
(463,-240,o),
(497,-203,o),
(497,-155,cs),
(497,-98,o),
(465,-75,o),
(374,-49,c),
(387,-69,l),
(428,20,l),
(393,20,l),
(336,-103,l),
(415,-128,o),
(437,-142,o),
(437,-171,cs),
(437,-192,o),
(423,-210,o),
(383,-210,cs),
(356,-210,o),
(338,-206,o),
(320,-198,c),
(317,-198,l),
(317,-210,l),
(335,-231,o),
(363,-240,o),
(400,-240,cs)
);
}
);
width = 726;
},
{
layerId = m003;
shapes = (
{
closed = 1;
nodes = (
(486,-10,o),
(578,10,o),
(629,44,c),
(646,219,l),
(628,219,l),
(505,51,l),
(541,82,l),
(500,54,o),
(462,45,o),
(420,45,cs),
(312,45,o),
(234,150,o),
(234,316,cs),
(234,503,o),
(317,620,o),
(424,620,cs),
(470,620,o),
(492,612,o),
(524,591,c),
(495,615,l),
(621,428,l),
(639,428,l),
(624,622,l),
(566,650,o),
(523,670,o),
(415,670,cs),
(222,670,o),
(35,524,o),
(35,319,cs),
(35,133,o),
(185,-10,o),
(398,-10,cs)
);
},
{
closed = 1;
nodes = (
(407,710,l),
(542,789,ls),
(576,809,o),
(586,834,o),
(586,862,c),
(458,862,l),
(378,710,l)
);
},
{
closed = 1;
nodes = (
(458,-240,o),
(503,-200,o),
(503,-143,cs),
(503,-85,o),
(471,-51,o),
(371,-27,c),
(388,-61,l),
(428,27,l),
(388,27,l),
(329,-103,l),
(408,-122,o),
(426,-142,o),
(426,-170,cs),
(426,-196,o),
(404,-208,o),
(370,-208,cs),
(354,-208,o),
(332,-205,o),
(317,-197,c),
(313,-197,l),
(313,-220,l),
(334,-233,o),
(359,-240,o),
(393,-240,cs)
);
}
);
width = 701;
}
);
unicode = 7688;
},
{
glyphname = Dcroat;
kernLeft = kern_H2;
kernRight = kern_O1;
layers = (
{
layerId = m001;
shapes = (
{
closed = 1;
nodes = (
(205,0,l),
(205,660,l),
(65,660,l),
(65,635,l),
(145,618,l),
(145,42,l),
(65,25,l),
(65,0,l)
);
},
{
closed = 1;
nodes = (
(508,0,o),
(645,138,o),
(645,360,cs),
(645,532,o),
(519,660,o),
(298,660,cs),
(152,660,l),
(152,625,l),
(305,625,ls),
(481,625,o),
(580,508,o),
(580,329,cs),
(580,156,o),
(473,35,o),
(310,35,cs),
(180,35,l),
(180,0,l),
(291,0,ls)
);
},
{
closed = 1;
nodes = (
(372,324,l),
(372,359,l),
(65,359,l),
(65,324,l)
);
}
);
width = 715;
},
{
layerId = m002;
shapes = (
{
closed = 1;
nodes = (
(235,0,l),
(235,660,l),
(65,660,l),
(65,644,l),
(145,604,l),
(145,56,l),
(65,16,l),
(65,0,l)
);
},
{
closed = 1;
nodes = (
(554,0,o),
(705,152,o),
(705,360,cs),
(705,532,o),
(579,660,o),
(358,660,cs),
(182,660,l),
(182,605,l),
(335,605,ls),
(511,605,o),
(610,496,o),
(610,329,cs),
(610,162,o),
(511,55,o),
(350,55,cs),
(210,55,l),
(210,0,l),
(351,0,ls)
);
},
{
closed = 1;
nodes = (
(410,317,l),
(410,367,l),
(65,367,l),
(65,317,l)
);
}
);
width = 775;
},
{
layerId = m003;
shapes = (
{
closed = 1;
nodes = (
(309,0,l),
(309,660,l),
(30,660,l),
(30,644,l),
(119,602,l),
(119,58,l),
(30,16,l),
(30,0,l)
);
},
{
closed = 1;
nodes = (
(624,0,o),
(790,152,o),
(790,360,cs),
(790,532,o),
(649,660,o),
(402,660,cs),
(256,660,l),
(256,605,l),
(349,605,ls),
(514,605,o),
(594,498,o),
(594,329,cs),
(594,162,o),
(514,55,o),
(364,55,cs),
(284,55,l),
(284,0,l),
(395,0,ls)
);
},
{
closed = 1;
nodes = (
(445,315,l),
(445,370,l),
(30,370,l),
(30,315,l)
);
}
);
width = 820;
}
);
unicode = 272;
},
{
glyphname = Eogonek;
kernLeft = kern_H2;
kernRight = kern_E1;
layers = (
{
layerId = m001;
shapes = (
{
closed = 1;
nodes = (
(203,0,l),
(203,660,l),
(65,660,l),
(65,635,l),
(143,618,l),
(143,42,l),
(65,25,l),
(65,0,l)
);
},
{
closed = 1;
nodes = (
(172,660,l),
(172,625,l),
(451,625,l),
(493,498,l),
(513,498,l),
(513,660,l)
);
},
{
closed = 1;
nodes = (
(385,323,l),
(410,242,l),
(430,242,l),
(430,441,l),
(410,441,l),
(385,358,l),
(172,358,l),
(172,323,l)
);
},
{
closed = 1;
nodes = (
(541,172,l),
(521,172,l),
(479,35,l),
(172,35,l),
(172,0,l),
(541,0,l)
);
},
{
closed = 1;
nodes = (
(413,-98,o),
(441,-47,o),
(495,10,c),
(477,10,l),
(415,-44,o),
(376,-98,o),
(376,-159,cs),
(376,-212,o),
(414,-240,o),
(464,-240,cs),
(498,-240,o),
(527,-226,o),
(540,-208,c),
(540,-195,l),
(537,-195,l),
(518,-210,o),
(498,-216,o),
(477,-216,cs),
(437,-216,o),
(413,-196,o),
(413,-149,cs)
);
}
);
width = 611;
},
{
layerId = m002;
shapes = (
{
closed = 1;
nodes = (
(235,0,l),
(235,660,l),
(65,660,l),
(65,644,l),
(145,604,l),
(145,56,l),
(65,16,l),
(65,0,l)
);
},
{
closed = 1;
nodes = (
(182,660,l),
(182,605,l),
(476,605,l),
(538,488,l),
(554,488,l),
(554,660,l)
);
},
{
closed = 1;
nodes = (
(405,313,l),
(455,232,l),
(471,232,l),
(471,451,l),
(455,451,l),
(405,368,l),
(190,368,l),
(190,313,l)
);
},
{
closed = 1;
nodes = (
(582,182,l),
(566,182,l),
(504,55,l),
(210,55,l),
(210,0,l),
(582,0,l)
);
},
{
closed = 1;
nodes = (
(462,-87,o),
(479,-41,o),
(522,20,c),
(500,20,l),
(440,-48,o),
(396,-98,o),
(396,-152,cs),
(396,-205,o),
(437,-240,o),
(495,-240,cs),
(534,-240,o),
(562,-223,o),
(580,-195,c),
(580,-183,l),
(577,-183,l),
(559,-193,o),
(542,-195,o),
(527,-195,cs),
(486,-195,o),
(462,-176,o),
(462,-130,cs)
);
}
);
width = 652;
},
{
layerId = m003;
shapes = (
{
closed = 1;
nodes = (
(309,0,l),
(309,660,l),
(30,660,l),
(30,644,l),
(119,602,l),
(119,58,l),
(30,16,l),
(30,0,l)
);
},
{
closed = 1;
nodes = (
(207,660,l),
(207,605,l),
(514,605,l),
(596,486,l),
(612,486,l),
(612,660,l)
);
},
{
closed = 1;
nodes = (
(453,313,l),
(513,227,l),
(529,227,l),
(529,456,l),
(513,456,l),
(453,368,l),
(215,368,l),
(215,313,l)
);
},
{
closed = 1;
nodes = (
(640,219,l),
(624,219,l),
(535,55,l),
(235,55,l),
(235,0,l),
(640,0,l)
);
},
{
closed = 1;
nodes = (
(537,-75,o),
(557,-25,o),
(588,27,c),
(559,27,l),
(489,-38,o),
(446,-94,o),
(446,-148,cs),
(446,-204,o),
(485,-240,o),
(547,-240,cs),
(590,-240,o),
(624,-221,o),
(640,-188,c),
(640,-165,l),
(636,-165,l),
(625,-177,o),
(606,-183,o),
(590,-183,cs),
(554,-183,o),
(537,-162,o),
(537,-125,cs)
);
}
);
width = 700;
}
);
unicode = 280;
},
{
glyphname = Ecedillabreve;
kernLeft = kern_H2;
kernRight = kern_E1;
layers = (
{
layerId = m001;
shapes = (
{
closed = 1;
nodes = (
(203,0,l),
(203,660,l),
(65,660,l),
(65,635,l),
(143,618,l),
(143,42,l),
(65,25,l),
(65,0,l)
);
},
{
closed = 1;
nodes = (
(513,498,l),
(513,660,l),
(172,660,l),
(172,625,l),
(451,625,l),
(493,498,l)
);
},
{
closed = 1;
nodes = (
(430,242,l),
(430,441,l),
(410,441,l),
(385,358,l),
(172,358,l),
(172,323,l),
(385,323,l),
(410,242,l)
);
},
{
closed = 1;
nodes = (
(541,172,l),
(521,172,l),
(479,35,l),
(172,35,l),
(172,0,l),
(541,0,l)
);
},
{
closed = 1;
nodes = (
(381,-240,o),
(415,-208,o),
(415,-161,cs),
(415,-105,o),
(355,-78,o),
(289,-61,c),
(297,-71,l),
(347,10,l),
(326,10,l),
(265,-88,l),
(339,-108,o),
(384,-128,o),
(384,-171,cs),
(384,-203,o),
(364,-221,o),
(322,-221,cs),
(301,-221,o),
(280,-216,o),
(260,-205,c),
(257,-205,l),
(257,-218,l),
(271,-230,o),
(298,-240,o),
(325,-240,cs)
);
},
{
closed = 1;
nodes = (
(407,710,o),
(438,760,o),
(464,862,c),
(451,862,l),
(420,771,o),
(380,753,o),
(328,753,cs),
(276,753,o),
(236,771,o),
(205,862,c),
(192,862,l),
(218,760,o),
(249,710,o),
(328,710,cs)
);
}
);
width = 611;
},
{
layerId = m002;
shapes = (
{
closed = 1;
nodes = (
(235,0,l),
(235,660,l),
(65,660,l),
(65,644,l),
(145,604,l),
(145,56,l),
(65,16,l),
(65,0,l)
);
},
{
closed = 1;
nodes = (
(554,488,l),
(554,660,l),
(182,660,l),
(182,605,l),
(476,605,l),
(538,488,l)
);
},
{
closed = 1;
nodes = (
(471,232,l),
(471,451,l),
(455,451,l),
(405,368,l),
(190,368,l),
(190,313,l),
(405,313,l),
(455,232,l)
);
},
{
closed = 1;
nodes = (
(582,182,l),
(566,182,l),
(504,55,l),
(210,55,l),
(210,0,l),
(582,0,l)
);
},
{
closed = 1;
nodes = (
(413,-240,o),
(447,-203,o),
(447,-155,cs),
(447,-98,o),
(415,-75,o),
(324,-49,c),
(337,-69,l),
(378,20,l),
(343,20,l),
(286,-103,l),
(365,-128,o),
(387,-142,o),
(387,-171,cs),
(387,-192,o),
(373,-210,o),
(333,-210,cs),
(306,-210,o),
(288,-206,o),
(270,-198,c),
(267,-198,l),
(267,-210,l),
(285,-231,o),
(313,-240,o),
(350,-240,cs)
);
},
{
closed = 1;
nodes = (
(421,710,o),
(457,769,o),
(481,862,c),
(470,862,l),
(432,791,o),
(404,777,o),
(335,777,cs),
(266,777,o),
(237,791,o),
(200,862,c),
(189,862,l),
(212,769,o),
(249,710,o),
(335,710,cs)
);
}
);
width = 652;
},
{
layerId = m003;
shapes = (
{
closed = 1;
nodes = (
(309,0,l),
(309,660,l),
(30,660,l),
(30,644,l),
(119,602,l),
(119,58,l),
(30,16,l),
(30,0,l)
);
},
{
closed = 1;
nodes = (
(612,486,l),
(612,660,l),
(207,660,l),
(207,605,l),
(514,605,l),
(596,486,l)
);
},
{
closed = 1;
nodes = (
(529,227,l),
(529,456,l),
(513,456,l),
(453,368,l),
(215,368,l),
(215,313,l),
(453,313,l),
(513,227,l)
);
},
{
closed = 1;
nodes = (
(640,219,l),
(624,219,l),
(535,55,l),
(235,55,l),
(235,0,l),
(640,0,l)
);
},
{
closed = 1;
nodes = (
(428,-240,o),
(473,-200,o),
(473,-143,cs),
(473,-85,o),
(441,-51,o),
(341,-27,c),
(358,-61,l),
(398,27,l),
(358,27,l),
(299,-103,l),
(378,-122,o),
(396,-142,o),
(396,-170,cs),
(396,-196,o),
(374,-208,o),
(340,-208,cs),
(324,-208,o),
(302,-205,o),
(287,-197,c),
(283,-197,l),
(283,-220,l),
(304,-233,o),
(329,-240,o),
(363,-240,cs)
);
},
{
closed = 1;
nodes = (
(455,710,o),
(510,759,o),
(534,862,c),
(506,862,l),
(478,803,o),
(427,795,o),
(366,795,cs),
(305,795,o),
(253,804,o),
(226,862,c),
(198,862,l),
(221,759,o),
(263,710,o),
(366,710,cs)
);
}
);
width = 700;
}
);
unicode = 7708;
},
{
glyphname = Hbar;
kernLeft = kern_H2;
kernRight = kern_H1;
layers = (
{
layerId = m001;
shapes = (
{
closed = 1;
nodes = (
(289,0,l),
(289,25,l),
(203,42,l),
(203,618,l),
(289,635,l),
(289,660,l),
(65,660,l),
(65,635,l),
(143,618,l),
(143,42,l),
(65,25,l),
(65,0,l)
);
},
{
closed = 1;
nodes = (
(610,323,l),
(610,358,l),
(180,358,l),
(180,323,l)
);
},
{
closed = 1;
nodes = (
(719,0,l),
(719,25,l),
(641,42,l),
(641,618,l),
(719,635,l),
(719,660,l),
(495,660,l),
(495,635,l),
(581,618,l),
(581,42,l),
(495,25,l),
(495,0,l)
);
},
{
closed = 1;
nodes = (
(719,477,l),
(719,512,l),
(65,512,l),
(65,477,l)
);
}
);
width = 784;
},
{
layerId = m002;
shapes = (
{
closed = 1;
nodes = (
(315,0,l),
(315,16,l),
(235,56,l),
(235,604,l),
(315,644,l),
(315,660,l),
(65,660,l),
(65,644,l),
(145,604,l),
(145,56,l),
(65,16,l),
(65,0,l)
);
},
{
closed = 1;
nodes = (
(620,313,l),
(620,368,l),
(190,368,l),
(190,313,l)
);
},
{
closed = 1;
nodes = (
(745,0,l),
(745,16,l),
(665,56,l),
(665,604,l),
(745,644,l),
(745,660,l),
(495,660,l),
(495,644,l),
(575,604,l),
(575,56,l),
(495,16,l),
(495,0,l)
);
},
{
closed = 1;
nodes = (
(745,470,l),
(745,520,l),
(65,520,l),
(65,470,l)
);
}
);
width = 810;
},
{
layerId = m003;
shapes = (
{
closed = 1;
nodes = (
(386,0,l),
(386,16,l),
(309,58,l),
(309,602,l),
(386,644,l),
(386,660,l),
(30,660,l),
(30,644,l),
(119,602,l),
(119,58,l),
(30,16,l),
(30,0,l)
);
},
{
closed = 1;
nodes = (
(645,312,l),
(645,367,l),
(215,367,l),
(215,312,l)
);
},
{
closed = 1;
nodes = (
(822,0,l),
(822,16,l),
(735,58,l),
(735,602,l),
(822,644,l),
(822,660,l),
(466,660,l),
(466,644,l),
(545,602,l),
(545,58,l),
(466,16,l),
(466,0,l)
);
},
{
closed = 1;
nodes = (
(822,469,l),
(822,524,l),
(30,524,l),
(30,469,l)
);
}
);
width = 852;
}
);
unicode = 294;
},
{
glyphname = Iogonek;
kernLeft = kern_H2;
kernRight = kern_H1;
layers = (
{
layerId = m001;
shapes = (
{
closed = 1;
nodes = (
(286,0,l),
(286,25,l),
(208,42,l),
(208,618,l),
(286,635,l),
(286,660,l),
(70,660,l),
(70,635,l),
(148,618,l),
(148,42,l),
(70,25,l),
(70,0,l)
);
},
{
closed = 1;
nodes = (
(200,-240,o),
(229,-226,o),
(242,-208,c),
(242,-195,l),
(239,-195,l),
(220,-210,o),
(200,-216,o),
(179,-216,cs),
(139,-216,o),
(115,-196,o),
(115,-149,cs),
(115,-98,o),
(143,-47,o),
(197,10,c),
(179,10,l),
(117,-44,o),
(78,-98,o),
(78,-159,cs),
(78,-212,o),
(116,-240,o),
(166,-240,cs)
);
}
);
width = 356;
},
{
layerId = m002;
shapes = (
{
closed = 1;
nodes = (
(320,0,l),
(320,16,l),
(240,56,l),
(240,604,l),
(320,644,l),
(320,660,l),
(70,660,l),
(70,644,l),
(150,604,l),
(150,56,l),
(70,16,l),
(70,0,l)
);
},
{
closed = 1;
nodes = (
(241,-240,o),
(269,-223,o),
(287,-195,c),
(287,-183,l),
(284,-183,l),
(266,-193,o),
(249,-195,o),
(234,-195,cs),
(193,-195,o),
(169,-176,o),
(169,-130,cs),
(169,-87,o),
(186,-41,o),
(229,20,c),
(207,20,l),
(147,-48,o),
(103,-98,o),
(103,-152,cs),
(103,-205,o),
(144,-240,o),
(202,-240,cs)
);
}
);
width = 390;
},
{
layerId = m003;
shapes = (
{
closed = 1;
nodes = (
(398,0,l),
(398,16,l),
(309,58,l),
(309,602,l),
(398,644,l),
(398,660,l),
(30,660,l),
(30,644,l),
(119,602,l),
(119,58,l),
(30,16,l),
(30,0,l)
);
},
{
closed = 1;
nodes = (
(262,-240,o),
(296,-221,o),
(312,-188,c),
(312,-165,l),
(308,-165,l),
(297,-177,o),
(278,-183,o),
(262,-183,cs),
(226,-183,o),
(209,-162,o),
(209,-125,cs),
(209,-75,o),
(229,-25,o),
(260,27,c),
(231,27,l),
(161,-38,o),
(118,-94,o),
(118,-148,cs),
(118,-204,o),
(157,-240,o),
(219,-240,cs)
);
}
);
width = 428;
}
);
unicode = 302;
},
{
glyphname = Lslash;
kernLeft = kern_H2;
kernRight = kern_L1;
layers = (
{
layerId = m001;
shapes = (
{
closed = 1;
nodes = (
(541,0,l),
(541,212,l),
(521,212,l),
(474,35,l),
(203,35,l),
(203,618,l),
(293,635,l),
(293,660,l),
(65,660,l),
(65,635,l),
(143,618,l),
(143,42,l),
(65,25,l),
(65,0,l)
);
},
{
closed = 1;
nodes = (
(154,288,l),
(182,299,l),
(354,416,l),
(354,460,l),
(181,343,l),
(155,333,l),
(65,271,l),
(65,227,l)
);
}
);
width = 611;
},
{
layerId = m002;
shapes = (
{
closed = 1;
nodes = (
(562,0,l),
(562,222,l),
(546,222,l),
(478,55,l),
(235,55,l),
(235,604,l),
(325,644,l),
(325,660,l),
(65,660,l),
(65,644,l),
(145,604,l),
(145,56,l),
(65,16,l),
(65,0,l)
);
},
{
closed = 1;
nodes = (
(163,263,l),
(222,292,l),
(383,401,l),
(383,460,l),
(222,351,l),
(163,322,l),
(66,255,l),
(66,196,l)
);
}
);
width = 632;
},
{
layerId = m003;
shapes = (
{
closed = 1;
nodes = (
(620,0,l),
(620,259,l),
(604,259,l),
(514,55,l),
(309,55,l),
(309,602,l),
(408,644,l),
(408,660,l),
(30,660,l),
(30,644,l),
(119,602,l),
(119,58,l),
(30,16,l),
(30,0,l)
);
},
{
closed = 1;
nodes = (
(177,239,l),
(261,273,l),
(447,401,l),
(447,470,l),
(257,340,l),
(175,307,l),
(30,203,l),
(30,134,l)
);
}
);
width = 660;
}
);
unicode = 321;
},
{
glyphname = Oogonek;
kernLeft = kern_O2;
kernRight = kern_O1;
layers = (
{
layerId = m001;
shapes = (
{
closed = 1;
nodes = (
(564,-10,o),
(697,134,o),
(697,330,cs),
(697,526,o),
(564,670,o),
(383,670,cs),
(203,670,o),
(70,526,o),
(70,330,cs),
(70,134,o),
(203,-10,o),
(383,-10,cs)
);
},
{
closed = 1;
nodes = (
(252,20,o),
(132,156,o),
(132,363,cs),
(132,533,o),
(229,641,o),
(366,641,cs),
(516,641,o),
(635,506,o),
(635,299,cs),
(635,129,o),
(541,20,o),
(404,20,cs)
);
},
{
closed = 1;
nodes = (
(438,-240,o),
(467,-226,o),
(480,-208,c),
(480,-195,l),
(477,-195,l),
(458,-210,o),
(438,-216,o),
(417,-216,cs),
(377,-216,o),
(353,-196,o),
(353,-149,cs),
(353,-98,o),
(381,-47,o),
(435,10,c),
(417,10,l),
(355,-44,o),
(316,-98,o),
(316,-159,cs),
(316,-212,o),
(354,-240,o),
(404,-240,cs)
);
}
);
width = 767;
},
{
layerId = m002;
shapes = (
{
closed = 1;
nodes = (
(595,-10,o),
(737,134,o),
(737,330,cs),
(737,526,o),
(595,670,o),
(403,670,cs),
(212,670,o),
(70,526,o),
(70,330,cs),
(70,134,o),
(212,-10,o),
(403,-10,cs)
);
},
{
closed = 1;
nodes = (
(281,40,o),
(167,168,o),
(167,363,cs),
(167,521,o),
(258,621,o),
(386,621,cs),
(528,621,o),
(640,494,o),
(640,299,cs),
(640,141,o),
(552,40,o),
(424,40,cs)
);
},
{
closed = 1;
nodes = (
(460,-240,o),
(488,-223,o),
(506,-195,c),
(506,-183,l),
(503,-183,l),
(485,-193,o),
(468,-195,o),
(453,-195,cs),
(412,-195,o),
(388,-176,o),
(388,-130,cs),
(388,-87,o),
(405,-41,o),
(448,20,c),
(426,20,l),
(366,-48,o),
(322,-98,o),
(322,-152,cs),
(322,-205,o),
(363,-240,o),
(421,-240,cs)
);
}
);
width = 807;
},
{
layerId = m003;
shapes = (
{
closed = 1;
nodes = (
(591,-10,o),
(742,134,o),
(742,330,cs),
(742,526,o),
(591,670,o),
(388,670,cs),
(186,670,o),
(35,526,o),
(35,330,cs),
(35,134,o),
(186,-10,o),
(388,-10,cs)
);
},
{
closed = 1;
nodes = (
(309,43,o),
(235,169,o),
(235,361,cs),
(235,518,o),
(296,618,o),
(377,618,cs),
(470,618,o),
(542,493,o),
(542,301,cs),
(542,144,o),
(485,43,o),
(401,43,cs)
);
},
{
closed = 1;
nodes = (
(444,-240,o),
(478,-221,o),
(494,-188,c),
(494,-165,l),
(490,-165,l),
(479,-177,o),
(460,-183,o),
(444,-183,cs),
(408,-183,o),
(391,-162,o),
(391,-125,cs),
(391,-75,o),
(411,-25,o),
(442,27,c),
(413,27,l),
(343,-38,o),
(300,-94,o),
(300,-148,cs),
(300,-204,o),
(339,-240,o),
(401,-240,cs)
);
}
);
width = 777;
}
);
unicode = 490;
},
{
glyphname = Oslash;
kernLeft = kern_O2;
kernRight = kern_O1;
layers = (
{
anchors = (
{
name = top;
pos = (384,710);
}
);
layerId = m001;
shapes = (
{
closed = 1;
nodes = (
(564,-10,o),
(697,134,o),
(697,330,cs),
(697,526,o),
(564,670,o),
(383,670,cs),
(203,670,o),
(70,526,o),
(70,330,cs),
(70,134,o),
(203,-10,o),
(383,-10,cs)
);
},
{
closed = 1;
nodes = (
(252,20,o),
(132,156,o),
(132,363,cs),
(132,533,o),
(229,641,o),
(366,641,cs),
(516,641,o),
(635,506,o),
(635,299,cs),
(635,129,o),
(541,20,o),
(404,20,cs)
);
},
{
closed = 1;
nodes = (
(121,-10,l),
(697,670,l),
(646,670,l),
(70,-10,l)
);
}
);
width = 767;
},
{
anchors = (
{
name = top;
pos = (391,710);
}
);
layerId = m002;
shapes = (
{
closed = 1;
nodes = (
(595,-10,o),
(737,134,o),
(737,330,cs),
(737,526,o),
(595,670,o),
(403,670,cs),
(212,670,o),
(70,526,o),
(70,330,cs),
(70,134,o),
(212,-10,o),
(403,-10,cs)
);
},
{
closed = 1;
nodes = (
(281,40,o),
(167,168,o),
(167,363,cs),
(167,521,o),
(258,621,o),
(386,621,cs),
(528,621,o),
(640,494,o),
(640,299,cs),
(640,141,o),
(552,40,o),
(424,40,cs)
);
},
{
closed = 1;
nodes = (
(139,-10,l),
(737,670,l),
(668,670,l),
(70,-10,l)
);
}
);
width = 807;
},
{
anchors = (
{
name = top;
pos = (389,710);
}
);
layerId = m003;
shapes = (
{
closed = 1;
nodes = (
(591,-10,o),
(742,134,o),
(742,330,cs),
(742,526,o),
(591,670,o),
(388,670,cs),
(186,670,o),
(35,526,o),
(35,330,cs),
(35,134,o),
(186,-10,o),
(388,-10,cs)
);
},
{
closed = 1;
nodes = (
(309,43,o),
(235,169,o),
(235,361,cs),
(235,518,o),
(296,618,o),
(377,618,cs),
(470,618,o),
(542,493,o),
(542,301,cs),
(542,144,o),
(485,43,o),
(401,43,cs)
);
},
{
closed = 1;
nodes = (
(115,-10,l),
(742,670,l),
(662,670,l),
(35,-10,l)
);
}
);
width = 777;
}
);
unicode = 216;
},
{
glyphname = Ohorn;
kernLeft = kern_O2;
kernRight = kern_O1;
lastChange = "2023-11-03 14:14:32 +0000";
layers = (
{
anchors = (
{
name = bottom;
pos = (384,0);
},
{
name = right;
pos = (426,0);
},
{
name = top;
pos = (384,710);
}
);
layerId = m001;
shapes = (
{
closed = 1;
nodes = (
(564,-10,o),
(697,134,o),
(697,330,cs),
(697,526,o),
(564,670,o),
(383,670,cs),
(203,670,o),
(70,526,o),
(70,330,cs),
(70,134,o),
(203,-10,o),
(383,-10,cs)
);
},
{
closed = 1;
nodes = (
(252,20,o),
(132,156,o),
(132,363,cs),
(132,533,o),
(229,641,o),
(366,641,cs),
(516,641,o),
(635,506,o),
(635,299,cs),
(635,129,o),
(541,20,o),
(404,20,cs)
);
},
{
closed = 1;
nodes = (
(657,748,o),
(651,752,o),
(630,752,cs),
(612,752,l),
(609,749,l),
(609,700,ls),
(609,660,o),
(594,637,o),
(548,637,cs),
(522,637,o),
(498,643,o),
(463,660,c),
(453,636,l),
(492,617,o),
(516,611,o),
(549,611,cs),
(616,611,o),
(657,656,o),
(657,721,cs)
);
}
);
width = 767;
},
{
anchors = (
{
name = bottom;
pos = (417,0);
},
{
name = right;
pos = (431,0);
},
{
name = top;
pos = (391,710);
}
);
layerId = m002;
shapes = (
{
closed = 1;
nodes = (
(595,-10,o),
(737,134,o),
(737,330,cs),
(737,526,o),
(595,670,o),
(403,670,cs),
(212,670,o),
(70,526,o),
(70,330,cs),
(70,134,o),
(212,-10,o),
(403,-10,cs)
);
},
{
closed = 1;
nodes = (
(281,40,o),
(167,168,o),
(167,363,cs),
(167,521,o),
(258,621,o),
(386,621,cs),
(528,621,o),
(640,494,o),
(640,299,cs),
(640,141,o),
(552,40,o),
(424,40,cs)
);
},
{
closed = 1;
nodes = (
(681,749,o),
(675,753,o),
(654,753,cs),
(619,753,l),
(613,747,l),
(613,696,ls),
(613,663,o),
(600,643,o),
(562,643,cs),
(543,643,o),
(519,647,o),
(488,660,c),
(483,649,l),
(522,630,o),
(546,625,o),
(579,625,c),
(637,625,o),
(681,665,o),
(681,722,cs)
);
}
);
width = 807;
},
{
anchors = (
{
name = bottom;
pos = (389,0);
},
{
name = right;
pos = (410,0);
},
{
name = top;
pos = (389,710);
}
);
layerId = m003;
shapes = (
{
closed = 1;
nodes = (
(591,-10,o),
(742,134,o),
(742,330,cs),
(742,526,o),
(591,670,o),
(388,670,cs),
(186,670,o),
(35,526,o),
(35,330,cs),
(35,134,o),
(186,-10,o),
(388,-10,cs)
);
},
{
closed = 1;
nodes = (
(309,43,o),
(235,169,o),
(235,361,cs),
(235,518,o),
(296,618,o),
(377,618,cs),
(470,618,o),
(542,493,o),
(542,301,cs),
(542,144,o),
(485,43,o),
(401,43,cs)
);
},
{
closed = 1;
nodes = (
(750,749,o),
(744,753,o),
(723,753,cs),
(649,753,l),
(643,747,l),
(643,701,ls),
(643,664,o),
(622,641,o),
(563,641,cs),
(541,641,o),
(517,643,o),
(480,660,c),
(470,637,l),
(511,615,o),
(557,608,o),
(603,608,cs),
(697,608,o),
(750,646,o),
(750,722,cs)
);
}
);
width = 777;
}
);
unicode = 416;
},
{
glyphname = OE;
kernLeft = kern_O2;
kernRight = kern_E1;
layers = (
{
layerId = m001;
shapes = (
{
closed = 1;
nodes = (
(551,0,l),
(551,660,l),
(424,660,ls),
(203,660,o),
(70,527,o),
(70,313,cs),
(70,121,o),
(196,0,o),
(417,0,c)
);
},
{
closed = 1;
nodes = (
(235,35,o),
(135,134,o),
(135,329,cs),
(135,509,o),
(242,625,o),
(405,625,cs),
(506,625,l),
(491,646,l),
(491,16,l),
(510,35,l),
(414,35,ls)
);
},
{
closed = 1;
nodes = (
(861,660,l),
(520,660,l),
(520,625,l),
(799,625,l),
(841,498,l),
(861,498,l)
);
},
{
closed = 1;
nodes = (
(778,441,l),
(758,441,l),
(733,358,l),
(520,358,l),
(520,323,l),
(733,323,l),
(758,242,l),
(778,242,l)
);
},
{
closed = 1;
nodes = (
(889,172,l),
(869,172,l),
(827,35,l),
(520,35,l),
(520,0,l),
(889,0,l)
);
}
);
width = 959;
},
{
layerId = m002;
shapes = (
{
closed = 1;
nodes = (
(596,0,l),
(596,660,l),
(424,660,ls),
(221,660,o),
(70,522,o),
(70,326,cs),
(70,130,o),
(200,2,o),
(417,0,cs)
);
},
{
closed = 1;
nodes = (
(264,55,o),
(165,164,o),
(165,330,cs),
(165,499,o),
(264,605,o),
(425,605,cs),
(535,605,l),
(506,627,l),
(506,28,l),
(532,55,l),
(440,55,ls)
);
},
{
closed = 1;
nodes = (
(915,660,l),
(563,660,l),
(563,605,l),
(837,605,l),
(899,488,l),
(915,488,l)
);
},
{
closed = 1;
nodes = (
(832,451,l),
(816,451,l),
(766,368,l),
(551,368,l),
(551,313,l),
(766,313,l),
(816,232,l),
(832,232,l)
);
},
{
closed = 1;
nodes = (
(943,182,l),
(927,182,l),
(865,55,l),
(571,55,l),
(571,0,l),
(943,0,l)
);
}
);
width = 1013;
},
{
layerId = m003;
shapes = (
{
closed = 1;
nodes = (
(688,0,l),
(688,660,l),
(430,660,ls),
(201,660,o),
(35,528,o),
(35,315,cs),
(35,119,o),
(176,0,o),
(423,0,c)
);
},
{
closed = 1;
nodes = (
(307,55,o),
(231,166,o),
(231,341,cs),
(231,502,o),
(309,605,o),
(454,605,cs),
(541,605,l),
(498,633,l),
(498,28,l),
(569,55,l),
(463,55,ls)
);
},
{
closed = 1;
nodes = (
(991,660,l),
(586,660,l),
(586,605,l),
(893,605,l),
(975,486,l),
(991,486,l)
);
},
{
closed = 1;
nodes = (
(908,456,l),
(892,456,l),
(832,368,l),
(594,368,l),
(594,313,l),
(832,313,l),
(892,227,l),
(908,227,l)
);
},
{
closed = 1;
nodes = (
(1019,219,l),
(1003,219,l),
(914,55,l),
(614,55,l),
(614,0,l),
(1019,0,l)
);
}
);
width = 1059;
}
);
unicode = 338;
},
{
glyphname = Scedilla;
kernLeft = kern_S3;
kernRight = kern_S3;
layers = (
{
layerId = m001;
shapes = (
{
closed = 1;
nodes = (
(357,-10,o),
(461,63,o),
(461,162,cs),
(461,266,o),
(407,306,o),
(286,364,cs),
(188,412,o),
(142,444,o),
(142,520,cs),
(142,587,o),
(187,640,o),
(269,640,cs),
(320,640,o),
(351,622,o),
(396,577,c),
(364,626,l),
(418,478,l),
(436,478,l),
(426,628,l),
(374,654,o),
(329,670,o),
(270,670,cs),
(175,670,o),
(85,582,o),
(85,497,cs),
(85,409,o),
(131,372,o),
(218,328,cs),
(330,272,o),
(402,251,o),
(402,156,cs),
(402,70,o),
(356,21,o),
(267,21,cs),
(215,21,o),
(167,32,o),
(112,81,c),
(147,35,l),
(78,190,l),
(60,190,l),
(70,36,l),
(129,6,o),
(176,-10,o),
(254,-10,cs)
);
},
{
closed = 1;
nodes = (
(314,-240,o),
(348,-208,o),
(348,-161,cs),
(348,-105,o),
(288,-78,o),
(222,-61,c),
(230,-71,l),
(280,10,l),
(259,10,l),
(198,-88,l),
(272,-108,o),
(317,-128,o),
(317,-171,cs),
(317,-203,o),
(297,-221,o),
(255,-221,cs),
(234,-221,o),
(213,-216,o),
(193,-205,c),
(190,-205,l),
(190,-218,l),
(204,-230,o),
(231,-240,o),
(258,-240,cs)
);
}
);
width = 516;
},
{
layerId = m002;
shapes = (
{
closed = 1;
nodes = (
(356,-10,o),
(476,55,o),
(476,180,cs),
(476,282,o),
(420,319,o),
(299,378,cs),
(211,421,o),
(171,450,o),
(171,518,cs),
(171,577,o),
(213,622,o),
(272,622,cs),
(320,622,o),
(351,606,o),
(402,566,c),
(376,612,l),
(439,468,l),
(455,468,l),
(445,628,l),
(391,655,o),
(342,670,o),
(280,670,cs),
(179,670,o),
(81,577,o),
(81,487,cs),
(81,395,o),
(134,357,o),
(228,310,cs),
(328,260,o),
(390,239,o),
(390,152,cs),
(390,81,o),
(343,37,o),
(264,37,cs),
(215,37,o),
(168,56,o),
(115,102,c),
(142,56,l),
(76,200,l),
(60,200,l),
(70,36,l),
(132,5,o),
(182,-10,o),
(264,-10,cs)
);
},
{
closed = 1;
nodes = (
(335,-240,o),
(369,-203,o),
(369,-155,cs),
(369,-98,o),
(337,-75,o),
(246,-49,c),
(259,-69,l),
(300,20,l),
(265,20,l),
(208,-103,l),
(287,-128,o),
(309,-142,o),
(309,-171,cs),
(309,-192,o),
(295,-210,o),
(255,-210,cs),
(228,-210,o),
(210,-206,o),
(192,-198,c),
(189,-198,l),
(189,-210,l),
(207,-231,o),
(235,-240,o),
(272,-240,c)
);
}
);
width = 531;
},
{
layerId = m003;
shapes = (
{
closed = 1;
nodes = (
(425,-10,o),
(555,71,o),
(555,203,cs),
(555,296,o),
(500,354,o),
(378,407,cs),
(275,452,o),
(244,480,o),
(244,527,cs),
(244,582,o),
(282,615,o),
(334,615,cs),
(381,615,o),
(414,596,o),
(451,564,c),
(410,611,l),
(516,462,l),
(534,462,l),
(524,622,l),
(471,652,o),
(398,670,o),
(326,670,cs),
(195,670,o),
(60,576,o),
(60,455,cs),
(60,373,o),
(112,311,o),
(207,272,cs),
(348,213,o),
(375,192,o),
(375,136,cs),
(375,72,o),
(323,44,o),
(255,44,cs),
(207,44,o),
(159,66,o),
(132,93,c),
(158,62,l),
(58,217,l),
(39,217,l),
(49,44,l),
(113,11,o),
(184,-10,o),
(276,-10,cs)
);
},
{
closed = 1;
nodes = (
(359,-240,o),
(404,-200,o),
(404,-143,cs),
(404,-85,o),
(372,-51,o),
(272,-27,c),
(289,-61,l),
(329,27,l),
(289,27,l),
(230,-103,l),
(309,-122,o),
(327,-142,o),
(327,-170,cs),
(327,-196,o),
(305,-208,o),
(271,-208,cs),
(255,-208,o),
(233,-205,o),
(218,-197,c),
(214,-197,l),
(214,-220,l),
(235,-233,o),
(260,-240,o),
(294,-240,cs)
);
}
);
width = 599;
}
);
unicode = 350;
},
{
glyphname = Tbar;
kernLeft = kern_T2;
kernRight = kern_T1;
layers = (
{
layerId = m001;
shapes = (
{
closed = 1;
nodes = (
(462,0,l),
(462,25,l),
(362,42,l),
(362,625,l),
(557,625,l),
(599,478,l),
(619,478,l),
(619,660,l),
(45,660,l),
(45,478,l),
(65,478,l),
(107,625,l),
(302,625,l),
(302,42,l),
(202,25,l),
(202,0,l)
);
},
{
closed = 1;
nodes = (
(496,324,l),
(496,359,l),
(168,359,l),
(168,324,l)
);
}
);
width = 664;
},
{
layerId = m002;
shapes = (
{
closed = 1;
nodes = (
(482,0,l),
(482,16,l),
(382,56,l),
(382,605,l),
(545,605,l),
(613,458,l),
(629,458,l),
(629,660,l),
(45,660,l),
(45,458,l),
(61,458,l),
(129,605,l),
(292,605,l),
(292,56,l),
(192,16,l),
(192,0,l)
);
},
{
closed = 1;
nodes = (
(506,317,l),
(506,367,l),
(168,367,l),
(168,317,l)
);
}
);
width = 674;
},
{
layerId = m003;
shapes = (
{
closed = 1;
nodes = (
(564,0,l),
(564,16,l),
(454,58,l),
(454,605,l),
(584,605,l),
(672,429,l),
(688,429,l),
(688,660,l),
(30,660,l),
(30,429,l),
(46,429,l),
(134,605,l),
(264,605,l),
(264,58,l),
(154,16,l),
(154,0,l)
);
},
{
closed = 1;
nodes = (
(580,315,l),
(580,370,l),
(138,370,l),
(138,315,l)
);
}
);
width = 718;
}
);
unicode = 358;
},
{
glyphname = Tcedilla;
kernLeft = kern_T2;
kernRight = kern_T1;
layers = (
{
layerId = m001;
shapes = (
{
closed = 1;
nodes = (
(462,0,l),
(462,25,l),
(362,42,l),
(362,625,l),
(557,625,l),
(599,478,l),
(619,478,l),
(619,660,l),
(45,660,l),
(45,478,l),
(65,478,l),
(107,625,l),
(302,625,l),
(302,42,l),
(202,25,l),
(202,0,l)
);
},
{
closed = 1;
nodes = (
(370,-240,o),
(404,-208,o),
(404,-161,cs),
(404,-105,o),
(344,-78,o),
(278,-61,c),
(286,-71,l),
(336,10,l),
(315,10,l),
(254,-88,l),
(328,-108,o),
(373,-128,o),
(373,-171,cs),
(373,-203,o),
(353,-221,o),
(311,-221,cs),
(290,-221,o),
(269,-216,o),
(249,-205,c),
(246,-205,l),
(246,-218,l),
(260,-230,o),
(287,-240,o),
(314,-240,cs)
);
}
);
width = 664;
},
{
layerId = m002;
shapes = (
{
closed = 1;
nodes = (
(482,0,l),
(482,16,l),
(382,56,l),
(382,605,l),
(545,605,l),
(613,458,l),
(629,458,l),
(629,660,l),
(45,660,l),
(45,458,l),
(61,458,l),
(129,605,l),
(292,605,l),
(292,56,l),
(192,16,l),
(192,0,l)
);
},
{
closed = 1;
nodes = (
(400,-240,o),
(434,-203,o),
(434,-155,cs),
(434,-98,o),
(402,-75,o),
(311,-49,c),
(324,-69,l),
(365,20,l),
(330,20,l),
(273,-103,l),
(352,-128,o),
(374,-142,o),
(374,-171,cs),
(374,-192,o),
(360,-210,o),
(320,-210,cs),
(293,-210,o),
(275,-206,o),
(257,-198,c),
(254,-198,l),
(254,-210,l),
(272,-231,o),
(300,-240,o),
(337,-240,c)
);
}
);
width = 674;
},
{
layerId = m003;
shapes = (
{
closed = 1;
nodes = (
(564,0,l),
(564,16,l),
(454,58,l),
(454,605,l),
(584,605,l),
(672,429,l),
(688,429,l),
(688,660,l),
(30,660,l),
(30,429,l),
(46,429,l),
(134,605,l),
(264,605,l),
(264,58,l),
(154,16,l),
(154,0,l)
);
},
{
closed = 1;
nodes = (
(421,-240,o),
(466,-200,o),
(466,-143,cs),
(466,-85,o),
(434,-51,o),
(334,-27,c),
(351,-61,l),
(391,27,l),
(351,27,l),
(292,-103,l),
(371,-122,o),
(389,-142,o),
(389,-170,cs),
(389,-196,o),
(367,-208,o),
(333,-208,cs),
(317,-208,o),
(295,-205,o),
(280,-197,c),
(276,-197,l),
(276,-220,l),
(297,-233,o),
(322,-240,o),
(356,-240,cs)
);
}
);
width = 718;
}
);
unicode = 354;
},
{
glyphname = Uogonek;
kernLeft = kern_U2;
kernRight = kern_U1;
layers = (
{
layerId = m001;
shapes = (
{
closed = 1;
nodes = (
(531,-10,o),
(635,63,o),
(635,238,cs),
(635,619,l),
(714,635,l),
(714,660,l),
(496,660,l),
(496,635,l),
(596,620,l),
(596,227,ls),
(596,92,o),
(513,32,o),
(408,32,cs),
(283,32,o),
(205,85,o),
(205,252,cs),
(205,618,l),
(285,635,l),
(285,660,l),
(65,660,l),
(65,635,l),
(145,618,l),
(145,238,ls),
(145,63,o),
(249,-10,o),
(390,-10,cs)
);
},
{
closed = 1;
nodes = (
(444,-240,o),
(473,-226,o),
(486,-208,c),
(486,-195,l),
(483,-195,l),
(464,-210,o),
(444,-216,o),
(423,-216,cs),
(383,-216,o),
(359,-196,o),
(359,-149,cs),
(359,-98,o),
(387,-47,o),
(441,10,c),
(423,10,l),
(361,-44,o),
(322,-98,o),
(322,-159,cs),
(322,-212,o),
(360,-240,o),
(410,-240,cs)
);
}
);
width = 779;
},
{
layerId = m002;
shapes = (
{
closed = 1;
nodes = (
(554,-10,o),
(665,70,o),
(665,256,cs),
(665,605,l),
(744,644,l),
(744,660,l),
(495,660,l),
(495,644,l),
(595,606,l),
(595,236,ls),
(595,101,o),
(519,48,o),
(431,48,cs),
(321,48,o),
(235,105,o),
(235,271,cs),
(235,604,l),
(315,644,l),
(315,660,l),
(65,660,l),
(65,644,l),
(145,604,l),
(145,256,ls),
(145,70,o),
(256,-10,o),
(405,-10,cs)
);
},
{
closed = 1;
nodes = (
(460,-240,o),
(488,-223,o),
(506,-195,c),
(506,-183,l),
(503,-183,l),
(485,-193,o),
(468,-195,o),
(453,-195,cs),
(412,-195,o),
(388,-176,o),
(388,-130,cs),
(388,-87,o),
(405,-41,o),
(448,20,c),
(426,20,l),
(366,-48,o),
(322,-98,o),
(322,-152,cs),
(322,-205,o),
(363,-240,o),
(421,-240,cs)
);
}
);
width = 809;
},
{
layerId = m003;
shapes = (
{
closed = 1;
nodes = (
(618,-10,o),
(736,66,o),
(736,302,cs),
(736,603,l),
(826,644,l),
(826,660,l),
(576,660,l),
(576,644,l),
(666,604,l),
(666,255,ls),
(666,124,o),
(586,76,o),
(498,76,cs),
(395,76,o),
(310,127,o),
(310,290,cs),
(310,602,l),
(400,644,l),
(400,660,l),
(30,660,l),
(30,644,l),
(120,602,l),
(120,302,ls),
(120,66,o),
(245,-10,o),
(435,-10,cs)
);
},
{
closed = 1;
nodes = (
(500,-240,o),
(534,-221,o),
(550,-188,c),
(550,-165,l),
(546,-165,l),
(535,-177,o),
(516,-183,o),
(500,-183,cs),
(464,-183,o),
(447,-162,o),
(447,-125,cs),
(447,-75,o),
(467,-25,o),
(498,27,c),
(469,27,l),
(399,-38,o),
(356,-94,o),
(356,-148,cs),
(356,-204,o),
(395,-240,o),
(457,-240,cs)
);
}
);
width = 856;
}
);
unicode = 370;
},
{
glyphname = Uhorn;
kernLeft = kern_U2;
kernRight = kern_Uhorn1;
lastChange = "2023-11-03 14:14:42 +0000";
layers = (
{
anchors = (
{
name = bottom;
pos = (402,0);
},
{
name = right;
pos = (433,0);
},
{
name = top;
pos = (402,710);
}
);
layerId = m001;
shapes = (
{
closed = 1;
nodes = (
(531,-10,o),
(635,63,o),
(635,238,cs),
(635,619,l),
(714,635,l),
(714,660,l),
(496,660,l),
(496,635,l),
(596,620,l),
(596,227,ls),
(596,92,o),
(513,32,o),
(408,32,cs),
(283,32,o),
(205,85,o),
(205,252,cs),
(205,618,l),
(285,635,l),
(285,660,l),
(65,660,l),
(65,635,l),
(145,618,l),
(145,238,ls),
(145,63,o),
(249,-10,o),
(390,-10,cs)
);
},
{
closed = 1;
nodes = (
(849,747,o),
(843,752,o),
(822,752,cs),
(805,752,l),
(802,749,l),
(802,710,ls),
(802,671,o),
(787,660,o),
(741,660,cs),
(656,660,l),
(656,635,l),
(749,635,ls),
(812,635,o),
(849,664,o),
(849,715,cs)
);
}
);
width = 781;
},
{
anchors = (
{
name = bottom;
pos = (402,0);
},
{
name = right;
pos = (431,0);
},
{
name = top;
pos = (415,710);
}
);
layerId = m002;
shapes = (
{
closed = 1;
nodes = (
(554,-10,o),
(665,70,o),
(665,256,cs),
(665,605,l),
(744,644,l),
(744,660,l),
(495,660,l),
(495,644,l),
(595,606,l),
(595,236,ls),
(595,101,o),
(519,48,o),
(431,48,cs),
(321,48,o),
(235,105,o),
(235,271,cs),
(235,604,l),
(315,644,l),
(315,660,l),
(65,660,l),
(65,644,l),
(145,604,l),
(145,256,ls),
(145,70,o),
(256,-10,o),
(405,-10,cs)
);
},
{
closed = 1;
nodes = (
(869,749,o),
(863,753,o),
(842,753,cs),
(807,753,l),
(801,747,l),
(801,713,ls),
(801,680,o),
(788,660,o),
(750,660,cs),
(676,660,l),
(671,642,l),
(767,642,ls),
(825,642,o),
(869,665,o),
(869,722,cs)
);
}
);
width = 809;
},
{
anchors = (
{
name = bottom;
pos = (468,0);
},
{
name = right;
pos = (493,0);
},
{
name = top;
pos = (483,710);
}
);
layerId = m003;
shapes = (
{
closed = 1;
nodes = (
(618,-10,o),
(736,66,o),
(736,302,cs),
(736,603,l),
(826,644,l),
(826,660,l),
(576,660,l),
(576,644,l),
(666,604,l),
(666,255,ls),
(666,124,o),
(586,76,o),
(498,76,cs),
(395,75,o),
(310,127,o),
(310,290,cs),
(310,602,l),
(400,644,l),
(400,660,l),
(30,660,l),
(30,644,l),
(120,602,l),
(120,302,ls),
(120,66,o),
(245,-10,o),
(435,-10,cs)
);
},
{
closed = 1;
nodes = (
(1001,749,o),
(995,753,o),
(974,753,cs),
(900,753,l),
(894,747,l),
(894,701,ls),
(894,668,o),
(873,660,o),
(814,660,cs),
(731,660,l),
(731,628,l),
(854,628,ls),
(948,628,o),
(1001,656,o),
(1001,722,cs)
);
}
);
width = 856;
}
);
unicode = 431;
},
{
glyphname = Schwa;
kernLeft = kern_O2;
kernRight = kern_O1;
layers = (
{
layerId = m001;
shapes = (
{
closed = 1;
nodes = (
(485,-9,o),
(620,148,o),
(620,344,cs),
(620,528,o),
(512,670,o),
(307,670,cs),
(199,670,o),
(115,621,o),
(71,553,c),
(71,536,l),
(76,536,l),
(122,583,o),
(201,622,o),
(294,622,cs),
(462,622,o),
(558,507,o),
(558,337,cs),
(558,139,o),
(456,23,o),
(342,23,cs),
(212,23,o),
(147,117,o),
(133,274,c),
(123,267,l),
(567,267,l),
(567,299,l),
(74,299,l),
(70,294,l),
(79,103,o),
(173,-9,o),
(329,-9,cs)
);
}
);
width = 690;
},
{
layerId = m002;
shapes = (
{
closed = 1;
nodes = (
(499,-10,o),
(625,143,o),
(625,359,cs),
(625,547,o),
(510,670,o),
(323,670,cs),
(206,670,o),
(115,607,o),
(70,523,c),
(70,511,l),
(74,511,l),
(143,555,o),
(205,585,o),
(292,585,cs),
(460,585,o),
(531,480,o),
(531,310,cs),
(531,136,o),
(464,44,o),
(332,44,cs),
(232,44,o),
(171,136,o),
(157,254,c),
(125,249,l),
(560,249,l),
(555,299,l),
(79,299,l),
(71,292,l),
(71,100,o),
(169,-10,o),
(321,-10,cs)
);
}
);
width = 695;
},
{
layerId = m003;
shapes = (
{
closed = 1;
nodes = (
(492,-9,o),
(644,144,o),
(644,360,cs),
(644,547,o),
(526,670,o),
(335,670,cs),
(196,670,o),
(84,602,o),
(35,511,c),
(35,458,l),
(39,458,l),
(106,505,o),
(191,524,o),
(250,524,cs),
(394,524,o),
(453,444,o),
(453,306,cs),
(453,148,o),
(417,55,o),
(333,55,cs),
(264,55,o),
(219,103,o),
(213,258,c),
(145,246,l),
(509,246,l),
(509,299,l),
(41,299,l),
(36,292,l),
(37,103,o),
(131,-9,o),
(295,-9,cs)
);
}
);
width = 679;
}
);
unicode = 399;
},
{
glyphname = Eng;
kernLeft = kern_H2;
kernRight = kern_N1;
layers = (
{
layerId = m001;
shapes = (
{
closed = 1;
nodes = (
(274,0,l),
(274,25,l),
(183,45,l),
(183,601,l),
(164,601,l),
(625,-13,l),
(603,35,l),
(603,-39,ls),
(603,-144,o),
(573,-183,o),
(470,-183,cs),
(426,-183,l),
(420,-189,l),
(420,-211,ls),
(420,-234,o),
(424,-240,o),
(457,-240,cs),
(507,-240,o),
(549,-226,o),
(580,-200,cs),
(615,-171,o),
(641,-128,o),
(641,-44,cs),
(641,618,l),
(719,635,l),
(719,660,l),
(517,660,l),
(517,635,l),
(603,618,l),
(603,61,l),
(638,61,l),
(196,660,l),
(65,660,l),
(65,635,l),
(143,618,l),
(143,42,l),
(65,25,l),
(65,0,l)
);
}
);
width = 784;
},
{
layerId = m002;
shapes = (
{
closed = 1;
nodes = (
(310,0,l),
(310,16,l),
(210,55,l),
(210,561,l),
(169,561,l),
(618,1,l),
(590,65,l),
(590,-46,ls),
(590,-127,o),
(564.723,-157,o),
(479,-157,cs),
(433,-157,l),
(429,-161,l),
(429,-211,ls),
(429,-233,o),
(441,-240,o),
(471,-240,cs),
(518.288,-240,o),
(564.091,-225.758,o),
(595,-200,cs),
(633.025,-168.629,o),
(660,-119,o),
(660,-26,cs),
(660,605,l),
(739,644,l),
(739,660,l),
(490,660,l),
(490,644,l),
(590,606,l),
(590,100,l),
(655,100,l),
(208,660,l),
(61,660,l),
(61,644,l),
(140,602,l),
(140,56,l),
(60,16,l),
(60,0,l)
);
}
);
width = 799;
},
{
layerId = m003;
shapes = (
{
closed = 1;
nodes = (
(312,0,l),
(312,16,l),
(189,58,l),
(189,493,l),
(150,493,l),
(666,-41,l),
(640,22,l),
(640,-6,ls),
(640,-100,o),
(609,-125,o),
(523,-125,cs),
(453,-125,l),
(447,-131,l),
(447,-212,ls),
(447,-234,o),
(449,-241,o),
(501,-241,cs),
(553.5,-241,o),
(605.492,-226.421,o),
(641,-197,cs),
(683.832,-162.058,o),
(710,-104.204,o),
(710,14,cs),
(710,602,l),
(797,644,l),
(797,660,l),
(517,660,l),
(517,644,l),
(640,602,l),
(640,187,l),
(698,187,l),
(247,660,l),
(30,660,l),
(30,644,l),
(119,602,l),
(119,58,l),
(30,16,l),
(30,0,l)
);
}
);
width = 827;
}
);
unicode = 330;
},
{
glyphname = Thorn;
kernLeft = kern_H2;
kernRight = kern_Thorn1;
layers = (
{
layerId = m001;
shapes = (
{
closed = 1;
nodes = (
(281,0,l),
(281,25,l),
(203,42,l),
(203,618,l),
(281,635,l),
(281,660,l),
(65,660,l),
(65,635,l),
(143,618,l),
(143,42,l),
(65,25,l),
(65,0,l)
);
},
{
closed = 1;
nodes = (
(413,161,o),
(524,242,o),
(524,351,cs),
(524,475,o),
(420,530,o),
(263,530,cs),
(178,530,l),
(178,495,l),
(271,495,ls),
(384,495,o),
(457,450,o),
(457,343,cs),
(457,256,o),
(383,196,o),
(278,196,cs),
(178,196,l),
(178,161,l),
(250,161,ls)
);
}
);
width = 576;
},
{
layerId = m002;
shapes = (
{
closed = 1;
nodes = (
(315,0,l),
(315,16,l),
(235,56,l),
(235,604,l),
(315,644,l),
(315,660,l),
(65,660,l),
(65,644,l),
(145,604,l),
(145,56,l),
(65,16,l),
(65,0,l)
);
},
{
closed = 1;
nodes = (
(464,171,o),
(586,252,o),
(586,361,cs),
(586,485,o),
(482,540,o),
(325,540,cs),
(218,540,l),
(218,485,l),
(313,485,ls),
(426,485,o),
(489,446,o),
(489,353,cs),
(489,278,o),
(425,226,o),
(320,226,cs),
(210,226,l),
(210,171,l),
(301,171,ls)
);
}
);
width = 638;
},
{
layerId = m003;
shapes = (
{
closed = 1;
nodes = (
(398,0,l),
(398,16,l),
(309,58,l),
(309,602,l),
(398,644,l),
(398,660,l),
(30,660,l),
(30,644,l),
(119,602,l),
(119,58,l),
(30,16,l),
(30,0,l)
);
},
{
closed = 1;
nodes = (
(571,162,o),
(693,234,o),
(693,349,cs),
(693,473,o),
(589,526,o),
(432,526,cs),
(284,526,l),
(284,471,l),
(327,471,ls),
(440,471,o),
(503,432,o),
(503,339,cs),
(503,264,o),
(439,207,o),
(334,207,cs),
(284,207,l),
(284,162,l),
(408,162,ls)
);
}
);
width = 713;
}
);
unicode = 222;
},
{
glyphname = uni0402;
kernLeft = kern_CYR_afii10051;
layers = (
{
layerId = m001;
shapes = (
{
closed = 1;
nodes = (
(446,0,l),
(446,25,l),
(346,42,l),
(346,625,l),
(557,625,l),
(599,488,l),
(619,488,l),
(619,660,l),
(45,660,l),
(45,478,l),
(65,478,l),
(107,625,l),
(286,625,l),
(286,42,l),
(186,25,l),
(186,0,l)
);
},
{
closed = 1;
nodes = (
(696,329,o),
(645,390,o),
(526,390,cs),
(457,390,o),
(390,361,o),
(342,321,c),
(342,292,l),
(390,329,o),
(438,346,o),
(491,346,cs),
(592.643,346,o),
(640,310,o),
(640,168,cs),
(640,80,ls),
(640,-83,o),
(610,-108,o),
(565,-108,cs),
(547,-108,o),
(537,-105,o),
(514,-99,c),
(508,-99,l),
(502,-129,o),
(499,-142,o),
(499,-145,cs),
(499,-166,o),
(515,-173,o),
(532,-173,cs),
(560,-173,o),
(578,-166,o),
(628,-112,cs),
(684,-52,o),
(696,43,o),
(696,200,cs)
);
}
);
userData = {
com.typemytype.robofont.layerData = {
"2" = {
anchors = (
);
components = (
);
contours = (
{
points = (
{
segmentType = line;
smooth = 0;
x = 172;
y = 0;
},
{
segmentType = line;
smooth = 0;
x = 462;
y = 0;
},
{
segmentType = line;
smooth = 0;
x = 462;
y = 16;
},
{
segmentType = line;
smooth = 0;
x = 362;
y = 56;
},
{
segmentType = line;
smooth = 0;
x = 362;
y = 605;
},
{
segmentType = line;
smooth = 0;
x = 535;
y = 605;
},
{
segmentType = line;
smooth = 0;
x = 603;
y = 458;
},
{
segmentType = line;
smooth = 0;
x = 619;
y = 458;
},
{
segmentType = line;
smooth = 0;
x = 619;
y = 660;
},
{
segmentType = line;
smooth = 0;
x = 45;
y = 660;
},
{
segmentType = line;
smooth = 0;
x = 45;
y = 458;
},
{
segmentType = line;
smooth = 0;
x = 61;
y = 458;
},
{
segmentType = line;
smooth = 0;
x = 129;
y = 605;
},
{
segmentType = line;
smooth = 0;
x = 272;
y = 605;
},
{
segmentType = line;
smooth = 0;
x = 272;
y = 56;
},
{
segmentType = line;
smooth = 0;
x = 172;
y = 16;
}
);
},
{
points = (
{
segmentType = curve;
smooth = 1;
x = 716;
y = 195;
},
{
smooth = 0;
x = 716;
y = 353;
},
{
smooth = 0;
x = 640;
y = 390;
},
{
segmentType = curve;
smooth = 1;
x = 547;
y = 390;
},
{
smooth = 0;
x = 473;
y = 390;
},
{
smooth = 0;
x = 404;
y = 362;
},
{
segmentType = curve;
smooth = 0;
x = 358;
y = 316;
},
{
segmentType = line;
smooth = 0;
x = 358;
y = 272;
},
{
smooth = 0;
x = 397;
y = 302;
},
{
smooth = 0;
x = 444;
y = 316;
},
{
segmentType = curve;
smooth = 1;
x = 489;
y = 316;
},
{
smooth = 0;
x = 588;
y = 316;
},
{
smooth = 0;
x = 626;
y = 276;
},
{
segmentType = curve;
smooth = 1;
x = 626;
y = 166;
},
{
segmentType = line;
smooth = 1;
x = 626;
y = 51;
},
{
smooth = 0;
x = 626;
y = -83;
},
{
smooth = 0;
x = 599;
y = -100;
},
{
segmentType = curve;
smooth = 1;
x = 556;
y = -100;
},
{
smooth = 0;
x = 538;
y = -100;
},
{
smooth = 0;
x = 528;
y = -97;
},
{
segmentType = curve;
smooth = 0;
x = 505;
y = -91;
},
{
segmentType = line;
smooth = 0;
x = 499;
y = -91;
},
{
smooth = 0;
x = 489;
y = -139;
},
{
smooth = 0;
x = 489;
y = -142;
},
{
segmentType = curve;
smooth = 1;
x = 489;
y = -145;
},
{
smooth = 0;
x = 489;
y = -166;
},
{
smooth = 0;
x = 505;
y = -173;
},
{
segmentType = curve;
smooth = 1;
x = 522;
y = -173;
},
{
smooth = 0;
x = 562;
y = -173;
},
{
smooth = 0;
x = 579;
y = -163;
},
{
segmentType = curve;
smooth = 1;
x = 637;
y = -99;
},
{
smooth = 0;
x = 690;
y = -41;
},
{
smooth = 0;
x = 716;
y = 83;
}
);
}
);
lib = {
};
name = uni0402;
unicodes = (
);
width = 776;
};
};
};
width = 776;
},
{
layerId = m002;
shapes = (
{
closed = 1;
nodes = (
(462,0,l),
(462,16,l),
(362,56,l),
(362,605,l),
(535,605,l),
(603,468,l),
(619,468,l),
(619,660,l),
(45,660,l),
(45,458,l),
(61,458,l),
(129,605,l),
(272,605,l),
(272,56,l),
(172,16,l),
(172,0,l)
);
},
{
closed = 1;
nodes = (
(716,353,o),
(640,390,o),
(547,390,cs),
(473,390,o),
(404,362,o),
(358,316,c),
(358,272,l),
(397,302,o),
(444,316,o),
(489,316,cs),
(588,316,o),
(626,276,o),
(626,166,cs),
(626,51,ls),
(626,-83,o),
(599,-100,o),
(556,-100,cs),
(538,-100,o),
(528,-97,o),
(505,-91,c),
(499,-91,l),
(489,-139,o),
(489,-142,o),
(489,-145,cs),
(489,-166,o),
(505,-173,o),
(522,-173,cs),
(562,-173,o),
(579,-163,o),
(637,-99,cs),
(690,-41,o),
(716,83,o),
(716,195,cs)
);
}
);
width = 786;
},
{
layerId = m003;
shapes = (
{
closed = 1;
nodes = (
(521,0,l),
(521,16,l),
(434,58,l),
(434,605,l),
(574,605,l),
(662,479,l),
(678,479,l),
(678,660,l),
(20,660,l),
(20,459,l),
(36,459,l),
(124,605,l),
(244,605,l),
(244,58,l),
(134,16,l),
(134,0,l)
);
},
{
closed = 1;
nodes = (
(802,322.124,o),
(754,410,o),
(621,410,cs),
(526,410,o),
(463,370,o),
(429,336,c),
(429,279,l),
(445,294,o),
(474,306,o),
(516,306,cs),
(589,306,o),
(612,259,o),
(612,186,cs),
(612,49,ls),
(612,-50,o),
(592,-63,o),
(560,-63,cs),
(547,-63,o),
(539,-61,o),
(522,-56,c),
(512,-56,l),
(504,-91,o),
(497,-126,o),
(497,-144,cs),
(497,-164,o),
(508,-173,o),
(528,-173,cs),
(578.496,-173,o),
(632.805,-133.404,o),
(674,-85,cs),
(715.576,-35.689,o),
(802,71.051,o),
(802,212,cs)
);
}
);
width = 842;
}
);
unicode = 1026;
},
{
glyphname = uni0404;
kernLeft = kern_CYR_afii10053;
kernRight = kern_CYR_afii10053;
layers = (
{
layerId = m001;
shapes = (
{
closed = 1;
nodes = (
(450,242,l),
(450,441,l),
(430,441,l),
(405,358,l),
(102,358,l),
(102,323,l),
(405,323,l),
(430,242,l)
);
},
{
closed = 1;
nodes = (
(501,-10,o),
(555,10,o),
(613,39,c),
(622,188,l),
(602,188,l),
(539,41,l),
(573,78,l),
(528,47,o),
(482,22,o),
(407,22,cs),
(247,22,o),
(125,155,o),
(125,352,cs),
(125,509,o),
(239,639,o),
(402,639,cs),
(465,639,o),
(512,613,o),
(576,562,c),
(542,608,l),
(591,466,l),
(612,466,l),
(607,621,l),
(553,647,o),
(504,670,o),
(410,670,cs),
(224,670,o),
(70,515,o),
(70,312,cs),
(70,129,o),
(206,-10,o),
(393,-10,cs)
);
}
);
userData = {
com.typemytype.robofont.layerData = {
background = {
anchors = (
);
components = (
);
contours = (
{
points = (
{
segmentType = move;
x = 287;
y = 413;
},
{
segmentType = line;
smooth = 1;
x = 387;
y = 413;
},
{
smooth = 0;
x = 452;
y = 413;
},
{
smooth = 0;
x = 465;
y = 420;
},
{
segmentType = curve;
smooth = 1;
x = 478;
y = 482;
},
{
segmentType = line;
smooth = 0;
x = 487;
y = 524;
},
{
segmentType = line;
smooth = 0;
x = 535;
y = 524;
},
{
segmentType = line;
smooth = 0;
x = 535;
y = 241;
},
{
segmentType = line;
smooth = 0;
x = 487;
y = 241;
},
{
segmentType = line;
smooth = 1;
x = 478;
y = 283;
},
{
smooth = 0;
x = 465;
y = 345;
},
{
smooth = 0;
x = 452;
y = 352;
},
{
segmentType = curve;
smooth = 1;
x = 387;
y = 352;
},
{
segmentType = line;
smooth = 0;
x = 287;
y = 352;
}
);
}
);
lib = {
};
name = uni0404;
unicodes = (
);
width = 714;
};
};
};
width = 714;
},
{
layerId = m002;
shapes = (
{
closed = 1;
nodes = (
(456,232,l),
(456,451,l),
(440,451,l),
(390,368,l),
(150,368,l),
(150,313,l),
(390,313,l),
(440,232,l)
);
},
{
closed = 1;
nodes = (
(510,-10,o),
(564,10,o),
(623,39,c),
(634,198,l),
(617,198,l),
(540,62,l),
(578,106,l),
(535,76,o),
(486,41,o),
(398,41,cs),
(268,41,o),
(163,152,o),
(163,342,cs),
(163,504,o),
(269,620,o),
(413,620,cs),
(467,620,o),
(502,600,o),
(565,554,c),
(529,599,l),
(605,447,l),
(623,447,l),
(618,622,l),
(563,649,o),
(515,670,o),
(415,670,cs),
(228,670,o),
(70,501,o),
(70,312,cs),
(70,126,o),
(195,-10,o),
(400,-10,cs)
);
}
);
userData = {
com.typemytype.robofont.layerData = {
background = {
anchors = (
);
components = (
);
contours = (
{
points = (
{
segmentType = move;
x = 287;
y = 413;
},
{
segmentType = line;
smooth = 1;
x = 387;
y = 413;
},
{
smooth = 0;
x = 452;
y = 413;
},
{
smooth = 0;
x = 465;
y = 420;
},
{
segmentType = curve;
smooth = 1;
x = 478;
y = 482;
},
{
segmentType = line;
smooth = 0;
x = 487;
y = 524;
},
{
segmentType = line;
smooth = 0;
x = 535;
y = 524;
},
{
segmentType = line;
smooth = 0;
x = 535;
y = 241;
},
{
segmentType = line;
smooth = 0;
x = 487;
y = 241;
},
{
segmentType = line;
smooth = 1;
x = 478;
y = 283;
},
{
smooth = 0;
x = 465;
y = 345;
},
{
smooth = 0;
x = 452;
y = 352;
},
{
segmentType = curve;
smooth = 1;
x = 387;
y = 352;
},
{
segmentType = line;
smooth = 0;
x = 287;
y = 352;
}
);
}
);
lib = {
};
name = uni0404;
unicodes = (
);
width = 726;
};
};
};
width = 726;
},
{
layerId = m003;
shapes = (
{
closed = 1;
nodes = (
(479,227,l),
(479,456,l),
(463,456,l),
(403,368,l),
(165,368,l),
(165,313,l),
(403,313,l),
(463,227,l)
);
},
{
closed = 1;
nodes = (
(486,-10,o),
(578,10,o),
(629,44,c),
(646,219,l),
(628,219,l),
(505,51,l),
(541,82,l),
(500,54,o),
(462,45,o),
(420,45,cs),
(312,45,o),
(234,150,o),
(234,316,cs),
(234,503,o),
(317,620,o),
(424,620,cs),
(470,620,o),
(492,612,o),
(524,591,c),
(495,615,l),
(621,428,l),
(639,428,l),
(624,622,l),
(566,650,o),
(523,670,o),
(415,670,cs),
(222,670,o),
(35,524,o),
(35,319,cs),
(35,133,o),
(185,-10,o),
(398,-10,cs)
);
}
);
userData = {
com.typemytype.robofont.layerData = {
background = {
anchors = (
);
components = (
);
contours = (
{
points = (
{
segmentType = move;
x = 287;
y = 413;
},
{
segmentType = line;
smooth = 1;
x = 387;
y = 413;
},
{
smooth = 0;
x = 452;
y = 413;
},
{
smooth = 0;
x = 465;
y = 420;
},
{
segmentType = curve;
smooth = 1;
x = 478;
y = 482;
},
{
segmentType = line;
smooth = 0;
x = 487;
y = 524;
},
{
segmentType = line;
smooth = 0;
x = 535;
y = 524;
},
{
segmentType = line;
smooth = 0;
x = 535;
y = 241;
},
{
segmentType = line;
smooth = 0;
x = 487;
y = 241;
},
{
segmentType = line;
smooth = 1;
x = 478;
y = 283;
},
{
smooth = 0;
x = 465;
y = 345;
},
{
smooth = 0;
x = 452;
y = 352;
},
{
segmentType = curve;
smooth = 1;
x = 387;
y = 352;
},
{
segmentType = line;
smooth = 0;
x = 287;
y = 352;
}
);
}
);
lib = {
};
name = uni0404;
unicodes = (
);
width = 701;
};
};
};
width = 701;
}
);
unicode = 1028;
},
{
glyphname = uni0409;
kernLeft = kern_CYR_afii10058;
kernRight = kern_CYR_afii10058;
layers = (
{
layerId = m001;
shapes = (
{
closed = 1;
nodes = (
(513,625,l),
(513,660,l),
(203,660,l),
(203,625,l)
);
},
{
closed = 1;
nodes = (
(226,660,l),
(108,660,l),
(108,635,l),
(186,618,l),
(186,574,ls),
(186,250,o),
(157,57,o),
(41,57,cs),
(36,57,l),
(30,51,l),
(30,19,ls),
(30,-3,o),
(34,-10,o),
(62,-10,cs),
(103,-10,o),
(142,21,o),
(168,77,cs),
(208,164,o),
(226,352,o),
(226,575,cs)
);
},
{
closed = 1;
nodes = (
(780,0,o),
(871,86,o),
(871,202,cs),
(871,310,o),
(778,378,o),
(610,378,cs),
(479,378,l),
(479,343,l),
(609,343,ls),
(745,343,o),
(808,295,o),
(808,188,cs),
(808,100,o),
(744,35,o),
(613,35,cs),
(499,35,l),
(499,0,l),
(611,0,ls)
);
},
{
closed = 1;
nodes = (
(463,660,l),
(463,42,l),
(385,25,l),
(385,0,l),
(523,0,l),
(523,618,l),
(621,635,l),
(621,660,l)
);
}
);
userData = {
com.typemytype.robofont.layerData = {
"2" = {
anchors = (
);
components = (
);
contours = (
{
points = (
{
segmentType = line;
smooth = 0;
x = 210;
y = 605;
},
{
segmentType = line;
smooth = 0;
x = 510;
y = 605;
},
{
segmentType = line;
smooth = 0;
x = 510;
y = 660;
},
{
segmentType = line;
smooth = 0;
x = 210;
y = 660;
}
);
},
{
points = (
{
segmentType = curve;
smooth = 1;
x = 255;
y = 556;
},
{
segmentType = line;
smooth = 0;
x = 255;
y = 660;
},
{
segmentType = line;
smooth = 0;
x = 115;
y = 660;
},
{
segmentType = line;
smooth = 0;
x = 115;
y = 644;
},
{
segmentType = line;
smooth = 0;
x = 195;
y = 604;
},
{
segmentType = line;
smooth = 1;
x = 195;
y = 556;
},
{
smooth = 0;
x = 195;
y = 262;
},
{
smooth = 0;
x = 168;
y = 78;
},
{
segmentType = curve;
smooth = 1;
x = 61;
y = 78;
},
{
segmentType = line;
smooth = 0;
x = 51;
y = 78;
},
{
segmentType = line;
smooth = 0;
x = 47;
y = 74;
},
{
segmentType = line;
smooth = 1;
x = 47;
y = 19;
},
{
smooth = 0;
x = 47;
y = -3;
},
{
smooth = 0;
x = 51;
y = -10;
},
{
segmentType = curve;
smooth = 1;
x = 81;
y = -10;
},
{
smooth = 0;
x = 118;
y = -10;
},
{
smooth = 0;
x = 164;
y = 9;
},
{
segmentType = curve;
smooth = 1;
x = 199;
y = 91;
},
{
smooth = 0;
x = 241;
y = 192;
},
{
smooth = 0;
x = 255;
y = 334;
}
);
},
{
points = (
{
segmentType = line;
smooth = 1;
x = 661;
y = 0;
},
{
smooth = 0;
x = 829;
y = 0;
},
{
smooth = 0;
x = 936;
y = 86;
},
{
segmentType = curve;
smooth = 1;
x = 936;
y = 202;
},
{
smooth = 0;
x = 936;
y = 314;
},
{
smooth = 0;
x = 830;
y = 388;
},
{
segmentType = curve;
smooth = 1;
x = 662;
y = 388;
},
{
segmentType = line;
smooth = 0;
x = 510;
y = 388;
},
{
segmentType = line;
smooth = 0;
x = 510;
y = 333;
},
{
segmentType = line;
smooth = 1;
x = 653;
y = 333;
},
{
smooth = 0;
x = 782;
y = 333;
},
{
smooth = 0;
x = 839;
y = 291;
},
{
segmentType = curve;
smooth = 1;
x = 839;
y = 194;
},
{
smooth = 0;
x = 839;
y = 112;
},
{
smooth = 0;
x = 781;
y = 55;
},
{
segmentType = curve;
smooth = 1;
x = 660;
y = 55;
},
{
segmentType = line;
smooth = 0;
x = 530;
y = 55;
},
{
segmentType = line;
smooth = 0;
x = 530;
y = 0;
}
);
},
{
points = (
{
segmentType = line;
smooth = 0;
x = 655;
y = 660;
},
{
segmentType = line;
smooth = 0;
x = 465;
y = 660;
},
{
segmentType = line;
smooth = 0;
x = 465;
y = 56;
},
{
segmentType = line;
smooth = 0;
x = 385;
y = 16;
},
{
segmentType = line;
smooth = 0;
x = 385;
y = 0;
},
{
segmentType = line;
smooth = 0;
x = 555;
y = 0;
},
{
segmentType = line;
smooth = 0;
x = 555;
y = 604;
},
{
segmentType = line;
smooth = 0;
x = 655;
y = 644;
}
);
}
);
lib = {
};
name = uni0409;
unicodes = (
);
width = 906;
};
};
};
width = 906;
},
{
layerId = m002;
shapes = (
{
closed = 1;
nodes = (
(500,605,l),
(500,660,l),
(200,660,l),
(200,605,l)
);
},
{
closed = 1;
nodes = (
(245,660,l),
(105,660,l),
(105,644,l),
(185,604,l),
(185,556,ls),
(185,262,o),
(158,78,o),
(51,78,cs),
(41,78,l),
(37,74,l),
(37,19,ls),
(37,-3,o),
(41,-10,o),
(71,-10,cs),
(108,-10,o),
(154,9,o),
(189,91,cs),
(231,192,o),
(245,334,o),
(245,556,cs)
);
},
{
closed = 1;
nodes = (
(819,0,o),
(926,86,o),
(926,202,cs),
(926,314,o),
(820,388,o),
(652,388,cs),
(500,388,l),
(500,333,l),
(643,333,ls),
(772,333,o),
(829,291,o),
(829,194,cs),
(829,112,o),
(771,55,o),
(650,55,cs),
(520,55,l),
(520,0,l),
(651,0,ls)
);
},
{
closed = 1;
nodes = (
(455,660,l),
(455,56,l),
(375,16,l),
(375,0,l),
(545,0,l),
(545,604,l),
(645,644,l),
(645,660,l)
);
}
);
width = 958;
},
{
layerId = m003;
shapes = (
{
closed = 1;
nodes = (
(512,605,l),
(512,660,l),
(206,660,l),
(206,605,l)
);
},
{
closed = 1;
nodes = (
(245,660,l),
(87,660,l),
(87,644,l),
(175,602,l),
(175,520,ls),
(175,208,o),
(115,116,o),
(20,116,cs),
(11,116,l),
(5,110,l),
(5,19,ls),
(5,-3,o),
(9,-10,o),
(39,-10,cs),
(85,-10,o),
(153,2,o),
(201,101,cs),
(221,142,o),
(245,246,o),
(245,523,cs)
);
},
{
closed = 1;
nodes = (
(863,0,o),
(990,77,o),
(990,204,cs),
(990,327,o),
(863,397,o),
(691,397,cs),
(510,397,l),
(510,342,l),
(643,342,ls),
(743,342,o),
(799,295,o),
(799,201,cs),
(799,117,o),
(742,55,o),
(650,55,cs),
(510,55,l),
(510,0,l),
(691,0,ls)
);
},
{
closed = 1;
nodes = (
(412,660,l),
(412,58,l),
(323,16,l),
(323,0,l),
(602,0,l),
(602,602,l),
(711,644,l),
(711,660,l)
);
}
);
width = 1010;
}
);
unicode = 1033;
},
{
glyphname = uni040A;
kernLeft = kern_CYR_afii10055;
kernRight = kern_CYR_afii10058;
layers = (
{
layerId = m001;
shapes = (
{
closed = 1;
nodes = (
(289,0,l),
(289,25,l),
(203,42,l),
(203,618,l),
(289,635,l),
(289,660,l),
(65,660,l),
(65,635,l),
(143,618,l),
(143,42,l),
(65,25,l),
(65,0,l)
);
},
{
closed = 1;
nodes = (
(550,333,l),
(550,368,l),
(180,368,l),
(180,333,l)
);
},
{
closed = 1;
nodes = (
(838,0,o),
(929,84,o),
(929,197,cs),
(929,302,o),
(836,368,o),
(668,368,cs),
(537,368,l),
(537,333,l),
(667,333,ls),
(803,333,o),
(866,287,o),
(866,183,cs),
(866,98,o),
(802,35,o),
(671,35,cs),
(557,35,l),
(557,0,l),
(669,0,ls)
);
},
{
closed = 1;
nodes = (
(443,660,l),
(443,635,l),
(521,618,l),
(521,42,l),
(443,25,l),
(443,0,l),
(581,0,l),
(581,618,l),
(679,635,l),
(679,660,l)
);
}
);
userData = {
com.typemytype.robofont.layerData = {
"2" = {
anchors = (
);
components = (
);
contours = (
{
points = (
{
segmentType = line;
smooth = 0;
x = 65;
y = 0;
},
{
segmentType = line;
smooth = 0;
x = 315;
y = 0;
},
{
segmentType = line;
smooth = 0;
x = 315;
y = 16;
},
{
segmentType = line;
smooth = 0;
x = 235;
y = 56;
},
{
segmentType = line;
smooth = 0;
x = 235;
y = 604;
},
{
segmentType = line;
smooth = 0;
x = 315;
y = 644;
},
{
segmentType = line;
smooth = 0;
x = 315;
y = 660;
},
{
segmentType = line;
smooth = 0;
x = 65;
y = 660;
},
{
segmentType = line;
smooth = 0;
x = 65;
y = 644;
},
{
segmentType = line;
smooth = 0;
x = 145;
y = 604;
},
{
segmentType = line;
smooth = 0;
x = 145;
y = 56;
},
{
segmentType = line;
smooth = 0;
x = 65;
y = 16;
}
);
},
{
points = (
{
segmentType = line;
smooth = 0;
x = 190;
y = 323;
},
{
segmentType = line;
smooth = 0;
x = 580;
y = 323;
},
{
segmentType = line;
smooth = 0;
x = 580;
y = 378;
},
{
segmentType = line;
smooth = 0;
x = 190;
y = 378;
}
);
},
{
points = (
{
segmentType = line;
smooth = 1;
x = 731;
y = 0;
},
{
smooth = 0;
x = 899;
y = 0;
},
{
smooth = 0;
x = 1006;
y = 84;
},
{
segmentType = curve;
smooth = 1;
x = 1006;
y = 197;
},
{
smooth = 0;
x = 1006;
y = 306;
},
{
smooth = 0;
x = 900;
y = 378;
},
{
segmentType = curve;
smooth = 1;
x = 732;
y = 378;
},
{
segmentType = line;
smooth = 0;
x = 580;
y = 378;
},
{
segmentType = line;
smooth = 0;
x = 580;
y = 323;
},
{
segmentType = line;
smooth = 1;
x = 723;
y = 323;
},
{
smooth = 0;
x = 852;
y = 323;
},
{
smooth = 0;
x = 909;
y = 283;
},
{
segmentType = curve;
smooth = 1;
x = 909;
y = 189;
},
{
smooth = 0;
x = 909;
y = 110;
},
{
smooth = 0;
x = 851;
y = 55;
},
{
segmentType = curve;
smooth = 1;
x = 730;
y = 55;
},
{
segmentType = line;
smooth = 0;
x = 600;
y = 55;
},
{
segmentType = line;
smooth = 0;
x = 600;
y = 0;
}
);
},
{
points = (
{
segmentType = line;
smooth = 0;
x = 725;
y = 660;
},
{
segmentType = line;
smooth = 0;
x = 455;
y = 660;
},
{
segmentType = line;
smooth = 0;
x = 455;
y = 644;
},
{
segmentType = line;
smooth = 0;
x = 535;
y = 604;
},
{
segmentType = line;
smooth = 0;
x = 535;
y = 56;
},
{
segmentType = line;
smooth = 0;
x = 455;
y = 16;
},
{
segmentType = line;
smooth = 0;
x = 455;
y = 0;
},
{
segmentType = line;
smooth = 0;
x = 625;
y = 0;
},
{
segmentType = line;
smooth = 0;
x = 625;
y = 604;
},
{
segmentType = line;
smooth = 0;
x = 725;
y = 644;
}
);
}
);
lib = {
};
name = uni040A;
unicodes = (
);
width = 964;
};
};
};
width = 964;
},
{
layerId = m002;
shapes = (
{
closed = 1;
nodes = (
(315,0,l),
(315,16,l),
(235,56,l),
(235,604,l),
(315,644,l),
(315,660,l),
(65,660,l),
(65,644,l),
(145,604,l),
(145,56,l),
(65,16,l),
(65,0,l)
);
},
{
closed = 1;
nodes = (
(580,323,l),
(580,378,l),
(190,378,l),
(190,323,l)
);
},
{
closed = 1;
nodes = (
(899,0,o),
(1006,84,o),
(1006,197,cs),
(1006,306,o),
(900,378,o),
(732,378,cs),
(580,378,l),
(580,323,l),
(723,323,ls),
(852,323,o),
(909,283,o),
(909,189,cs),
(909,110,o),
(851,55,o),
(730,55,cs),
(600,55,l),
(600,0,l),
(731,0,ls)
);
},
{
closed = 1;
nodes = (
(455,660,l),
(455,644,l),
(535,604,l),
(535,56,l),
(455,16,l),
(455,0,l),
(625,0,l),
(625,604,l),
(725,644,l),
(725,660,l)
);
}
);
width = 1038;
},
{
layerId = m003;
shapes = (
{
closed = 1;
nodes = (
(386,0,l),
(386,16,l),
(309,58,l),
(309,602,l),
(386,644,l),
(386,660,l),
(30,660,l),
(30,644,l),
(119,602,l),
(119,58,l),
(30,16,l),
(30,0,l)
);
},
{
closed = 1;
nodes = (
(645,322,l),
(645,377,l),
(215,377,l),
(215,322,l)
);
},
{
closed = 1;
nodes = (
(996,0,o),
(1123,64,o),
(1123,191,cs),
(1123,314,o),
(996,377,o),
(824,377,cs),
(643,377,l),
(643,322,l),
(776,322,ls),
(876,322,o),
(932,282,o),
(932,188,cs),
(932,104,o),
(875,55,o),
(783,55,cs),
(643,55,l),
(643,0,l),
(824,0,ls)
);
},
{
closed = 1;
nodes = (
(456,660,l),
(456,644,l),
(545,602,l),
(545,58,l),
(456,16,l),
(456,0,l),
(735,0,l),
(735,602,l),
(844,644,l),
(844,660,l)
);
}
);
width = 1143;
}
);
unicode = 1034;
},
{
glyphname = uni040B;
kernLeft = kern_CYR_afii10051;
kernRight = kern_CYR_afii10060;
layers = (
{
layerId = m001;
shapes = (
{
closed = 1;
nodes = (
(446,0,l),
(446,25,l),
(346,42,l),
(346,625,l),
(557,625,l),
(599,478,l),
(619,478,l),
(619,660,l),
(45,660,l),
(45,478,l),
(65,478,l),
(107,625,l),
(286,625,l),
(286,42,l),
(186,25,l),
(186,0,l)
);
},
{
closed = 1;
nodes = (
(774,25,l),
(696,43,l),
(696,241,ls),
(696,339,o),
(645,390,o),
(526,390,cs),
(457,390,o),
(390,361,o),
(342,321,c),
(342,292,l),
(390,329,o),
(438,346,o),
(491,346,cs),
(592.643,346,o),
(640,310,o),
(640,212,cs),
(640,0,l),
(774,0,l)
);
}
);
userData = {
com.typemytype.robofont.layerData = {
"2" = {
anchors = (
);
components = (
);
contours = (
{
points = (
{
segmentType = line;
smooth = 0;
x = 156;
y = 0;
},
{
segmentType = line;
smooth = 0;
x = 446;
y = 0;
},
{
segmentType = line;
smooth = 0;
x = 446;
y = 16;
},
{
segmentType = line;
smooth = 0;
x = 346;
y = 56;
},
{
segmentType = line;
smooth = 0;
x = 346;
y = 605;
},
{
segmentType = line;
smooth = 0;
x = 519;
y = 605;
},
{
segmentType = line;
smooth = 0;
x = 587;
y = 458;
},
{
segmentType = line;
smooth = 0;
x = 603;
y = 458;
},
{
segmentType = line;
smooth = 0;
x = 603;
y = 660;
},
{
segmentType = line;
smooth = 0;
x = 29;
y = 660;
},
{
segmentType = line;
smooth = 0;
x = 29;
y = 458;
},
{
segmentType = line;
smooth = 0;
x = 45;
y = 458;
},
{
segmentType = line;
smooth = 0;
x = 113;
y = 605;
},
{
segmentType = line;
smooth = 0;
x = 256;
y = 605;
},
{
segmentType = line;
smooth = 0;
x = 256;
y = 56;
},
{
segmentType = line;
smooth = 0;
x = 156;
y = 16;
}
);
},
{
points = (
{
segmentType = line;
smooth = 0;
x = 780;
y = 0;
},
{
segmentType = line;
smooth = 0;
x = 780;
y = 16;
},
{
segmentType = line;
smooth = 0;
x = 700;
y = 56;
},
{
segmentType = line;
smooth = 1;
x = 700;
y = 195;
},
{
smooth = 0;
x = 700;
y = 353;
},
{
smooth = 0;
x = 624;
y = 390;
},
{
segmentType = curve;
smooth = 1;
x = 531;
y = 390;
},
{
smooth = 0;
x = 457;
y = 390;
},
{
smooth = 0;
x = 388;
y = 362;
},
{
segmentType = curve;
smooth = 0;
x = 342;
y = 316;
},
{
segmentType = line;
smooth = 0;
x = 342;
y = 272;
},
{
smooth = 0;
x = 381;
y = 302;
},
{
smooth = 0;
x = 428;
y = 316;
},
{
segmentType = curve;
smooth = 1;
x = 473;
y = 316;
},
{
smooth = 0;
x = 572;
y = 316;
},
{
smooth = 0;
x = 610;
y = 276;
},
{
segmentType = curve;
smooth = 1;
x = 610;
y = 166;
},
{
segmentType = line;
smooth = 0;
x = 610;
y = 0;
}
);
}
);
lib = {
};
name = uni040B;
unicodes = (
);
width = 804;
};
};
};
width = 804;
},
{
layerId = m002;
shapes = (
{
closed = 1;
nodes = (
(462,0,l),
(462,16,l),
(362,56,l),
(362,605,l),
(535,605,l),
(603,468,l),
(619,468,l),
(619,660,l),
(45,660,l),
(45,458,l),
(61,458,l),
(129,605,l),
(272,605,l),
(272,56,l),
(172,16,l),
(172,0,l)
);
},
{
closed = 1;
nodes = (
(796,16,l),
(716,56,l),
(716,195,ls),
(716,338,o),
(645,390,o),
(541,390,cs),
(473,390,o),
(404,362,o),
(358,316,c),
(358,272,l),
(397,302,o),
(444,316,o),
(489,316,cs),
(588,316,o),
(626,276,o),
(626,166,cs),
(626,0,l),
(796,0,l)
);
}
);
userData = {
com.typemytype.robofont.layerData = {
"2" = {
anchors = (
);
components = (
);
contours = (
{
points = (
{
segmentType = line;
smooth = 0;
x = 114;
y = 0;
},
{
segmentType = line;
smooth = 0;
x = 501;
y = 0;
},
{
segmentType = line;
smooth = 0;
x = 501;
y = 16;
},
{
segmentType = line;
smooth = 0;
x = 414;
y = 58;
},
{
segmentType = line;
smooth = 0;
x = 414;
y = 605;
},
{
segmentType = line;
smooth = 0;
x = 554;
y = 605;
},
{
segmentType = line;
smooth = 0;
x = 642;
y = 459;
},
{
segmentType = line;
smooth = 0;
x = 658;
y = 459;
},
{
segmentType = line;
smooth = 0;
x = 658;
y = 660;
},
{
segmentType = line;
smooth = 0;
x = 0;
y = 660;
},
{
segmentType = line;
smooth = 0;
x = 0;
y = 459;
},
{
segmentType = line;
smooth = 0;
x = 16;
y = 459;
},
{
segmentType = line;
smooth = 0;
x = 104;
y = 605;
},
{
segmentType = line;
smooth = 0;
x = 224;
y = 605;
},
{
segmentType = line;
smooth = 0;
x = 224;
y = 58;
},
{
segmentType = line;
smooth = 0;
x = 114;
y = 16;
}
);
},
{
points = (
{
segmentType = line;
smooth = 0;
x = 869;
y = 0;
},
{
segmentType = line;
smooth = 0;
x = 869;
y = 16;
},
{
segmentType = line;
smooth = 0;
x = 782;
y = 58;
},
{
segmentType = line;
smooth = 1;
x = 782;
y = 203;
},
{
smooth = 0;
x = 782;
y = 307;
},
{
smooth = 0;
x = 734;
y = 390;
},
{
segmentType = curve;
smooth = 1;
x = 601;
y = 390;
},
{
smooth = 0;
x = 506;
y = 390;
},
{
smooth = 0;
x = 443;
y = 350;
},
{
segmentType = curve;
smooth = 0;
x = 409;
y = 316;
},
{
segmentType = line;
smooth = 0;
x = 409;
y = 259;
},
{
smooth = 0;
x = 425;
y = 274;
},
{
smooth = 0;
x = 454;
y = 286;
},
{
segmentType = curve;
smooth = 1;
x = 496;
y = 286;
},
{
smooth = 0;
x = 569;
y = 286;
},
{
smooth = 0;
x = 592;
y = 235;
},
{
segmentType = curve;
smooth = 1;
x = 592;
y = 166;
},
{
segmentType = line;
smooth = 0;
x = 592;
y = 0;
}
);
}
);
lib = {
};
name = uni040B;
unicodes = (
);
width = 821;
};
};
};
width = 821;
},
{
layerId = m003;
shapes = (
{
closed = 1;
nodes = (
(521,0,l),
(521,16,l),
(434,58,l),
(434,605,l),
(574,605,l),
(662,469,l),
(678,469,l),
(678,660,l),
(20,660,l),
(20,459,l),
(36,459,l),
(124,605,l),
(244,605,l),
(244,58,l),
(134,16,l),
(134,0,l)
);
},
{
closed = 1;
nodes = (
(889,16,l),
(802,58,l),
(802,223,ls),
(802,327,o),
(754,410,o),
(621,410,cs),
(526,410,o),
(463,370,o),
(429,336,c),
(429,279,l),
(445,294,o),
(474,306,o),
(516,306,cs),
(589,306,o),
(612,255,o),
(612,186,cs),
(612,0,l),
(889,0,l)
);
}
);
userData = {
com.typemytype.robofont.layerData = {
background = {
anchors = (
);
components = (
);
contours = (
{
points = (
{
segmentType = line;
smooth = 0;
x = 681;
y = 0;
},
{
segmentType = line;
smooth = 1;
x = 681;
y = 233;
},
{
smooth = 0;
x = 681;
y = 345;
},
{
smooth = 0;
x = 638;
y = 409;
},
{
segmentType = curve;
smooth = 1;
x = 522;
y = 409;
},
{
smooth = 0;
x = 452;
y = 409;
},
{
smooth = 0;
x = 387;
y = 383;
},
{
segmentType = curve;
smooth = 0;
x = 362;
y = 348;
},
{
segmentType = line;
smooth = 0;
x = 349;
y = 384;
},
{
smooth = 0;
x = 379;
y = 410;
},
{
smooth = 0;
x = 426;
y = 437;
},
{
segmentType = curve;
smooth = 1;
x = 460;
y = 453;
},
{
smooth = 0;
x = 487;
y = 466;
},
{
smooth = 0;
x = 530;
y = 478;
},
{
segmentType = curve;
smooth = 1;
x = 582;
y = 478;
},
{
smooth = 0;
x = 698;
y = 478;
},
{
smooth = 0;
x = 785;
y = 439;
},
{
segmentType = curve;
smooth = 1;
x = 785;
y = 275;
},
{
segmentType = line;
smooth = 1;
x = 785;
y = 113;
},
{
smooth = 0;
x = 785;
y = 45;
},
{
smooth = 0;
x = 789;
y = 40;
},
{
segmentType = curve;
smooth = 1;
x = 842;
y = 37;
},
{
segmentType = line;
smooth = 0;
x = 879;
y = 35;
},
{
segmentType = line;
smooth = 0;
x = 879;
y = 0;
}
);
},
{
points = (
{
segmentType = line;
smooth = 0;
x = 149;
y = 0;
},
{
segmentType = line;
smooth = 0;
x = 149;
y = 35;
},
{
segmentType = line;
smooth = 1;
x = 191;
y = 36;
},
{
smooth = 0;
x = 260;
y = 38;
},
{
smooth = 0;
x = 263;
y = 40;
},
{
segmentType = curve;
smooth = 1;
x = 263;
y = 111;
},
{
segmentType = line;
smooth = 0;
x = 263;
y = 718;
},
{
segmentType = line;
smooth = 1;
x = 262;
y = 718;
},
{
smooth = 0;
x = 89;
y = 718;
},
{
smooth = 0;
x = 57;
y = 715;
},
{
segmentType = curve;
smooth = 1;
x = 29;
y = 624;
},
{
segmentType = line;
smooth = 0;
x = 15;
y = 579;
},
{
segmentType = line;
smooth = 0;
x = -12;
y = 579;
},
{
smooth = 0;
x = -12;
y = 579;
},
{
smooth = 0;
x = -1;
y = 789;
},
{
segmentType = curve;
smooth = 0;
x = -1;
y = 789;
},
{
segmentType = line;
smooth = 0;
x = 7;
y = 789;
},
{
smooth = 0;
x = 44;
y = 762;
},
{
smooth = 0;
x = 70;
y = 758;
},
{
segmentType = curve;
smooth = 1;
x = 218;
y = 758;
},
{
segmentType = line;
smooth = 1;
x = 452;
y = 758;
},
{
smooth = 0;
x = 600;
y = 758;
},
{
smooth = 0;
x = 626;
y = 762;
},
{
segmentType = curve;
smooth = 0;
x = 663;
y = 789;
},
{
segmentType = line;
smooth = 0;
x = 671;
y = 789;
},
{
smooth = 0;
x = 671;
y = 789;
},
{
smooth = 0;
x = 682;
y = 579;
},
{
segmentType = curve;
smooth = 0;
x = 682;
y = 579;
},
{
segmentType = line;
smooth = 0;
x = 655;
y = 579;
},
{
segmentType = line;
smooth = 1;
x = 641;
y = 624;
},
{
smooth = 0;
x = 613;
y = 715;
},
{
smooth = 0;
x = 581;
y = 718;
},
{
segmentType = curve;
smooth = 1;
x = 408;
y = 718;
},
{
segmentType = line;
smooth = 0;
x = 367;
y = 718;
},
{
segmentType = line;
smooth = 1;
x = 367;
y = 111;
},
{
smooth = 0;
x = 367;
y = 40;
},
{
smooth = 0;
x = 371;
y = 37;
},
{
segmentType = curve;
smooth = 1;
x = 425;
y = 36;
},
{
segmentType = line;
smooth = 0;
x = 476;
y = 35;
},
{
segmentType = line;
smooth = 0;
x = 476;
y = 0;
}
);
}
);
lib = {
};
name = uni040B;
unicodes = (
);
width = 899;
};
};
};
width = 899;
}
);
unicode = 1035;
},
{
glyphname = uni040F;
kernLeft = kern_CYR_afii10055;
kernRight = kern_CYR_afii10055;
layers = (
{
layerId = m001;
shapes = (
{
closed = 1;
nodes = (
(465,660,l),
(465,635,l),
(551,618,l),
(551,0,l),
(689,0,l),
(689,25,l),
(611,42,l),
(611,618,l),
(689,635,l),
(689,660,l)
);
},
{
closed = 1;
nodes = (
(65,660,l),
(65,635,l),
(143,618,l),
(143,42,l),
(65,25,l),
(65,0,l),
(203,0,l),
(203,618,l),
(289,635,l),
(289,660,l)
);
},
{
closed = 1;
nodes = (
(174,35,l),
(174,0,l),
(574,0,l),
(574,35,l)
);
},
{
closed = 1;
nodes = (
(367,-147,l),
(387,-147,l),
(414,0,l),
(340,0,l)
);
}
);
width = 754;
},
{
layerId = m002;
shapes = (
{
closed = 1;
nodes = (
(465,660,l),
(465,644,l),
(545,604,l),
(545,0,l),
(715,0,l),
(715,16,l),
(635,56,l),
(635,604,l),
(715,644,l),
(715,660,l)
);
},
{
closed = 1;
nodes = (
(65,660,l),
(65,644,l),
(145,604,l),
(145,56,l),
(65,16,l),
(65,0,l),
(235,0,l),
(235,604,l),
(315,644,l),
(315,660,l)
);
},
{
closed = 1;
nodes = (
(190,55,l),
(190,0,l),
(590,0,l),
(590,55,l)
);
},
{
closed = 1;
nodes = (
(382,-167,l),
(398,-167,l),
(446,0,l),
(334,0,l)
);
}
);
width = 780;
},
{
layerId = m003;
shapes = (
{
closed = 1;
nodes = (
(451,660,l),
(451,644,l),
(523,602,l),
(523,0,l),
(802,0,l),
(802,16,l),
(713,58,l),
(713,602,l),
(802,644,l),
(802,660,l)
);
},
{
closed = 1;
nodes = (
(30,660,l),
(30,644,l),
(117,602,l),
(117,58,l),
(30,16,l),
(30,0,l),
(307,0,l),
(307,602,l),
(381,644,l),
(381,660,l)
);
},
{
closed = 1;
nodes = (
(207,55,l),
(207,0,l),
(617,0,l),
(617,55,l)
);
},
{
closed = 1;
nodes = (
(408,-176,l),
(424,-176,l),
(482,0,l),
(350,0,l)
);
}
);
width = 832;
}
);
unicode = 1039;
},
{
glyphname = uni0411;
kernLeft = kern_CYR_afii10055;
kernRight = kern_CYR_afii10018;
layers = (
{
layerId = m001;
shapes = (
{
closed = 1;
nodes = (
(470,0,o),
(561,86.143,o),
(561,201,cs),
(561,307.447,o),
(468,375,o),
(300,375,cs),
(159,375,l),
(159,340,l),
(299,340,ls),
(435,340,o),
(498,292.765,o),
(498,187,cs),
(498,100.143,o),
(434,35,o),
(303,35,cs),
(179,35,l),
(179,0,l),
(301,0,ls)
);
},
{
closed = 1;
nodes = (
(65,660,l),
(65,635,l),
(143,618,l),
(143,42,l),
(65,25,l),
(65,0,l),
(203,0,l),
(203,660,l)
);
},
{
closed = 1;
nodes = (
(515,498,l),
(515,660,l),
(174,660,l),
(174,625,l),
(453,625,l),
(495,498,l)
);
}
);
userData = {
com.typemytype.robofont.layerData = {
"2" = {
anchors = (
);
components = (
{
baseGlyph = B;
transformation = (
1,
0,
0,
1,
0,
0
);
}
);
contours = (
);
lib = {
};
name = uni0411;
unicodes = (
);
width = 611;
};
};
};
width = 611;
},
{
layerId = m002;
shapes = (
{
closed = 1;
nodes = (
(509,0,o),
(616,86,o),
(616,202,cs),
(616,314,o),
(510,388,o),
(342,388,cs),
(190,388,l),
(190,333,l),
(333,333,ls),
(462,333,o),
(519,291,o),
(519,194,cs),
(519,112,o),
(461,55,o),
(340,55,cs),
(210,55,l),
(210,0,l),
(341,0,ls)
);
},
{
closed = 1;
nodes = (
(65,660,l),
(65,644,l),
(145,604,l),
(145,56,l),
(65,16,l),
(65,0,l),
(235,0,l),
(235,660,l)
);
},
{
closed = 1;
nodes = (
(559,458,l),
(559,660,l),
(169,660,l),
(224,605,l),
(475,605,l),
(543,458,l)
);
}
);
userData = {
com.typemytype.robofont.layerData = {
"2" = {
anchors = (
);
components = (
{
baseGlyph = B;
transformation = (
1,
0,
0,
1,
0,
0
);
}
);
contours = (
);
lib = {
};
name = uni0411;
unicodes = (
);
width = 668;
};
};
};
width = 668;
},
{
layerId = m003;
shapes = (
{
closed = 1;
nodes = (
(570,0,o),
(697,72,o),
(697,199,cs),
(697,322,o),
(570,377,o),
(398,377,cs),
(217,377,l),
(217,332,l),
(350,332,ls),
(450,332,o),
(506,290,o),
(506,196,cs),
(506,112,o),
(449,55,o),
(357,55,cs),
(217,55,l),
(217,0,l),
(398,0,ls)
);
},
{
closed = 1;
nodes = (
(30,660,l),
(30,644,l),
(119,602,l),
(119,58,l),
(30,16,l),
(30,0,l),
(309,0,l),
(309,660,l)
);
},
{
closed = 1;
nodes = (
(621,486,l),
(621,660,l),
(197,660,l),
(197,605,l),
(523,605,l),
(605,486,l)
);
}
);
userData = {
com.typemytype.robofont.layerData = {
"2" = {
anchors = (
);
components = (
{
baseGlyph = B;
transformation = (
1,
0,
0,
1,
0,
0
);
}
);
contours = (
);
lib = {
};
name = uni0411;
unicodes = (
);
width = 717;
};
};
};
width = 717;
}
);
unicode = 1041;
},
{
glyphname = uni0413;
kernLeft = kern_CYR_afii10055;
kernRight = kern_CYR_afii10020;
layers = (
{
layerId = m001;
shapes = (
{
closed = 1;
nodes = (
(316,0,l),
(316,25,l),
(205,42,l),
(205,660,l),
(67,660,l),
(67,635,l),
(145,618,l),
(145,42,l),
(65,25,l),
(65,0,l)
);
},
{
closed = 1;
nodes = (
(515,498,l),
(515,660,l),
(174,660,l),
(174,625,l),
(453,625,l),
(495,498,l)
);
}
);
userData = {
com.typemytype.robofont.layerData = {
"2" = {
anchors = (
{
name = top;
x = 376;
y = 710;
},
{
name = right;
x = 579;
y = 0;
},
{
name = bottom;
x = 376;
y = 0;
}
);
components = (
);
contours = (
{
points = (
{
segmentType = line;
smooth = 0;
x = 40;
y = 0;
},
{
segmentType = line;
smooth = 0;
x = 319;
y = 0;
},
{
segmentType = line;
smooth = 0;
x = 319;
y = 660;
},
{
segmentType = line;
smooth = 0;
x = 40;
y = 660;
},
{
segmentType = line;
smooth = 0;
x = 40;
y = 644;
},
{
segmentType = line;
smooth = 0;
x = 129;
y = 602;
},
{
segmentType = line;
smooth = 0;
x = 129;
y = 58;
},
{
segmentType = line;
smooth = 0;
x = 40;
y = 16;
}
);
},
{
points = (
{
segmentType = line;
smooth = 0;
x = 606;
y = 486;
},
{
segmentType = line;
smooth = 0;
x = 622;
y = 486;
},
{
segmentType = line;
smooth = 0;
x = 622;
y = 660;
},
{
segmentType = line;
smooth = 0;
x = 217;
y = 660;
},
{
segmentType = line;
smooth = 0;
x = 217;
y = 605;
},
{
segmentType = line;
smooth = 0;
x = 524;
y = 605;
}
);
},
{
points = (
{
segmentType = line;
smooth = 0;
x = 523;
y = 227;
},
{
segmentType = line;
smooth = 0;
x = 539;
y = 227;
},
{
segmentType = line;
smooth = 0;
x = 539;
y = 456;
},
{
segmentType = line;
smooth = 0;
x = 523;
y = 456;
},
{
segmentType = line;
smooth = 0;
x = 463;
y = 368;
},
{
segmentType = line;
smooth = 0;
x = 225;
y = 368;
},
{
segmentType = line;
smooth = 0;
x = 225;
y = 313;
},
{
segmentType = line;
smooth = 0;
x = 463;
y = 313;
}
);
},
{
points = (
{
segmentType = line;
smooth = 0;
x = 650;
y = 0;
},
{
segmentType = line;
smooth = 0;
x = 650;
y = 219;
},
{
segmentType = line;
smooth = 0;
x = 634;
y = 219;
},
{
segmentType = line;
smooth = 0;
x = 545;
y = 55;
},
{
segmentType = line;
smooth = 0;
x = 245;
y = 55;
},
{
segmentType = line;
smooth = 0;
x = 245;
y = 0;
}
);
},
{
points = (
{
segmentType = line;
smooth = 0;
x = 65;
y = 0;
},
{
segmentType = line;
smooth = 0;
x = 296;
y = 0;
},
{
segmentType = line;
smooth = 0;
x = 296;
y = 25;
},
{
segmentType = line;
smooth = 0;
x = 205;
y = 42;
},
{
segmentType = line;
smooth = 0;
x = 205;
y = 660;
},
{
segmentType = line;
smooth = 0;
x = 67;
y = 660;
},
{
segmentType = line;
smooth = 0;
x = 67;
y = 635;
},
{
segmentType = line;
smooth = 0;
x = 145;
y = 618;
},
{
segmentType = line;
smooth = 0;
x = 145;
y = 42;
},
{
segmentType = line;
smooth = 0;
x = 65;
y = 25;
}
);
},
{
points = (
{
segmentType = line;
smooth = 0;
x = 495;
y = 498;
},
{
segmentType = line;
smooth = 0;
x = 515;
y = 498;
},
{
segmentType = line;
smooth = 0;
x = 515;
y = 660;
},
{
segmentType = line;
smooth = 0;
x = 174;
y = 660;
},
{
segmentType = line;
smooth = 0;
x = 174;
y = 625;
},
{
segmentType = line;
smooth = 0;
x = 453;
y = 625;
}
);
},
{
points = (
{
segmentType = line;
smooth = 0;
x = 412;
y = 242;
},
{
segmentType = line;
smooth = 0;
x = 432;
y = 242;
},
{
segmentType = line;
smooth = 0;
x = 432;
y = 441;
},
{
segmentType = line;
smooth = 0;
x = 412;
y = 441;
},
{
segmentType = line;
smooth = 0;
x = 387;
y = 358;
},
{
segmentType = line;
smooth = 0;
x = 174;
y = 358;
},
{
segmentType = line;
smooth = 0;
x = 174;
y = 323;
},
{
segmentType = line;
smooth = 0;
x = 387;
y = 323;
}
);
}
);
lib = {
com.typemytype.robofont.layerData = {
};
};
name = uni0413;
unicodes = (
);
width = 585;
};
};
};
width = 585;
},
{
layerId = m002;
shapes = (
{
closed = 1;
nodes = (
(325,0,l),
(325,16,l),
(235,56,l),
(235,660,l),
(65,660,l),
(65,644,l),
(145,604,l),
(145,56,l),
(65,16,l),
(65,0,l)
);
},
{
closed = 1;
nodes = (
(544,488,l),
(544,660,l),
(172,660,l),
(172,605,l),
(466,605,l),
(528,488,l)
);
}
);
userData = {
com.typemytype.robofont.layerData = {
"2" = {
anchors = (
{
name = top;
x = 376;
y = 710;
},
{
name = right;
x = 579;
y = 0;
},
{
name = bottom;
x = 376;
y = 0;
}
);
components = (
);
contours = (
{
points = (
{
segmentType = line;
smooth = 0;
x = 40;
y = 0;
},
{
segmentType = line;
smooth = 0;
x = 319;
y = 0;
},
{
segmentType = line;
smooth = 0;
x = 319;
y = 660;
},
{
segmentType = line;
smooth = 0;
x = 40;
y = 660;
},
{
segmentType = line;
smooth = 0;
x = 40;
y = 644;
},
{
segmentType = line;
smooth = 0;
x = 129;
y = 602;
},
{
segmentType = line;
smooth = 0;
x = 129;
y = 58;
},
{
segmentType = line;
smooth = 0;
x = 40;
y = 16;
}
);
},
{
points = (
{
segmentType = line;
smooth = 0;
x = 606;
y = 486;
},
{
segmentType = line;
smooth = 0;
x = 622;
y = 486;
},
{
segmentType = line;
smooth = 0;
x = 622;
y = 660;
},
{
segmentType = line;
smooth = 0;
x = 217;
y = 660;
},
{
segmentType = line;
smooth = 0;
x = 217;
y = 605;
},
{
segmentType = line;
smooth = 0;
x = 524;
y = 605;
}
);
},
{
points = (
{
segmentType = line;
smooth = 0;
x = 523;
y = 227;
},
{
segmentType = line;
smooth = 0;
x = 539;
y = 227;
},
{
segmentType = line;
smooth = 0;
x = 539;
y = 456;
},
{
segmentType = line;
smooth = 0;
x = 523;
y = 456;
},
{
segmentType = line;
smooth = 0;
x = 463;
y = 368;
},
{
segmentType = line;
smooth = 0;
x = 225;
y = 368;
},
{
segmentType = line;
smooth = 0;
x = 225;
y = 313;
},
{
segmentType = line;
smooth = 0;
x = 463;
y = 313;
}
);
},
{
points = (
{
segmentType = line;
smooth = 0;
x = 650;
y = 0;
},
{
segmentType = line;
smooth = 0;
x = 650;
y = 219;
},
{
segmentType = line;
smooth = 0;
x = 634;
y = 219;
},
{
segmentType = line;
smooth = 0;
x = 545;
y = 55;
},
{
segmentType = line;
smooth = 0;
x = 245;
y = 55;
},
{
segmentType = line;
smooth = 0;
x = 245;
y = 0;
}
);
},
{
points = (
{
segmentType = line;
smooth = 0;
x = 65;
y = 0;
},
{
segmentType = line;
smooth = 0;
x = 325;
y = 0;
},
{
segmentType = line;
smooth = 0;
x = 325;
y = 16;
},
{
segmentType = line;
smooth = 0;
x = 235;
y = 56;
},
{
segmentType = line;
smooth = 0;
x = 235;
y = 660;
},
{
segmentType = line;
smooth = 0;
x = 65;
y = 660;
},
{
segmentType = line;
smooth = 0;
x = 65;
y = 644;
},
{
segmentType = line;
smooth = 0;
x = 145;
y = 604;
},
{
segmentType = line;
smooth = 0;
x = 145;
y = 56;
},
{
segmentType = line;
smooth = 0;
x = 65;
y = 16;
}
);
},
{
points = (
{
segmentType = line;
smooth = 0;
x = 528;
y = 488;
},
{
segmentType = line;
smooth = 0;
x = 544;
y = 488;
},
{
segmentType = line;
smooth = 0;
x = 544;
y = 660;
},
{
segmentType = line;
smooth = 0;
x = 172;
y = 660;
},
{
segmentType = line;
smooth = 0;
x = 172;
y = 605;
},
{
segmentType = line;
smooth = 0;
x = 466;
y = 605;
}
);
},
{
points = (
{
segmentType = line;
smooth = 0;
x = 445;
y = 232;
},
{
segmentType = line;
smooth = 0;
x = 461;
y = 232;
},
{
segmentType = line;
smooth = 0;
x = 461;
y = 451;
},
{
segmentType = line;
smooth = 0;
x = 445;
y = 451;
},
{
segmentType = line;
smooth = 0;
x = 395;
y = 368;
},
{
segmentType = line;
smooth = 0;
x = 180;
y = 368;
},
{
segmentType = line;
smooth = 0;
x = 180;
y = 313;
},
{
segmentType = line;
smooth = 0;
x = 395;
y = 313;
}
);
}
);
lib = {
com.typemytype.robofont.layerData = {
};
};
name = uni0413;
unicodes = (
);
width = 594;
};
};
};
width = 594;
},
{
layerId = m003;
shapes = (
{
closed = 1;
nodes = (
(419,0,l),
(419,16,l),
(309,58,l),
(309,660,l),
(30,660,l),
(30,644,l),
(119,602,l),
(119,58,l),
(30,16,l),
(30,0,l)
);
},
{
closed = 1;
nodes = (
(602,486,l),
(602,660,l),
(207,660,l),
(207,605,l),
(504,605,l),
(586,486,l)
);
}
);
userData = {
com.typemytype.robofont.layerData = {
"2" = {
anchors = (
{
name = top;
x = 376;
y = 710;
},
{
name = right;
x = 579;
y = 0;
},
{
name = bottom;
x = 376;
y = 0;
}
);
components = (
);
contours = (
{
points = (
{
segmentType = line;
smooth = 0;
x = 40;
y = 0;
},
{
segmentType = line;
smooth = 0;
x = 319;
y = 0;
},
{
segmentType = line;
smooth = 0;
x = 319;
y = 660;
},
{
segmentType = line;
smooth = 0;
x = 40;
y = 660;
},
{
segmentType = line;
smooth = 0;
x = 40;
y = 644;
},
{
segmentType = line;
smooth = 0;
x = 129;
y = 602;
},
{
segmentType = line;
smooth = 0;
x = 129;
y = 58;
},
{
segmentType = line;
smooth = 0;
x = 40;
y = 16;
}
);
},
{
points = (
{
segmentType = line;
smooth = 0;
x = 606;
y = 486;
},
{
segmentType = line;
smooth = 0;
x = 622;
y = 486;
},
{
segmentType = line;
smooth = 0;
x = 622;
y = 660;
},
{
segmentType = line;
smooth = 0;
x = 217;
y = 660;
},
{
segmentType = line;
smooth = 0;
x = 217;
y = 605;
},
{
segmentType = line;
smooth = 0;
x = 524;
y = 605;
}
);
},
{
points = (
{
segmentType = line;
smooth = 0;
x = 523;
y = 227;
},
{
segmentType = line;
smooth = 0;
x = 539;
y = 227;
},
{
segmentType = line;
smooth = 0;
x = 539;
y = 456;
},
{
segmentType = line;
smooth = 0;
x = 523;
y = 456;
},
{
segmentType = line;
smooth = 0;
x = 463;
y = 368;
},
{
segmentType = line;
smooth = 0;
x = 225;
y = 368;
},
{
segmentType = line;
smooth = 0;
x = 225;
y = 313;
},
{
segmentType = line;
smooth = 0;
x = 463;
y = 313;
}
);
},
{
points = (
{
segmentType = line;
smooth = 0;
x = 650;
y = 0;
},
{
segmentType = line;
smooth = 0;
x = 650;
y = 219;
},
{
segmentType = line;
smooth = 0;
x = 634;
y = 219;
},
{
segmentType = line;
smooth = 0;
x = 545;
y = 55;
},
{
segmentType = line;
smooth = 0;
x = 245;
y = 55;
},
{
segmentType = line;
smooth = 0;
x = 245;
y = 0;
}
);
},
{
points = (
{
segmentType = line;
smooth = 0;
x = 30;
y = 0;
},
{
segmentType = line;
smooth = 0;
x = 419;
y = 0;
},
{
segmentType = line;
smooth = 0;
x = 419;
y = 16;
},
{
segmentType = line;
smooth = 0;
x = 309;
y = 58;
},
{
segmentType = line;
smooth = 0;
x = 309;
y = 660;
},
{
segmentType = line;
smooth = 0;
x = 30;
y = 660;
},
{
segmentType = line;
smooth = 0;
x = 30;
y = 644;
},
{
segmentType = line;
smooth = 0;
x = 119;
y = 602;
},
{
segmentType = line;
smooth = 0;
x = 119;
y = 58;
},
{
segmentType = line;
smooth = 0;
x = 30;
y = 16;
}
);
},
{
points = (
{
segmentType = line;
smooth = 0;
x = 586;
y = 486;
},
{
segmentType = line;
smooth = 0;
x = 602;
y = 486;
},
{
segmentType = line;
smooth = 0;
x = 602;
y = 660;
},
{
segmentType = line;
smooth = 0;
x = 207;
y = 660;
},
{
segmentType = line;
smooth = 0;
x = 207;
y = 605;
},
{
segmentType = line;
smooth = 0;
x = 514;
y = 605;
}
);
},
{
points = (
{
segmentType = line;
smooth = 0;
x = 503;
y = 232;
},
{
segmentType = line;
smooth = 0;
x = 519;
y = 232;
},
{
segmentType = line;
smooth = 0;
x = 519;
y = 451;
},
{
segmentType = line;
smooth = 0;
x = 503;
y = 451;
},
{
segmentType = line;
smooth = 0;
x = 443;
y = 363;
},
{
segmentType = line;
smooth = 0;
x = 215;
y = 363;
},
{
segmentType = line;
smooth = 0;
x = 215;
y = 318;
},
{
segmentType = line;
smooth = 0;
x = 443;
y = 318;
}
);
}
);
lib = {
com.typemytype.robofont.layerData = {
};
};
name = uni0413;
unicodes = (
);
width = 632;
};
};
};
width = 632;
}
);
unicode = 1043;
},
{
glyphname = uni0492;
kernRight = kern_CYR_afii10020;
layers = (
{
layerId = m001;
shapes = (
{
closed = 1;
nodes = (
(372,324,l),
(372,359,l),
(65,359,l),
(65,324,l)
);
},
{
closed = 1;
nodes = (
(316,0,l),
(316,25,l),
(205,42,l),
(205,660,l),
(67,660,l),
(67,635,l),
(145,618,l),
(145,42,l),
(65,25,l),
(65,0,l)
);
},
{
closed = 1;
nodes = (
(515,498,l),
(515,660,l),
(174,660,l),
(174,625,l),
(453,625,l),
(495,498,l)
);
}
);
width = 585;
},
{
layerId = m002;
shapes = (
{
closed = 1;
nodes = (
(410,317,l),
(410,367,l),
(65,367,l),
(65,317,l)
);
},
{
closed = 1;
nodes = (
(325,0,l),
(325,16,l),
(235,56,l),
(235,660,l),
(65,660,l),
(65,644,l),
(145,604,l),
(145,56,l),
(65,16,l),
(65,0,l)
);
},
{
closed = 1;
nodes = (
(544,488,l),
(544,660,l),
(172,660,l),
(172,605,l),
(466,605,l),
(528,488,l)
);
}
);
width = 594;
},
{
layerId = m003;
shapes = (
{
closed = 1;
nodes = (
(472,315,l),
(472,370,l),
(30,370,l),
(30,315,l)
);
},
{
closed = 1;
nodes = (
(419,0,l),
(419,16,l),
(309,58,l),
(309,660,l),
(30,660,l),
(30,644,l),
(119,602,l),
(119,58,l),
(30,16,l),
(30,0,l)
);
},
{
closed = 1;
nodes = (
(602,486,l),
(602,660,l),
(207,660,l),
(207,605,l),
(504,605,l),
(586,486,l)
);
}
);
width = 632;
}
);
unicode = 1170;
},
{
glyphname = uni0414;
kernRight = kern_CYR_afii10021;
layers = (
{
layerId = m001;
shapes = (
{
closed = 1;
nodes = (
(530,625,l),
(530,660,l),
(200,660,l),
(200,625,l)
);
},
{
closed = 1;
nodes = (
(208,196,o),
(225,380,o),
(225,550,cs),
(225,660,l),
(105,660,l),
(105,635,l),
(183,618,l),
(183,551,ls),
(183,387.813,o),
(168,197,o),
(98,35,c),
(145,35,l)
);
},
{
closed = 1;
nodes = (
(20,35,l),
(20,-147,l),
(40,-147,l),
(82,0,l),
(607,0,l),
(649,-147,l),
(669,-147,l),
(669,35,l),
(561,35,l),
(561,618,l),
(639,635,l),
(639,660,l),
(501,660,l),
(501,35,l)
);
}
);
userData = {
com.typemytype.robofont.layerData = {
"2" = {
anchors = (
);
components = (
);
contours = (
{
points = (
{
segmentType = line;
smooth = 0;
x = 140;
y = 605;
},
{
segmentType = line;
smooth = 0;
x = 480;
y = 605;
},
{
segmentType = line;
smooth = 0;
x = 480;
y = 660;
},
{
segmentType = line;
smooth = 0;
x = 140;
y = 660;
}
);
},
{
points = (
{
segmentType = line;
smooth = 0;
x = 109;
y = 41;
},
{
smooth = 0;
x = 166;
y = 186;
},
{
smooth = 0;
x = 185;
y = 331;
},
{
segmentType = curve;
smooth = 1;
x = 185;
y = 556;
},
{
segmentType = line;
smooth = 0;
x = 185;
y = 660;
},
{
segmentType = line;
smooth = 0;
x = 45;
y = 660;
},
{
segmentType = line;
smooth = 0;
x = 45;
y = 644;
},
{
segmentType = line;
smooth = 0;
x = 125;
y = 604;
},
{
segmentType = line;
smooth = 1;
x = 125;
y = 556;
},
{
smooth = 0;
x = 125;
y = 333;
},
{
smooth = 0;
x = 105;
y = 186;
},
{
segmentType = curve;
smooth = 0;
x = 44;
y = 41;
}
);
},
{
points = (
{
segmentType = line;
smooth = 0;
x = 435;
y = 55;
},
{
segmentType = line;
smooth = 0;
x = -25;
y = 55;
},
{
segmentType = line;
smooth = 0;
x = -25;
y = -167;
},
{
segmentType = line;
smooth = 0;
x = -9;
y = -167;
},
{
segmentType = line;
smooth = 0;
x = 69;
y = 0;
},
{
segmentType = line;
smooth = 0;
x = 525;
y = 0;
},
{
segmentType = line;
smooth = 0;
x = 603;
y = -167;
},
{
segmentType = line;
smooth = 0;
x = 619;
y = -167;
},
{
segmentType = line;
smooth = 0;
x = 619;
y = 55;
},
{
segmentType = line;
smooth = 0;
x = 525;
y = 55;
},
{
segmentType = line;
smooth = 0;
x = 525;
y = 604;
},
{
segmentType = line;
smooth = 0;
x = 605;
y = 644;
},
{
segmentType = line;
smooth = 0;
x = 605;
y = 660;
},
{
segmentType = line;
smooth = 0;
x = 435;
y = 660;
}
);
}
);
lib = {
};
name = uni0414;
unicodes = (
);
width = 704;
};
};
};
width = 704;
},
{
layerId = m002;
shapes = (
{
closed = 1;
nodes = (
(530,605,l),
(530,660,l),
(190,660,l),
(190,605,l)
);
},
{
closed = 1;
nodes = (
(216,186,o),
(235,331,o),
(235,556,cs),
(235,660,l),
(95,660,l),
(95,644,l),
(175,604,l),
(175,556,ls),
(175,333,o),
(155,186,o),
(94,41,c),
(159,41,l)
);
},
{
closed = 1;
nodes = (
(25,55,l),
(25,-167,l),
(41,-167,l),
(119,0,l),
(575,0,l),
(653,-167,l),
(669,-167,l),
(669,55,l),
(575,55,l),
(575,604,l),
(655,644,l),
(655,660,l),
(485,660,l),
(485,55,l)
);
}
);
userData = {
com.typemytype.robofont.layerData = {
"2" = {
anchors = (
);
components = (
);
contours = (
{
points = (
{
segmentType = line;
smooth = 0;
x = 205;
y = 605;
},
{
segmentType = line;
smooth = 0;
x = 521;
y = 605;
},
{
segmentType = line;
smooth = 0;
x = 521;
y = 660;
},
{
segmentType = line;
smooth = 0;
x = 205;
y = 660;
}
);
},
{
points = (
{
segmentType = line;
smooth = 0;
x = 173;
y = 48;
},
{
smooth = 0;
x = 233;
y = 224;
},
{
smooth = 0;
x = 244;
y = 383;
},
{
segmentType = curve;
smooth = 1;
x = 244;
y = 593;
},
{
segmentType = line;
smooth = 0;
x = 244;
y = 660;
},
{
segmentType = line;
smooth = 0;
x = 86;
y = 660;
},
{
segmentType = line;
smooth = 0;
x = 86;
y = 644;
},
{
segmentType = line;
smooth = 0;
x = 174;
y = 602;
},
{
segmentType = line;
smooth = 1;
x = 174;
y = 590;
},
{
smooth = 0;
x = 174;
y = 391;
},
{
smooth = 0;
x = 165;
y = 223;
},
{
segmentType = curve;
smooth = 0;
x = 94;
y = 48;
}
);
},
{
points = (
{
segmentType = line;
smooth = 0;
x = 421;
y = 55;
},
{
segmentType = line;
smooth = 0;
x = 10;
y = 55;
},
{
segmentType = line;
smooth = 0;
x = 10;
y = -176;
},
{
segmentType = line;
smooth = 0;
x = 26;
y = -176;
},
{
segmentType = line;
smooth = 0;
x = 134;
y = 0;
},
{
segmentType = line;
smooth = 0;
x = 589;
y = 0;
},
{
segmentType = line;
smooth = 0;
x = 697;
y = -176;
},
{
segmentType = line;
smooth = 0;
x = 713;
y = -176;
},
{
segmentType = line;
smooth = 0;
x = 713;
y = 55;
},
{
segmentType = line;
smooth = 0;
x = 611;
y = 55;
},
{
segmentType = line;
smooth = 0;
x = 611;
y = 602;
},
{
segmentType = line;
smooth = 0;
x = 698;
y = 644;
},
{
segmentType = line;
smooth = 0;
x = 698;
y = 660;
},
{
segmentType = line;
smooth = 0;
x = 421;
y = 660;
}
);
}
);
lib = {
};
name = uni0414;
unicodes = (
);
width = 724;
};
};
};
width = 724;
},
{
layerId = m003;
shapes = (
{
closed = 1;
nodes = (
(521,605,l),
(521,660,l),
(205,660,l),
(205,605,l)
);
},
{
closed = 1;
nodes = (
(233,224,o),
(244,383,o),
(244,593,cs),
(244,660,l),
(86,660,l),
(86,644,l),
(174,602,l),
(174,590,ls),
(174,391,o),
(165,223,o),
(94,48,c),
(173,48,l)
);
},
{
closed = 1;
nodes = (
(10,55,l),
(10,-176,l),
(26,-176,l),
(134,0,l),
(589,0,l),
(697,-176,l),
(713,-176,l),
(713,55,l),
(611,55,l),
(611,602,l),
(698,644,l),
(698,660,l),
(421,660,l),
(421,55,l)
);
}
);
width = 743;
}
);
unicode = 1044;
},
{
glyphname = uni0416;
kernLeft = kern_CYR_afii10024;
kernRight = kern_CYR_afii10024;
layers = (
{
layerId = m001;
shapes = (
{
closed = 1;
nodes = (
(606,0,l),
(606,25,l),
(526,42,l),
(526,618,l),
(606,635,l),
(606,660,l),
(386,660,l),
(386,635,l),
(466,618,l),
(466,42,l),
(386,25,l),
(386,0,l)
);
},
{
closed = 1;
nodes = (
(855,0,l),
(969,0,l),
(969,25,l),
(868,43,l),
(922,18,l),
(565,373,l),
(562,337,l),
(888,632,l),
(862,620,l),
(937,635,l),
(937,660,l),
(739,660,l),
(739,635,l),
(838,611,l),
(832,632,l),
(521,338,l)
);
},
{
closed = 1;
nodes = (
(160,632,l),
(154,611,l),
(253,635,l),
(253,660,l),
(48,660,l),
(48,635,l),
(123,620,l),
(97,632,l),
(423,337,l),
(431,373,l),
(74,18,l),
(126,43,l),
(25,25,l),
(25,0,l),
(137,0,l),
(471,338,l)
);
}
);
width = 994;
},
{
layerId = m002;
shapes = (
{
closed = 1;
nodes = (
(624,0,l),
(624,16,l),
(544,56,l),
(544,604,l),
(624,644,l),
(624,660,l),
(374,660,l),
(374,644,l),
(454,604,l),
(454,56,l),
(374,16,l),
(374,0,l)
);
},
{
closed = 1;
nodes = (
(849,0,l),
(993,0,l),
(993,16,l),
(893,59,l),
(943,31,l),
(612,386,l),
(612,338,l),
(907,638,l),
(867,611,l),
(961,644,l),
(961,660,l),
(741,660,l),
(741,644,l),
(829,602,l),
(829,627,l),
(545,338,l)
);
},
{
closed = 1;
nodes = (
(169,627,l),
(169,602,l),
(257,644,l),
(257,660,l),
(31,660,l),
(31,644,l),
(125,611,l),
(85,638,l),
(380,338,l),
(391,386,l),
(65,31,l),
(115,59,l),
(15,16,l),
(15,0,l),
(149,0,l),
(453,338,l)
);
}
);
width = 1008;
},
{
layerId = m003;
shapes = (
{
closed = 1;
nodes = (
(750,0,l),
(750,16,l),
(671,58,l),
(671,602,l),
(750,644,l),
(750,660,l),
(402,660,l),
(402,644,l),
(481,602,l),
(481,58,l),
(402,16,l),
(402,0,l)
);
},
{
closed = 1;
nodes = (
(880,0,l),
(1148,0,l),
(1148,16,l),
(1039,61,l),
(1085,29,l),
(829,428,l),
(750,330,l),
(1040,632,l),
(980,591,l),
(1099,644,l),
(1099,660,l),
(847,660,l),
(847,644,l),
(955,591,l),
(949,632,l),
(671,330,l)
);
},
{
closed = 1;
nodes = (
(203,632,l),
(197,591,l),
(305,644,l),
(305,660,l),
(48,660,l),
(48,644,l),
(167,591,l),
(103,632,l),
(393,330,l),
(333,428,l),
(77,29,l),
(113,61,l),
(4,16,l),
(4,0,l),
(272,0,l),
(481,330,l)
);
}
);
width = 1152;
}
);
unicode = 1046;
},
{
glyphname = uni0417;
kernLeft = kern_CYR_afii10025;
kernRight = kern_CYR_afii10019;
layers = (
{
layerId = m001;
shapes = (
{
closed = 1;
nodes = (
(207.772,670,o),
(161.786,645.934,o),
(110,621,c),
(105,466,l),
(126,466,l),
(175,608,l),
(141,562,l),
(193,617,o),
(243.313,639,o),
(294,639,cs),
(383,639,o),
(441,590,o),
(441,507,cs),
(441,408,o),
(375,358,o),
(280,358,cs),
(199,358,l),
(199,323,l),
(312,323,ls),
(416.419,323,o),
(478,275,o),
(478,177,cs),
(478,84,o),
(417.685,22,o),
(299,22,cs),
(225.235,22,o),
(179.288,46.865,o),
(134,78,c),
(168,41,l),
(105,188,l),
(85,188,l),
(94,39,l),
(148.839,11.581,o),
(198.452,-10,o),
(299,-10,cs),
(451.842,-10,o),
(541,72,o),
(541,183,cs),
(541,287,o),
(451.633,351,o),
(295,351,c),
(287,336,l),
(426,336,o),
(503,421,o),
(503,512,cs),
(503,620,o),
(408,670,o),
(297,670,cs)
);
}
);
width = 606;
},
{
layerId = m002;
shapes = (
{
closed = 1;
nodes = (
(223,670,o),
(170,652,o),
(115,625,c),
(110,450,l),
(128,450,l),
(204,602,l),
(168,557,l),
(217,608,o),
(258,620,o),
(319,620,cs),
(409,620,o),
(447,569,o),
(447,489,cs),
(447,416,o),
(389.517,368,o),
(292,368,cs),
(221,368,l),
(221,313,l),
(311,313,ls),
(427,313,o),
(485,270,o),
(485,181,cs),
(485,104,o),
(431,45,o),
(321,45,cs),
(224,45,o),
(187,77,o),
(146,106,c),
(184,62,l),
(107,198,l),
(90,198,l),
(101,39,l),
(158,11,o),
(217,-10,o),
(322,-10,cs),
(479,-10,o),
(582,78,o),
(582,189,cs),
(582,290.983,o),
(489,358,o),
(337,358,c),
(329,343,l),
(466,343,o),
(544,428.456,o),
(544,517,cs),
(544,616,o),
(446,670,o),
(323,670,cs)
);
}
);
width = 649;
},
{
layerId = m003;
shapes = (
{
closed = 1;
nodes = (
(203.521,670,o),
(150.625,653.334,o),
(92,622,c),
(77,428,l),
(95,428,l),
(221,615,l),
(192,591,l),
(220.756,609.486,o),
(236.633,620,o),
(274,620,cs),
(346.991,620,o),
(384,575,o),
(384,496,cs),
(384,415,o),
(335,368,o),
(249,368,cs),
(190,368,l),
(190,313,l),
(254,313,ls),
(363,313,o),
(417,273,o),
(417,187,cs),
(417,94,o),
(362.183,45,o),
(278,45,cs),
(237.041,45,o),
(200.356,51.487,o),
(160,82,c),
(206,51,l),
(73,219,l),
(55,219,l),
(72,44,l),
(123.014,10.312,o),
(213.143,-10,o),
(300,-10,cs),
(482.28,-10,o),
(618,73,o),
(618,196,cs),
(618,296,o),
(503.245,363,o),
(324,363,c),
(324,348,l),
(481.631,348,o),
(574,429,o),
(574,519,cs),
(574,620,o),
(456.656,670,o),
(312,670,cs)
);
}
);
width = 648;
}
);
unicode = 1047;
},
{
glyphname = uni0418;
kernLeft = kern_CYR_afii10055;
kernRight = kern_CYR_afii10055;
layers = (
{
layerId = m001;
shapes = (
{
closed = 1;
nodes = (
(289,0,l),
(289,25,l),
(203,42,l),
(203,618,l),
(289,635,l),
(289,660,l),
(65,660,l),
(65,635,l),
(143,618,l),
(143,42,l),
(65,25,l),
(65,0,l)
);
},
{
closed = 1;
nodes = (
(610,543,l),
(610,598,l),
(190,128,l),
(190,73,l)
);
},
{
closed = 1;
nodes = (
(729,0,l),
(729,25,l),
(651,42,l),
(651,618,l),
(729,635,l),
(729,660,l),
(505,660,l),
(505,635,l),
(591,618,l),
(591,42,l),
(505,25,l),
(505,0,l)
);
}
);
width = 794;
},
{
layerId = m002;
shapes = (
{
closed = 1;
nodes = (
(315,0,l),
(315,16,l),
(235,56,l),
(235,604,l),
(315,644,l),
(315,660,l),
(65,660,l),
(65,644,l),
(145,604,l),
(145,56,l),
(65,16,l),
(65,0,l)
);
},
{
closed = 1;
nodes = (
(590,498,l),
(590,568,l),
(230,153,l),
(230,83,l)
);
},
{
closed = 1;
nodes = (
(755,0,l),
(755,16,l),
(675,56,l),
(675,604,l),
(755,644,l),
(755,660,l),
(505,660,l),
(505,644,l),
(585,604,l),
(585,56,l),
(505,16,l),
(505,0,l)
);
}
);
width = 820;
},
{
layerId = m003;
shapes = (
{
closed = 1;
nodes = (
(386,0,l),
(386,16,l),
(309,58,l),
(309,602,l),
(386,644,l),
(386,660,l),
(30,660,l),
(30,644,l),
(119,602,l),
(119,58,l),
(30,16,l),
(30,0,l)
);
},
{
closed = 1;
nodes = (
(560,473,l),
(560,563,l),
(285,165,l),
(285,75,l)
);
},
{
closed = 1;
nodes = (
(832,0,l),
(832,16,l),
(745,58,l),
(745,602,l),
(832,644,l),
(832,660,l),
(476,660,l),
(476,644,l),
(555,602,l),
(555,58,l),
(476,16,l),
(476,0,l)
);
}
);
width = 862;
}
);
unicode = 1048;
},
{
glyphname = uni041B;
kernLeft = kern_CYR_afii10058;
kernRight = kern_CYR_afii10055;
layers = (
{
layerId = m001;
shapes = (
{
closed = 1;
nodes = (
(523,625,l),
(523,660,l),
(203,660,l),
(203,625,l)
);
},
{
closed = 1;
nodes = (
(632,0,l),
(632,25,l),
(554,42,l),
(554,618,l),
(632,635,l),
(632,660,l),
(494,660,l),
(494,42,l),
(408,25,l),
(408,0,l)
);
},
{
closed = 1;
nodes = (
(226,660,l),
(108,660,l),
(108,635,l),
(186,618,l),
(186,574,ls),
(186,250,o),
(157,57,o),
(41,57,cs),
(36,57,l),
(30,51,l),
(30,19,ls),
(30,-3,o),
(34,-10,o),
(62,-10,cs),
(103,-10,o),
(142,21,o),
(168,77,cs),
(208,164,o),
(226,352,o),
(226,575,cs)
);
}
);
userData = {
com.typemytype.robofont.layerData = {
"2" = {
anchors = (
);
components = (
);
contours = (
{
points = (
{
segmentType = line;
smooth = 0;
x = 210;
y = 605;
},
{
segmentType = line;
smooth = 0;
x = 540;
y = 605;
},
{
segmentType = line;
smooth = 0;
x = 540;
y = 660;
},
{
segmentType = line;
smooth = 0;
x = 210;
y = 660;
}
);
},
{
points = (
{
segmentType = line;
smooth = 0;
x = 415;
y = 0;
},
{
segmentType = line;
smooth = 0;
x = 665;
y = 0;
},
{
segmentType = line;
smooth = 0;
x = 665;
y = 16;
},
{
segmentType = line;
smooth = 0;
x = 585;
y = 56;
},
{
segmentType = line;
smooth = 0;
x = 585;
y = 604;
},
{
segmentType = line;
smooth = 0;
x = 665;
y = 644;
},
{
segmentType = line;
smooth = 0;
x = 665;
y = 660;
},
{
segmentType = line;
smooth = 0;
x = 495;
y = 660;
},
{
segmentType = line;
smooth = 0;
x = 495;
y = 56;
},
{
segmentType = line;
smooth = 0;
x = 415;
y = 16;
}
);
},
{
points = (
{
segmentType = curve;
smooth = 1;
x = 255;
y = 556;
},
{
segmentType = line;
smooth = 0;
x = 255;
y = 660;
},
{
segmentType = line;
smooth = 0;
x = 115;
y = 660;
},
{
segmentType = line;
smooth = 0;
x = 115;
y = 644;
},
{
segmentType = line;
smooth = 0;
x = 195;
y = 604;
},
{
segmentType = line;
smooth = 1;
x = 195;
y = 556;
},
{
smooth = 0;
x = 195;
y = 262;
},
{
smooth = 0;
x = 168;
y = 78;
},
{
segmentType = curve;
smooth = 1;
x = 61;
y = 78;
},
{
segmentType = line;
smooth = 0;
x = 51;
y = 78;
},
{
segmentType = line;
smooth = 0;
x = 47;
y = 74;
},
{
segmentType = line;
smooth = 1;
x = 47;
y = 19;
},
{
smooth = 0;
x = 47;
y = -3;
},
{
smooth = 0;
x = 51;
y = -10;
},
{
segmentType = curve;
smooth = 1;
x = 81;
y = -10;
},
{
smooth = 0;
x = 118;
y = -10;
},
{
smooth = 0;
x = 164;
y = 9;
},
{
segmentType = curve;
smooth = 1;
x = 199;
y = 91;
},
{
smooth = 0;
x = 241;
y = 192;
},
{
smooth = 0;
x = 255;
y = 334;
}
);
}
);
lib = {
};
name = uni041B;
unicodes = (
);
width = 697;
};
};
};
width = 697;
},
{
layerId = m002;
shapes = (
{
closed = 1;
nodes = (
(530,605,l),
(530,660,l),
(200,660,l),
(200,605,l)
);
},
{
closed = 1;
nodes = (
(655,0,l),
(655,16,l),
(575,56,l),
(575,604,l),
(655,644,l),
(655,660,l),
(485,660,l),
(485,56,l),
(405,16,l),
(405,0,l)
);
},
{
closed = 1;
nodes = (
(245,660,l),
(105,660,l),
(105,644,l),
(185,604,l),
(185,556,ls),
(185,262,o),
(158,78,o),
(51,78,cs),
(41,78,l),
(37,74,l),
(37,19,ls),
(37,-3,o),
(41,-10,o),
(71,-10,cs),
(108,-10,o),
(154,9,o),
(189,91,cs),
(231,192,o),
(245,334,o),
(245,556,cs)
);
}
);
width = 720;
},
{
layerId = m003;
shapes = (
{
closed = 1;
nodes = (
(522,605,l),
(522,660,l),
(206,660,l),
(206,605,l)
);
},
{
closed = 1;
nodes = (
(699,0,l),
(699,16,l),
(612,58,l),
(612,602,l),
(699,644,l),
(699,660,l),
(422,660,l),
(422,58,l),
(335,16,l),
(335,0,l)
);
},
{
closed = 1;
nodes = (
(245,660,l),
(87,660,l),
(87,644,l),
(175,602,l),
(175,520,ls),
(175,208,o),
(115,116,o),
(20,116,cs),
(11,116,l),
(5,110,l),
(5,19,ls),
(5,-3,o),
(9,-10,o),
(39,-10,cs),
(85,-10,o),
(153,2,o),
(201,101,cs),
(221,142,o),
(245,246,o),
(245,523,cs)
);
}
);
width = 729;
}
);
unicode = 1051;
},
{
glyphname = uni041F;
kernLeft = kern_CYR_afii10055;
kernRight = kern_CYR_afii10055;
layers = (
{
layerId = m001;
shapes = (
{
closed = 1;
nodes = (
(289,0,l),
(289,25,l),
(203,42,l),
(203,660,l),
(65,660,l),
(65,635,l),
(143,618,l),
(143,42,l),
(65,25,l),
(65,0,l)
);
},
{
closed = 1;
nodes = (
(689,0,l),
(689,25,l),
(611,42,l),
(611,618,l),
(689,635,l),
(689,660,l),
(551,660,l),
(551,42,l),
(465,25,l),
(465,0,l)
);
},
{
closed = 1;
nodes = (
(580,625,l),
(580,660,l),
(180,660,l),
(180,625,l)
);
}
);
width = 754;
},
{
layerId = m002;
shapes = (
{
closed = 1;
nodes = (
(315,0,l),
(315,16,l),
(235,56,l),
(235,660,l),
(65,660,l),
(65,644,l),
(145,604,l),
(145,56,l),
(65,16,l),
(65,0,l)
);
},
{
closed = 1;
nodes = (
(715,0,l),
(715,16,l),
(635,56,l),
(635,604,l),
(715,644,l),
(715,660,l),
(545,660,l),
(545,56,l),
(465,16,l),
(465,0,l)
);
},
{
closed = 1;
nodes = (
(590,605,l),
(590,660,l),
(190,660,l),
(190,605,l)
);
}
);
width = 780;
},
{
layerId = m003;
shapes = (
{
closed = 1;
nodes = (
(381,0,l),
(381,16,l),
(309,58,l),
(309,660,l),
(30,660,l),
(30,644,l),
(119,602,l),
(119,58,l),
(30,16,l),
(30,0,l)
);
},
{
closed = 1;
nodes = (
(802,0,l),
(802,16,l),
(715,58,l),
(715,602,l),
(802,644,l),
(802,660,l),
(525,660,l),
(525,58,l),
(453,16,l),
(453,0,l)
);
},
{
closed = 1;
nodes = (
(625,605,l),
(625,660,l),
(215,660,l),
(215,605,l)
);
}
);
width = 832;
}
);
unicode = 1055;
},
{
glyphname = uni0423;
kernLeft = kern_CYR_afii10037;
kernRight = kern_CYR_afii10037;
lastChange = "2023-11-03 14:15:01 +0000";
layers = (
{
layerId = m001;
shapes = (
{
closed = 1;
nodes = (
(306,107,o),
(272,57,o),
(186,57,cs),
(181,57,l),
(175,51,l),
(175,19,ls),
(175,-3,o),
(179,-10,o),
(207,-10,cs),
(255,-10,o),
(295,15,o),
(342,110,cs),
(353,132,o),
(364,154,o),
(375,176,cs),
(599,632,l),
(576,620,l),
(648,635,l),
(648,660,l),
(462,660,l),
(462,635,l),
(550,621,l),
(550,618,l),
(346,192,l),
(377,232,l),
(345,232,l),
(364,211,l),
(164,618,l),
(164,621,l),
(248,635,l),
(248,660,l),
(35,660,l),
(35,635,l),
(135,609,l),
(91,632,l),
(333,147,l),
(344,188,l)
);
}
);
width = 668;
},
{
layerId = m002;
shapes = (
{
closed = 1;
nodes = (
(314,112,o),
(279,78,o),
(195,78,cs),
(185,78,l),
(181,74,l),
(181,19,ls),
(181,-3,o),
(185,-10,o),
(215,-10,cs),
(245.202,-10,o),
(283,-5,o),
(324,43,cs),
(357,81,o),
(386,129,o),
(422,202,cs),
(635,632,l),
(612,605,l),
(685,644,l),
(685,660,l),
(475,660,l),
(475,644,l),
(557,610,l),
(557,606,l),
(359,199,l),
(401,259,l),
(356,259,l),
(389,224,l),
(199,602,l),
(199,607,l),
(285,644,l),
(285,660,l),
(35,660,l),
(35,644,l),
(144,588,l),
(94,632,l),
(339,145,l),
(347,185,l)
);
}
);
userData = {
com.typemytype.robofont.layerData = {
"2" = {
anchors = (
);
components = (
);
contours = (
{
points = (
{
segmentType = line;
smooth = 0;
x = 347;
y = 188;
},
{
smooth = 0;
x = 317;
y = 121;
},
{
smooth = 0;
x = 287.74286;
y = 78;
},
{
segmentType = curve;
smooth = 1;
x = 211;
y = 78;
},
{
segmentType = line;
smooth = 0;
x = 201;
y = 78;
},
{
segmentType = line;
smooth = 0;
x = 197;
y = 74;
},
{
segmentType = line;
smooth = 1;
x = 197;
y = 19;
},
{
smooth = 0;
x = 197;
y = -3;
},
{
smooth = 0;
x = 201;
y = -10;
},
{
segmentType = curve;
smooth = 1;
x = 231;
y = -10;
},
{
smooth = 0;
x = 257.33945;
y = -10;
},
{
smooth = 0;
x = 285.80303;
y = -0.96179;
},
{
segmentType = curve;
smooth = 1;
x = 330;
y = 49;
},
{
smooth = 0;
x = 357;
y = 81;
},
{
smooth = 0;
x = 388.00748;
y = 128.99631;
},
{
segmentType = curve;
smooth = 1;
x = 424;
y = 202;
},
{
segmentType = line;
smooth = 0;
x = 636;
y = 632;
},
{
segmentType = line;
smooth = 0;
x = 612;
y = 605;
},
{
segmentType = line;
smooth = 0;
x = 685;
y = 644;
},
{
segmentType = line;
smooth = 0;
x = 685;
y = 660;
},
{
segmentType = line;
smooth = 0;
x = 475;
y = 660;
},
{
segmentType = line;
smooth = 0;
x = 475;
y = 644;
},
{
segmentType = line;
smooth = 0;
x = 557;
y = 610;
},
{
segmentType = line;
smooth = 0;
x = 557;
y = 606;
},
{
segmentType = line;
smooth = 0;
x = 351;
y = 189;
},
{
segmentType = line;
smooth = 0;
x = 391;
y = 227;
},
{
segmentType = line;
smooth = 0;
x = 346;
y = 227;
},
{
segmentType = line;
smooth = 0;
x = 381;
y = 189;
},
{
segmentType = line;
smooth = 0;
x = 179;
y = 602;
},
{
segmentType = line;
smooth = 0;
x = 179;
y = 607;
},
{
segmentType = line;
smooth = 0;
x = 265;
y = 644;
},
{
segmentType = line;
smooth = 0;
x = 265;
y = 660;
},
{
segmentType = line;
smooth = 0;
x = 15;
y = 660;
},
{
segmentType = line;
smooth = 0;
x = 15;
y = 644;
},
{
segmentType = line;
smooth = 0;
x = 124;
y = 588;
},
{
segmentType = line;
smooth = 0;
x = 74;
y = 632;
},
{
segmentType = line;
smooth = 0;
x = 329;
y = 110;
}
);
}
);
lib = {
};
name = uni0423;
unicodes = (
);
width = 710;
};
};
};
width = 710;
},
{
layerId = m003;
shapes = (
{
closed = 1;
nodes = (
(343,139,o),
(313,116,o),
(217,116,cs),
(191,116,l),
(185,110,l),
(185,19,ls),
(185,-3,o),
(189,-10,o),
(219,-10,cs),
(273,-10,o),
(318,3,o),
(378,78,cs),
(401,106,o),
(458,195,o),
(477,226,cs),
(720,632,l),
(680,594,l),
(769,644,l),
(769,660,l),
(552,660,l),
(552,644,l),
(654,594,l),
(645,632,l),
(435,277,l),
(486,325,l),
(431,325,l),
(482,277,l),
(272,632,l),
(260,594,l),
(361,644,l),
(361,660,l),
(9,660,l),
(9,644,l),
(118,581,l),
(68,632,l),
(352,152,l),
(423,255,l)
);
}
);
width = 754;
}
);
unicode = 1059;
},
{
glyphname = uni0424;
layers = (
{
layerId = m001;
shapes = (
{
closed = 1;
nodes = (
(514,-20,l),
(514,5,l),
(436,22,l),
(436,638,l),
(514,655,l),
(514,680,l),
(298,680,l),
(298,655,l),
(376,638,l),
(376,22,l),
(298,5,l),
(298,-20,l)
);
},
{
closed = 1;
nodes = (
(393,590,l),
(178,590,o),
(40,476,o),
(40,320,cs),
(40,176,o),
(178,70,o),
(393,70,c),
(414,100,l),
(228,100,o),
(102,200,o),
(102,353,cs),
(102,480,o),
(204,561,o),
(376,561,c)
);
},
{
closed = 1;
nodes = (
(582,561,o),
(707,462,o),
(707,309,cs),
(707,182,o),
(608,100,o),
(436,100,c),
(415,70,l),
(631,70,o),
(769,184,o),
(769,340,cs),
(769,484,o),
(631,590,o),
(415,590,c),
(398,561,l)
);
}
);
userData = {
org.robofab.postScriptHintData = {
};
};
width = 809;
},
{
layerId = m002;
shapes = (
{
closed = 1;
nodes = (
(546,-20,l),
(546,-4,l),
(466,36,l),
(466,624,l),
(546,664,l),
(546,680,l),
(296,680,l),
(296,664,l),
(376,624,l),
(376,36,l),
(296,-4,l),
(296,-20,l)
);
},
{
closed = 1;
nodes = (
(393,580,l),
(164,580,o),
(30,464,o),
(30,320,cs),
(30,176,o),
(164,80,o),
(393,80,c),
(414,130,l),
(233,130,o),
(127,212,o),
(127,353,cs),
(127,456,o),
(209,531,o),
(376,531,c)
);
},
{
closed = 1;
nodes = (
(619,531,o),
(712,449,o),
(712,309,cs),
(712,206,o),
(645,130,o),
(466,130,c),
(445,80,l),
(686,80,o),
(809,196,o),
(809,340,cs),
(809,484,o),
(686,580,o),
(445,580,c),
(428,531,l)
);
}
);
userData = {
com.typemytype.robofont.layerData = {
"2" = {
anchors = (
);
components = (
);
contours = (
{
points = (
{
segmentType = line;
smooth = 0;
x = 199;
y = -20;
},
{
segmentType = line;
smooth = 0;
x = 567;
y = -20;
},
{
segmentType = line;
smooth = 0;
x = 567;
y = -4;
},
{
segmentType = line;
smooth = 0;
x = 478;
y = 38;
},
{
segmentType = line;
smooth = 0;
x = 478;
y = 622;
},
{
segmentType = line;
smooth = 0;
x = 567;
y = 664;
},
{
segmentType = line;
smooth = 0;
x = 567;
y = 680;
},
{
segmentType = line;
smooth = 0;
x = 199;
y = 680;
},
{
segmentType = line;
smooth = 0;
x = 199;
y = 664;
},
{
segmentType = line;
smooth = 0;
x = 288;
y = 622;
},
{
segmentType = line;
smooth = 0;
x = 288;
y = 38;
},
{
segmentType = line;
smooth = 0;
x = 199;
y = -4;
}
);
},
{
points = (
{
segmentType = curve;
smooth = 0;
x = 288;
y = 528;
},
{
segmentType = line;
smooth = 0;
x = 299;
y = 580;
},
{
smooth = 0;
x = 71;
y = 580;
},
{
smooth = 0;
x = -64;
y = 466;
},
{
segmentType = curve;
smooth = 1;
x = -64;
y = 320;
},
{
smooth = 0;
x = -64;
y = 186;
},
{
smooth = 0;
x = 71;
y = 80;
},
{
segmentType = curve;
smooth = 0;
x = 299;
y = 80;
},
{
segmentType = line;
smooth = 0;
x = 312;
y = 133;
},
{
smooth = 0;
x = 214;
y = 133;
},
{
smooth = 0;
x = 136;
y = 221;
},
{
segmentType = curve;
smooth = 1;
x = 136;
y = 351;
},
{
smooth = 0;
x = 136;
y = 458;
},
{
smooth = 0;
x = 201;
y = 528;
}
);
},
{
points = (
{
segmentType = line;
smooth = 0;
x = 454;
y = 528;
},
{
smooth = 0;
x = 553;
y = 528;
},
{
smooth = 0;
x = 629;
y = 441;
},
{
segmentType = curve;
smooth = 1;
x = 629;
y = 311;
},
{
smooth = 0;
x = 629;
y = 204;
},
{
smooth = 0;
x = 568;
y = 133;
},
{
segmentType = curve;
smooth = 0;
x = 478;
y = 133;
},
{
segmentType = line;
smooth = 0;
x = 465;
y = 80;
},
{
smooth = 0;
x = 692;
y = 80;
},
{
smooth = 0;
x = 826;
y = 194;
},
{
segmentType = curve;
smooth = 1;
x = 826;
y = 340;
},
{
smooth = 0;
x = 826;
y = 474;
},
{
smooth = 0;
x = 691;
y = 580;
},
{
segmentType = curve;
smooth = 0;
x = 462;
y = 580;
}
);
}
);
lib = {
};
name = uni0424;
unicodes = (
);
width = 839;
};
};
org.robofab.postScriptHintData = {
};
};
width = 839;
},
{
layerId = m003;
shapes = (
{
closed = 1;
nodes = (
(651,-20,l),
(651,-4,l),
(562,38,l),
(562,622,l),
(651,664,l),
(651,680,l),
(283,680,l),
(283,664,l),
(372,622,l),
(372,38,l),
(283,-4,l),
(283,-20,l)
);
},
{
closed = 1;
nodes = (
(383,580,l),
(155,580,o),
(20,466,o),
(20,320,cs),
(20,186,o),
(155,80,o),
(383,80,c),
(396,133,l),
(298,133,o),
(220,221,o),
(220,351,cs),
(220,458,o),
(285,528,o),
(372,528,c)
);
},
{
closed = 1;
nodes = (
(637,528,o),
(713,441,o),
(713,311,cs),
(713,204,o),
(652,133,o),
(562,133,c),
(549,80,l),
(776,80,o),
(910,194,o),
(910,340,cs),
(910,474,o),
(775,580,o),
(546,580,c),
(538,528,l)
);
}
);
userData = {
com.typemytype.robofont.layerData = {
background = {
anchors = (
);
components = (
{
baseGlyph = O;
transformation = (
1,
0,
0,
1,
-38,
0
);
}
);
contours = (
);
lib = {
};
name = uni0424;
unicodes = (
);
width = 930;
};
};
org.robofab.postScriptHintData = {
};
};
width = 930;
}
);
unicode = 1060;
},
{
glyphname = uni0426;
kernLeft = kern_CYR_afii10055;
kernRight = kern_CYR_afii10021;
layers = (
{
layerId = m001;
shapes = (
{
closed = 1;
nodes = (
(699,-147,l),
(719,-147,l),
(719,35,l),
(611,35,l),
(611,618,l),
(689,635,l),
(689,660,l),
(465,660,l),
(465,635,l),
(551,618,l),
(551,0,l),
(657,0,l)
);
},
{
closed = 1;
nodes = (
(65,660,l),
(65,635,l),
(143,618,l),
(143,42,l),
(65,25,l),
(65,0,l),
(203,0,l),
(203,618,l),
(289,635,l),
(289,660,l)
);
},
{
closed = 1;
nodes = (
(174,35,l),
(174,0,l),
(574,0,l),
(574,35,l)
);
}
);
width = 754;
},
{
layerId = m002;
shapes = (
{
closed = 1;
nodes = (
(713,-167,l),
(729,-167,l),
(729,55,l),
(635,55,l),
(635,604,l),
(715,644,l),
(715,660,l),
(465,660,l),
(465,644,l),
(545,604,l),
(545,0,l),
(635,0,l)
);
},
{
closed = 1;
nodes = (
(65,660,l),
(65,644,l),
(145,604,l),
(145,56,l),
(65,16,l),
(65,0,l),
(235,0,l),
(235,604,l),
(315,644,l),
(315,660,l)
);
},
{
closed = 1;
nodes = (
(190,55,l),
(190,0,l),
(590,0,l),
(590,55,l)
);
}
);
width = 784;
},
{
layerId = m003;
shapes = (
{
closed = 1;
nodes = (
(799,-176,l),
(815,-176,l),
(815,55,l),
(713,55,l),
(713,602,l),
(802,644,l),
(802,660,l),
(451,660,l),
(451,644,l),
(523,602,l),
(523,0,l),
(691,0,l)
);
},
{
closed = 1;
nodes = (
(30,660,l),
(30,644,l),
(117,602,l),
(117,58,l),
(30,16,l),
(30,0,l),
(307,0,l),
(307,602,l),
(379,644,l),
(379,660,l)
);
},
{
closed = 1;
nodes = (
(207,55,l),
(207,0,l),
(617,0,l),
(617,55,l)
);
}
);
width = 845;
}
);
unicode = 1062;
},
{
glyphname = uni0427;
kernLeft = kern_CYR_afii10041;
kernRight = kern_CYR_afii10055;
layers = (
{
layerId = m001;
shapes = (
{
closed = 1;
nodes = (
(662,0,l),
(662,25,l),
(584,42,l),
(584,618,l),
(662,635,l),
(662,660,l),
(438,660,l),
(438,635,l),
(524,618,l),
(524,42,l),
(438,25,l),
(438,0,l)
);
},
{
closed = 1;
nodes = (
(122,331,o),
(212,286,o),
(357,286,cs),
(423,286,o),
(485.284,303.714,o),
(531,318,c),
(531,350,l),
(491,331,o),
(421,321,o),
(370,321,cs),
(234.222,321,o),
(182,371,o),
(182,499,cs),
(182,618,l),
(262,635,l),
(262,660,l),
(40,660,l),
(40,635,l),
(122,618,l),
(122,500,ls)
);
}
);
width = 727;
},
{
layerId = m002;
shapes = (
{
closed = 1;
nodes = (
(665,0,l),
(665,16,l),
(585,56,l),
(585,602,l),
(665,644,l),
(665,660,l),
(415,660,l),
(415,644,l),
(495,602,l),
(495,56,l),
(403,16,l),
(403,0,l)
);
},
{
closed = 1;
nodes = (
(99,322,o),
(191.018,276,o),
(327,276,cs),
(404.131,276,o),
(459.833,289.553,o),
(508,308,c),
(508,360,l),
(461.774,336.373,o),
(407.678,331,o),
(357,331,cs),
(234.35,331,o),
(189,370,o),
(189,494,cs),
(189,602,l),
(269,644,l),
(269,660,l),
(17,660,l),
(17,644,l),
(99,602,l),
(99,500,ls)
);
}
);
width = 730;
},
{
layerId = m003;
shapes = (
{
closed = 1;
nodes = (
(782,0,l),
(782,16,l),
(695,58,l),
(695,602,l),
(782,644,l),
(782,660,l),
(426,660,l),
(426,644,l),
(505,602,l),
(505,58,l),
(406,16,l),
(406,0,l)
);
},
{
closed = 1;
nodes = (
(99,312,o),
(179,262,o),
(320,262,cs),
(399,262,o),
(473,284,o),
(518,310,c),
(518,365,l),
(483,344,o),
(441,337,o),
(405,337,cs),
(323,337,o),
(289,370,o),
(289,474,cs),
(289,602,l),
(366,644,l),
(366,660,l),
(10,660,l),
(10,644,l),
(99,602,l),
(99,480,ls)
);
}
);
width = 812;
}
);
unicode = 1063;
},
{
glyphname = uni0428;
kernLeft = kern_CYR_afii10055;
kernRight = kern_CYR_afii10055;
layers = (
{
layerId = m001;
shapes = (
{
closed = 1;
nodes = (
(65,660,l),
(65,635,l),
(143,618,l),
(143,42,l),
(65,25,l),
(65,0,l),
(203,0,l),
(203,618,l),
(289,635,l),
(289,660,l)
);
},
{
closed = 1;
nodes = (
(765,660,l),
(765,635,l),
(851,618,l),
(851,0,l),
(989,0,l),
(989,25,l),
(911,42,l),
(911,618,l),
(989,635,l),
(989,660,l)
);
},
{
closed = 1;
nodes = (
(419,660,l),
(419,635,l),
(497,618,l),
(497,13,l),
(557,0,l),
(557,618,l),
(643,635,l),
(643,660,l)
);
},
{
closed = 1;
nodes = (
(174,35,l),
(174,0,l),
(874,0,l),
(874,35,l)
);
}
);
width = 1054;
},
{
layerId = m002;
shapes = (
{
closed = 1;
nodes = (
(65,660,l),
(65,644,l),
(145,604,l),
(145,56,l),
(65,16,l),
(65,0,l),
(235,0,l),
(235,604,l),
(315,644,l),
(315,660,l)
);
},
{
closed = 1;
nodes = (
(745,660,l),
(745,644,l),
(825,604,l),
(825,0,l),
(995,0,l),
(995,16,l),
(915,56,l),
(915,604,l),
(995,644,l),
(995,660,l)
);
},
{
closed = 1;
nodes = (
(405,660,l),
(405,644,l),
(485,604,l),
(485,30,l),
(575,56,l),
(575,604,l),
(655,644,l),
(655,660,l)
);
},
{
closed = 1;
nodes = (
(190,55,l),
(190,0,l),
(870,0,l),
(870,55,l)
);
}
);
width = 1060;
},
{
layerId = m003;
shapes = (
{
closed = 1;
nodes = (
(30,660,l),
(30,644,l),
(117,602,l),
(117,58,l),
(30,16,l),
(30,0,l),
(307,0,l),
(307,602,l),
(369,644,l),
(369,660,l)
);
},
{
closed = 1;
nodes = (
(761,660,l),
(761,644,l),
(817,602,l),
(817,0,l),
(1096,0,l),
(1096,16,l),
(1007,58,l),
(1007,602,l),
(1096,644,l),
(1096,660,l)
);
},
{
closed = 1;
nodes = (
(405,660,l),
(405,644,l),
(467,602,l),
(467,25,l),
(657,25,l),
(657,602,l),
(719,644,l),
(719,660,l)
);
},
{
closed = 1;
nodes = (
(207,55,l),
(207,0,l),
(911,0,l),
(911,55,l)
);
}
);
width = 1126;
}
);
unicode = 1064;
},
{
glyphname = uni0429;
kernLeft = kern_CYR_afii10055;
kernRight = kern_CYR_afii10021;
layers = (
{
layerId = m001;
shapes = (
{
closed = 1;
nodes = (
(999,-147,l),
(1019,-147,l),
(1019,35,l),
(911,35,l),
(911,618,l),
(989,635,l),
(989,660,l),
(765,660,l),
(765,635,l),
(851,618,l),
(851,0,l),
(957,0,l)
);
},
{
closed = 1;
nodes = (
(65,660,l),
(65,635,l),
(143,618,l),
(143,42,l),
(65,25,l),
(65,0,l),
(203,0,l),
(203,618,l),
(289,635,l),
(289,660,l)
);
},
{
closed = 1;
nodes = (
(419,660,l),
(419,635,l),
(497,618,l),
(497,13,l),
(557,0,l),
(557,618,l),
(643,635,l),
(643,660,l)
);
},
{
closed = 1;
nodes = (
(174,35,l),
(174,0,l),
(874,0,l),
(874,35,l)
);
}
);
width = 1054;
},
{
layerId = m002;
shapes = (
{
closed = 1;
nodes = (
(993,-167,l),
(1009,-167,l),
(1009,55,l),
(915,55,l),
(915,604,l),
(995,644,l),
(995,660,l),
(745,660,l),
(745,644,l),
(825,604,l),
(825,0,l),
(915,0,l)
);
},
{
closed = 1;
nodes = (
(65,660,l),
(65,644,l),
(145,604,l),
(145,56,l),
(65,16,l),
(65,0,l),
(235,0,l),
(235,604,l),
(315,644,l),
(315,660,l)
);
},
{
closed = 1;
nodes = (
(405,660,l),
(405,644,l),
(485,604,l),
(485,30,l),
(575,56,l),
(575,604,l),
(655,644,l),
(655,660,l)
);
},
{
closed = 1;
nodes = (
(190,55,l),
(190,0,l),
(870,0,l),
(870,55,l)
);
}
);
width = 1064;
},
{
layerId = m003;
shapes = (
{
closed = 1;
nodes = (
(1093,-176,l),
(1109,-176,l),
(1109,55,l),
(1007,55,l),
(1007,602,l),
(1096,644,l),
(1096,660,l),
(761,660,l),
(761,644,l),
(817,602,l),
(817,0,l),
(985,0,l)
);
},
{
closed = 1;
nodes = (
(30,660,l),
(30,644,l),
(117,602,l),
(117,58,l),
(30,16,l),
(30,0,l),
(307,0,l),
(307,602,l),
(369,644,l),
(369,660,l)
);
},
{
closed = 1;
nodes = (
(405,660,l),
(405,644,l),
(467,602,l),
(467,25,l),
(657,25,l),
(657,602,l),
(719,644,l),
(719,660,l)
);
},
{
closed = 1;
nodes = (
(207,55,l),
(207,0,l),
(911,0,l),
(911,55,l)
);
}
);
width = 1139;
}
);
unicode = 1065;
},
{
glyphname = uni042A;
kernRight = kern_CYR_afii10058;
layers = (
{
layerId = m001;
shapes = (
{
closed = 1;
nodes = (
(572,0,o),
(663,86,o),
(663,202,cs),
(663,310,o),
(570,378,o),
(402,378,cs),
(271,378,l),
(271,343,l),
(401,343,ls),
(537,343,o),
(600,295,o),
(600,188,cs),
(600,100,o),
(536,35,o),
(405,35,cs),
(291,35,l),
(291,0,l),
(403,0,ls)
);
},
{
closed = 1;
nodes = (
(255,660,l),
(255,42,l),
(177,25,l),
(177,0,l),
(315,0,l),
(315,618,l),
(413,635,l),
(413,660,l)
);
},
{
closed = 1;
nodes = (
(316,660,l),
(45,660,l),
(45,478,l),
(65,478,l),
(107,625,l),
(302,625,l)
);
}
);
userData = {
com.typemytype.robofont.layerData = {
"2" = {
anchors = (
);
components = (
);
contours = (
{
points = (
{
segmentType = line;
smooth = 1;
x = 421;
y = 0;
},
{
smooth = 0;
x = 589;
y = 0;
},
{
smooth = 0;
x = 696;
y = 86;
},
{
segmentType = curve;
smooth = 1;
x = 696;
y = 202;
},
{
smooth = 0;
x = 696;
y = 314;
},
{
smooth = 0;
x = 590;
y = 388;
},
{
segmentType = curve;
smooth = 1;
x = 422;
y = 388;
},
{
segmentType = line;
smooth = 0;
x = 270;
y = 388;
},
{
segmentType = line;
smooth = 0;
x = 270;
y = 333;
},
{
segmentType = line;
smooth = 1;
x = 413;
y = 333;
},
{
smooth = 0;
x = 542;
y = 333;
},
{
smooth = 0;
x = 599;
y = 291;
},
{
segmentType = curve;
smooth = 1;
x = 599;
y = 194;
},
{
smooth = 0;
x = 599;
y = 112;
},
{
smooth = 0;
x = 541;
y = 55;
},
{
segmentType = curve;
smooth = 1;
x = 420;
y = 55;
},
{
segmentType = line;
smooth = 0;
x = 290;
y = 55;
},
{
segmentType = line;
smooth = 0;
x = 290;
y = 0;
}
);
},
{
points = (
{
segmentType = line;
smooth = 0;
x = 415;
y = 660;
},
{
segmentType = line;
smooth = 0;
x = 225;
y = 660;
},
{
segmentType = line;
smooth = 0;
x = 225;
y = 56;
},
{
segmentType = line;
smooth = 0;
x = 145;
y = 16;
},
{
segmentType = line;
smooth = 0;
x = 145;
y = 0;
},
{
segmentType = line;
smooth = 0;
x = 315;
y = 0;
},
{
segmentType = line;
smooth = 0;
x = 315;
y = 604;
},
{
segmentType = line;
smooth = 0;
x = 415;
y = 644;
}
);
},
{
points = (
{
segmentType = line;
smooth = 0;
x = 272;
y = 605;
},
{
segmentType = line;
smooth = 0;
x = 274;
y = 660;
},
{
segmentType = line;
smooth = 0;
x = 25;
y = 660;
},
{
segmentType = line;
smooth = 0;
x = 25;
y = 458;
},
{
segmentType = line;
smooth = 0;
x = 41;
y = 458;
},
{
segmentType = line;
smooth = 0;
x = 109;
y = 605;
}
);
}
);
lib = {
};
name = uni042A;
unicodes = (
);
width = 698;
};
};
};
width = 698;
},
{
layerId = m002;
shapes = (
{
closed = 1;
nodes = (
(589,0,o),
(696,86,o),
(696,202,cs),
(696,314,o),
(590,388,o),
(422,388,cs),
(270,388,l),
(270,333,l),
(413,333,ls),
(542,333,o),
(599,291,o),
(599,194,cs),
(599,112,o),
(541,55,o),
(420,55,cs),
(290,55,l),
(290,0,l),
(421,0,ls)
);
},
{
closed = 1;
nodes = (
(225,660,l),
(225,56,l),
(145,16,l),
(145,0,l),
(315,0,l),
(315,604,l),
(415,644,l),
(415,660,l)
);
},
{
closed = 1;
nodes = (
(274,660,l),
(25,660,l),
(25,458,l),
(41,458,l),
(109,605,l),
(272,605,l)
);
}
);
width = 728;
},
{
layerId = m003;
shapes = (
{
closed = 1;
nodes = (
(670,0,o),
(797,77,o),
(797,204,cs),
(797,327,o),
(670,397,o),
(498,397,cs),
(317,397,l),
(317,342,l),
(450,342,ls),
(550,342,o),
(606,295,o),
(606,201,cs),
(606,117,o),
(549,55,o),
(457,55,cs),
(317,55,l),
(317,0,l),
(498,0,ls)
);
},
{
closed = 1;
nodes = (
(219,660,l),
(219,58,l),
(130,16,l),
(130,0,l),
(409,0,l),
(409,602,l),
(518,644,l),
(518,660,l)
);
},
{
closed = 1;
nodes = (
(306,660,l),
(30,660,l),
(30,429,l),
(46,429,l),
(134,605,l),
(274,605,l)
);
}
);
width = 817;
}
);
unicode = 1066;
},
{
glyphname = uni042C;
kernLeft = kern_CYR_afii10055;
kernRight = kern_CYR_afii10058;
layers = (
{
layerId = m001;
shapes = (
{
closed = 1;
nodes = (
(460,0,o),
(551,86,o),
(551,202,cs),
(551,310,o),
(458,378,o),
(290,378,cs),
(159,378,l),
(159,343,l),
(289,343,ls),
(425,343,o),
(488,295,o),
(488,188,cs),
(488,100,o),
(424,35,o),
(293,35,cs),
(179,35,l),
(179,0,l),
(291,0,ls)
);
},
{
closed = 1;
nodes = (
(65,660,l),
(65,635,l),
(143,618,l),
(143,42,l),
(65,25,l),
(65,0,l),
(203,0,l),
(203,618,l),
(301,635,l),
(301,660,l)
);
}
);
userData = {
com.typemytype.robofont.layerData = {
"2" = {
anchors = (
);
components = (
);
contours = (
{
points = (
{
segmentType = line;
smooth = 1;
x = 341;
y = 0;
},
{
smooth = 0;
x = 509;
y = 0;
},
{
smooth = 0;
x = 616;
y = 86;
},
{
segmentType = curve;
smooth = 1;
x = 616;
y = 202;
},
{
smooth = 0;
x = 616;
y = 314;
},
{
smooth = 0;
x = 510;
y = 388;
},
{
segmentType = curve;
smooth = 1;
x = 342;
y = 388;
},
{
segmentType = line;
smooth = 0;
x = 190;
y = 388;
},
{
segmentType = line;
smooth = 0;
x = 190;
y = 333;
},
{
segmentType = line;
smooth = 1;
x = 333;
y = 333;
},
{
smooth = 0;
x = 462;
y = 333;
},
{
smooth = 0;
x = 519;
y = 291;
},
{
segmentType = curve;
smooth = 1;
x = 519;
y = 194;
},
{
smooth = 0;
x = 519;
y = 112;
},
{
smooth = 0;
x = 461;
y = 55;
},
{
segmentType = curve;
smooth = 1;
x = 340;
y = 55;
},
{
segmentType = line;
smooth = 0;
x = 210;
y = 55;
},
{
segmentType = line;
smooth = 0;
x = 210;
y = 0;
}
);
},
{
points = (
{
segmentType = line;
smooth = 0;
x = 335;
y = 660;
},
{
segmentType = line;
smooth = 0;
x = 65;
y = 660;
},
{
segmentType = line;
smooth = 0;
x = 65;
y = 644;
},
{
segmentType = line;
smooth = 0;
x = 145;
y = 604;
},
{
segmentType = line;
smooth = 0;
x = 145;
y = 56;
},
{
segmentType = line;
smooth = 0;
x = 65;
y = 16;
},
{
segmentType = line;
smooth = 0;
x = 65;
y = 0;
},
{
segmentType = line;
smooth = 0;
x = 235;
y = 0;
},
{
segmentType = line;
smooth = 0;
x = 235;
y = 604;
},
{
segmentType = line;
smooth = 0;
x = 335;
y = 644;
}
);
}
);
lib = {
};
name = uni042C;
unicodes = (
);
width = 586;
};
};
};
width = 586;
},
{
layerId = m002;
shapes = (
{
closed = 1;
nodes = (
(509,0,o),
(616,86,o),
(616,202,cs),
(616,314,o),
(510,388,o),
(342,388,cs),
(190,388,l),
(190,333,l),
(333,333,ls),
(462,333,o),
(519,291,o),
(519,194,cs),
(519,112,o),
(461,55,o),
(340,55,cs),
(210,55,l),
(210,0,l),
(341,0,ls)
);
},
{
closed = 1;
nodes = (
(65,660,l),
(65,644,l),
(145,604,l),
(145,56,l),
(65,16,l),
(65,0,l),
(235,0,l),
(235,604,l),
(335,644,l),
(335,660,l)
);
}
);
width = 648;
},
{
layerId = m003;
shapes = (
{
closed = 1;
nodes = (
(570,0,o),
(697,77,o),
(697,204,cs),
(697,327,o),
(570,397,o),
(398,397,cs),
(217,397,l),
(217,342,l),
(350,342,ls),
(450,342,o),
(506,295,o),
(506,201,cs),
(506,117,o),
(449,55,o),
(357,55,cs),
(217,55,l),
(217,0,l),
(398,0,ls)
);
},
{
closed = 1;
nodes = (
(30,660,l),
(30,644,l),
(119,602,l),
(119,58,l),
(30,16,l),
(30,0,l),
(309,0,l),
(309,602,l),
(418,644,l),
(418,660,l)
);
}
);
userData = {
com.typemytype.robofont.layerData = {
"2" = {
anchors = (
);
components = (
);
contours = (
{
points = (
{
segmentType = move;
x = 149;
y = 647;
},
{
smooth = 0;
x = 149;
y = 711;
},
{
smooth = 0;
x = 146;
y = 718;
},
{
segmentType = curve;
smooth = 1;
x = 91;
y = 721;
},
{
segmentType = line;
smooth = 0;
x = 55;
y = 723;
},
{
segmentType = line;
smooth = 0;
x = 55;
y = 758;
},
{
segmentType = line;
smooth = 0;
x = 347;
y = 758;
},
{
segmentType = line;
smooth = 0;
x = 347;
y = 723;
},
{
segmentType = line;
smooth = 1;
x = 311;
y = 721;
},
{
smooth = 0;
x = 256;
y = 718;
},
{
smooth = 0;
x = 253;
y = 711;
},
{
segmentType = curve;
smooth = 1;
x = 253;
y = 647;
}
);
}
);
lib = {
};
name = uni042C;
unicodes = (
);
width = 717;
};
};
};
width = 717;
}
);
unicode = 1068;
},
{
glyphname = uni042D;
kernLeft = kern_CYR_afii10025;
kernRight = kern_CYR_afii10032;
layers = (
{
layerId = m001;
shapes = (
{
closed = 1;
nodes = (
(239,22,o),
(184,44,o),
(134,78,c),
(168,41,l),
(105,188,l),
(85,188,l),
(94,39,l),
(152,10,o),
(206,-10,o),
(314,-10,cs),
(504,-10,o),
(632,124,o),
(632,330,cs),
(632,526,o),
(506,670,o),
(311,670,cs),
(213,670,o),
(161,648,o),
(105,621,c),
(100,466,l),
(121,466,l),
(170,608,l),
(136,562,l),
(199,622,o),
(246,640,o),
(311,640,cs),
(461,640,o),
(570,505,o),
(570,299,cs),
(570,120,o),
(477,22,o),
(325,22,cs)
);
},
{
closed = 1;
nodes = (
(257,441,l),
(257,242,l),
(277,242,l),
(302,323,l),
(615,323,l),
(615,358,l),
(302,358,l),
(277,441,l)
);
}
);
userData = {
com.typemytype.robofont.layerData = {
"2" = {
anchors = (
);
components = (
);
contours = (
{
points = (
{
segmentType = curve;
smooth = 1;
x = 278;
y = 42;
},
{
smooth = 0;
x = 175;
y = 42;
},
{
smooth = 0;
x = 124;
y = 76;
},
{
segmentType = curve;
smooth = 0;
x = 81;
y = 106;
},
{
segmentType = line;
smooth = 0;
x = 119;
y = 62;
},
{
segmentType = line;
smooth = 0;
x = 42;
y = 198;
},
{
segmentType = line;
smooth = 0;
x = 25;
y = 198;
},
{
segmentType = line;
smooth = 0;
x = 36;
y = 39;
},
{
smooth = 0;
x = 95;
y = 10;
},
{
smooth = 0;
x = 157;
y = -10;
},
{
segmentType = curve;
smooth = 1;
x = 267;
y = -10;
},
{
smooth = 0;
x = 469;
y = -10;
},
{
smooth = 0;
x = 601;
y = 134;
},
{
segmentType = curve;
smooth = 1;
x = 601;
y = 330;
},
{
smooth = 0;
x = 601;
y = 526;
},
{
smooth = 0;
x = 459;
y = 670;
},
{
segmentType = curve;
smooth = 1;
x = 267;
y = 670;
},
{
smooth = 0;
x = 167;
y = 670;
},
{
smooth = 0;
x = 101;
y = 652;
},
{
segmentType = curve;
smooth = 0;
x = 46;
y = 625;
},
{
segmentType = line;
smooth = 0;
x = 41;
y = 450;
},
{
segmentType = line;
smooth = 0;
x = 59;
y = 450;
},
{
segmentType = line;
smooth = 0;
x = 135;
y = 602;
},
{
segmentType = line;
smooth = 0;
x = 99;
y = 557;
},
{
smooth = 0;
x = 148;
y = 608;
},
{
smooth = 0;
x = 189;
y = 620;
},
{
segmentType = curve;
smooth = 1;
x = 250;
y = 620;
},
{
smooth = 0;
x = 392;
y = 620;
},
{
smooth = 0;
x = 504;
y = 494;
},
{
segmentType = curve;
smooth = 1;
x = 504;
y = 299;
},
{
smooth = 0;
x = 504;
y = 141;
},
{
smooth = 0;
x = 406;
y = 42;
}
);
},
{
points = (
{
segmentType = line;
smooth = 0;
x = 201;
y = 451;
},
{
segmentType = line;
smooth = 0;
x = 185;
y = 451;
},
{
segmentType = line;
smooth = 0;
x = 185;
y = 232;
},
{
segmentType = line;
smooth = 0;
x = 201;
y = 232;
},
{
segmentType = line;
smooth = 0;
x = 251;
y = 313;
},
{
segmentType = line;
smooth = 0;
x = 566;
y = 313;
},
{
segmentType = line;
smooth = 0;
x = 566;
y = 368;
},
{
segmentType = line;
smooth = 0;
x = 251;
y = 368;
}
);
}
);
lib = {
};
name = uni042D;
unicodes = (
);
width = 702;
};
};
};
width = 702;
},
{
layerId = m002;
shapes = (
{
closed = 1;
nodes = (
(240,42,o),
(189,76,o),
(146,106,c),
(184,62,l),
(107,198,l),
(90,198,l),
(101,39,l),
(160,10,o),
(222,-10,o),
(332,-10,cs),
(534,-10,o),
(666,134,o),
(666,330,cs),
(666,526,o),
(524,670,o),
(332,670,cs),
(232,670,o),
(166,652,o),
(111,625,c),
(106,450,l),
(124,450,l),
(200,602,l),
(164,557,l),
(213,608,o),
(254,620,o),
(315,620,cs),
(457,620,o),
(569,494,o),
(569,299,cs),
(569,141,o),
(471,42,o),
(343,42,cs)
);
},
{
closed = 1;
nodes = (
(250,451,l),
(250,232,l),
(266,232,l),
(316,313,l),
(631,313,l),
(631,368,l),
(316,368,l),
(266,451,l)
);
}
);
width = 736;
},
{
layerId = m003;
shapes = (
{
closed = 1;
nodes = (
(245,43,o),
(201,54,o),
(160,82,c),
(196,51,l),
(73,219,l),
(55,219,l),
(72,44,l),
(123,10,o),
(224,-10,o),
(312,-10,cs),
(515,-10,o),
(666,134,o),
(666,330,cs),
(666,526,o),
(515,670,o),
(312,670,cs),
(204,670,o),
(145,650,o),
(87,622,c),
(72,428,l),
(90,428,l),
(216,615,l),
(187,591,l),
(219,612,o),
(245,618,o),
(286,618,cs),
(394,618,o),
(466,493,o),
(466,301,cs),
(466,144,o),
(409,43,o),
(286,43,cs)
);
},
{
closed = 1;
nodes = (
(235,456,l),
(235,227,l),
(251,227,l),
(311,315,l),
(549,315,l),
(549,370,l),
(311,370,l),
(251,456,l)
);
}
);
width = 701;
}
);
unicode = 1069;
},
{
glyphname = uni042E;
kernLeft = kern_CYR_afii10055;
kernRight = kern_CYR_afii10032;
layers = (
{
layerId = m001;
shapes = (
{
closed = 1;
nodes = (
(289,0,l),
(289,25,l),
(203,42,l),
(203,618,l),
(289,635,l),
(289,660,l),
(65,660,l),
(65,635,l),
(143,618,l),
(143,42,l),
(65,25,l),
(65,0,l)
);
},
{
closed = 1;
nodes = (
(828.236,-10,o),
(957,134,o),
(957,330,cs),
(957,526,o),
(828.236,670,o),
(653,670,cs),
(478.751,670,o),
(350,526,o),
(350,330,cs),
(350,134,o),
(478.751,-10,o),
(653,-10,cs)
);
},
{
closed = 1;
nodes = (
(527.588,20,o),
(412,156,o),
(412,363,cs),
(412,533,o),
(504.855,641,o),
(636,641,cs),
(780.424,641,o),
(895,506,o),
(895,299,cs),
(895,129,o),
(805.069,20,o),
(674,20,cs)
);
},
{
closed = 1;
nodes = (
(390,323,l),
(390,358,l),
(180,358,l),
(180,323,l)
);
}
);
width = 1027;
},
{
layerId = m002;
shapes = (
{
closed = 1;
nodes = (
(315,0,l),
(315,16,l),
(235,56,l),
(235,604,l),
(315,644,l),
(315,660,l),
(65,660,l),
(65,644,l),
(145,604,l),
(145,56,l),
(65,16,l),
(65,0,l)
);
},
{
closed = 1;
nodes = (
(859.251,-10,o),
(997,134,o),
(997,330,cs),
(997,526,o),
(859.251,670,o),
(673,670,cs),
(487.736,670,o),
(350,526,o),
(350,330,cs),
(350,134,o),
(487.736,-10,o),
(673,-10,cs)
);
},
{
closed = 1;
nodes = (
(556.564,40,o),
(447,168,o),
(447,363,cs),
(447,521,o),
(533.845,621,o),
(656,621,cs),
(792.409,621,o),
(900,494,o),
(900,299,cs),
(900,141,o),
(816.074,40,o),
(694,40,cs)
);
},
{
closed = 1;
nodes = (
(420,313,l),
(420,368,l),
(190,368,l),
(190,313,l)
);
}
);
width = 1067;
},
{
layerId = m003;
shapes = (
{
closed = 1;
nodes = (
(386,0,l),
(386,16,l),
(309,58,l),
(309,602,l),
(386,644,l),
(386,660,l),
(30,660,l),
(30,644,l),
(119,602,l),
(119,58,l),
(30,16,l),
(30,0,l)
);
},
{
closed = 1;
nodes = (
(925,-10,o),
(1072,134,o),
(1072,330,cs),
(1072,526,o),
(925,670,o),
(728,670,cs),
(532,670,o),
(385,526,o),
(385,330,cs),
(385,134,o),
(532,-10,o),
(728,-10,cs)
);
},
{
closed = 1;
nodes = (
(655,43,o),
(585,169,o),
(585,361,cs),
(585,518,o),
(642,618,o),
(717,618,cs),
(804,618,o),
(872,493,o),
(872,301,cs),
(872,144,o),
(819,43,o),
(741,43,cs)
);
},
{
closed = 1;
nodes = (
(545,312,l),
(545,367,l),
(215,367,l),
(215,312,l)
);
}
);
width = 1107;
}
);
unicode = 1070;
},
{
glyphname = uni042F;
kernRight = kern_CYR_afii10055;
layers = (
{
layerId = m001;
shapes = (
{
closed = 1;
nodes = (
(578,25,l),
(498,42,l),
(498,618,l),
(578,635,l),
(578,660,l),
(438,660,l),
(438,43,l),
(363,25,l),
(363,0,l),
(578,0,l)
);
},
{
closed = 1;
nodes = (
(114,396,o),
(175,327,o),
(295,311,c),
(325,302,l),
(453,302,l),
(453,337,l),
(327,337,l),
(243,337,o),
(181,397,o),
(181,479,cs),
(181,569,o),
(239,625,o),
(333,625,cs),
(461,625,l),
(461,660,l),
(340,660,ls),
(200,660,o),
(114,596,o),
(114,478,cs)
);
},
{
closed = 1;
nodes = (
(356,330,l),
(289,330,l),
(91,38,l),
(25,25,l),
(25,0,l),
(138,0,l)
);
}
);
userData = {
com.typemytype.robofont.layerData = {
"2" = {
anchors = (
);
components = (
);
contours = (
{
points = (
{
segmentType = line;
smooth = 0;
x = 626;
y = 0;
},
{
segmentType = line;
smooth = 0;
x = 626;
y = 16;
},
{
segmentType = line;
smooth = 0;
x = 546;
y = 56;
},
{
segmentType = line;
smooth = 0;
x = 546;
y = 604;
},
{
segmentType = line;
smooth = 0;
x = 626;
y = 644;
},
{
segmentType = line;
smooth = 0;
x = 626;
y = 660;
},
{
segmentType = line;
smooth = 0;
x = 456;
y = 660;
},
{
segmentType = line;
smooth = 0;
x = 456;
y = 57;
},
{
segmentType = line;
smooth = 0;
x = 376;
y = 16;
},
{
segmentType = line;
smooth = 0;
x = 376;
y = 0;
}
);
},
{
points = (
{
segmentType = curve;
smooth = 1;
x = 112;
y = 471;
},
{
smooth = 0;
x = 112;
y = 386;
},
{
smooth = 0;
x = 189;
y = 304;
},
{
segmentType = curve;
smooth = 0;
x = 328;
y = 292;
},
{
segmentType = line;
smooth = 0;
x = 328;
y = 283;
},
{
segmentType = line;
smooth = 0;
x = 471;
y = 283;
},
{
segmentType = line;
smooth = 0;
x = 471;
y = 338;
},
{
segmentType = line;
smooth = 1;
x = 385;
y = 338;
},
{
smooth = 0;
x = 271;
y = 338;
},
{
smooth = 0;
x = 209;
y = 395;
},
{
segmentType = curve;
smooth = 1;
x = 209;
y = 474;
},
{
smooth = 0;
x = 209;
y = 555;
},
{
smooth = 0;
x = 267;
y = 605;
},
{
segmentType = curve;
smooth = 1;
x = 392;
y = 605;
},
{
segmentType = line;
smooth = 0;
x = 479;
y = 605;
},
{
segmentType = line;
smooth = 0;
x = 479;
y = 660;
},
{
segmentType = line;
smooth = 1;
x = 393;
y = 660;
},
{
smooth = 0;
x = 198;
y = 660;
},
{
smooth = 0;
x = 112;
y = 594;
}
);
},
{
points = (
{
segmentType = line;
smooth = 0;
x = 169;
y = 0;
},
{
segmentType = line;
smooth = 0;
x = 387;
y = 321;
},
{
segmentType = line;
smooth = 0;
x = 287;
y = 321;
},
{
segmentType = line;
smooth = 0;
x = 91;
y = 52;
},
{
segmentType = line;
smooth = 0;
x = 25;
y = 16;
},
{
segmentType = line;
smooth = 0;
x = 25;
y = 0;
}
);
}
);
lib = {
};
name = uni042F;
unicodes = (
);
width = 643;
};
};
};
width = 643;
},
{
layerId = m002;
shapes = (
{
closed = 1;
nodes = (
(631,16,l),
(551,56,l),
(551,604,l),
(631,644,l),
(631,660,l),
(461,660,l),
(461,57,l),
(381,16,l),
(381,0,l),
(631,0,l)
);
},
{
closed = 1;
nodes = (
(117,386,o),
(194,304,o),
(333,292,c),
(333,283,l),
(476,283,l),
(476,338,l),
(390,338,ls),
(276,338,o),
(214,395,o),
(214,474,cs),
(214,555,o),
(272,605,o),
(397,605,cs),
(484,605,l),
(484,660,l),
(398,660,ls),
(203,660,o),
(117,594,o),
(117,471,cs)
);
},
{
closed = 1;
nodes = (
(392,321,l),
(297,321,l),
(101,52,l),
(35,16,l),
(35,0,l),
(172,0,l)
);
}
);
width = 696;
},
{
layerId = m003;
shapes = (
{
closed = 1;
nodes = (
(765,16,l),
(676,58,l),
(676,602,l),
(765,644,l),
(765,660,l),
(486,660,l),
(486,59,l),
(411,16,l),
(411,0,l),
(765,0,l)
);
},
{
closed = 1;
nodes = (
(109,384,o),
(173,321,o),
(348,306,c),
(364,295,l),
(498,295,l),
(498,340,l),
(448,340,ls),
(347,340,o),
(296,395,o),
(296,475,cs),
(296,560,o),
(355,605,o),
(449,605,cs),
(506,605,l),
(506,660,l),
(385,660,ls),
(214,660,o),
(109,590,o),
(109,475,cs)
);
},
{
closed = 1;
nodes = (
(474,323,l),
(288,348,l),
(91,59,l),
(15,16,l),
(15,0,l),
(274,0,l)
);
}
);
userData = {
com.typemytype.robofont.layerData = {
"2" = {
anchors = (
);
components = (
);
contours = (
{
points = (
{
segmentType = line;
smooth = 0;
x = 765;
y = 0;
},
{
segmentType = line;
smooth = 0;
x = 765;
y = 16;
},
{
segmentType = line;
smooth = 0;
x = 676;
y = 58;
},
{
segmentType = line;
smooth = 0;
x = 676;
y = 602;
},
{
segmentType = line;
smooth = 0;
x = 765;
y = 644;
},
{
segmentType = line;
smooth = 0;
x = 765;
y = 660;
},
{
segmentType = line;
smooth = 0;
x = 486;
y = 660;
},
{
segmentType = line;
smooth = 0;
x = 486;
y = 59;
},
{
segmentType = line;
smooth = 0;
x = 411;
y = 16;
},
{
segmentType = line;
smooth = 0;
x = 411;
y = 0;
}
);
},
{
points = (
{
segmentType = curve;
smooth = 1;
x = 109;
y = 475;
},
{
smooth = 0;
x = 109;
y = 393;
},
{
smooth = 0;
x = 169;
y = 329;
},
{
segmentType = curve;
smooth = 0;
x = 348;
y = 306;
},
{
segmentType = line;
smooth = 0;
x = 364;
y = 295;
},
{
segmentType = line;
smooth = 0;
x = 498;
y = 295;
},
{
segmentType = line;
smooth = 0;
x = 498;
y = 340;
},
{
segmentType = line;
smooth = 1;
x = 448;
y = 340;
},
{
smooth = 0;
x = 347;
y = 340;
},
{
smooth = 0;
x = 296;
y = 395;
},
{
segmentType = curve;
smooth = 1;
x = 296;
y = 475;
},
{
smooth = 0;
x = 296;
y = 560;
},
{
smooth = 0;
x = 355;
y = 605;
},
{
segmentType = curve;
smooth = 1;
x = 449;
y = 605;
},
{
segmentType = line;
smooth = 0;
x = 506;
y = 605;
},
{
segmentType = line;
smooth = 0;
x = 506;
y = 660;
},
{
segmentType = line;
smooth = 1;
x = 385;
y = 660;
},
{
smooth = 0;
x = 214;
y = 660;
},
{
smooth = 0;
x = 109;
y = 590;
}
);
},
{
points = (
{
segmentType = line;
smooth = 0;
x = 279;
y = 0;
},
{
segmentType = line;
smooth = 0;
x = 474;
y = 323;
},
{
segmentType = line;
smooth = 0;
x = 283;
y = 348;
},
{
segmentType = line;
smooth = 0;
x = 91;
y = 59;
},
{
segmentType = line;
smooth = 0;
x = 15;
y = 16;
},
{
segmentType = line;
smooth = 0;
x = 15;
y = 0;
}
);
},
{
points = (
{
segmentType = line;
smooth = 0;
x = 765;
y = 0;
},
{
segmentType = line;
smooth = 0;
x = 411;
y = 0;
},
{
segmentType = line;
smooth = 0;
x = 411;
y = 16;
},
{
segmentType = line;
smooth = 0;
x = 486;
y = 59;
},
{
segmentType = line;
smooth = 0;
x = 486;
y = 660;
},
{
segmentType = line;
smooth = 0;
x = 765;
y = 660;
},
{
segmentType = line;
smooth = 0;
x = 765;
y = 644;
},
{
segmentType = line;
smooth = 0;
x = 676;
y = 602;
},
{
segmentType = line;
smooth = 0;
x = 676;
y = 58;
},
{
segmentType = line;
smooth = 0;
x = 765;
y = 16;
}
);
},
{
points = (
{
segmentType = curve;
smooth = 1;
x = 142;
y = 497;
},
{
smooth = 0;
x = 142;
y = 598;
},
{
smooth = 0;
x = 228;
y = 660;
},
{
segmentType = curve;
smooth = 1;
x = 368;
y = 660;
},
{
segmentType = line;
smooth = 0;
x = 539;
y = 660;
},
{
segmentType = line;
smooth = 0;
x = 539;
y = 605;
},
{
segmentType = line;
smooth = 1;
x = 462;
y = 605;
},
{
smooth = 0;
x = 372;
y = 605;
},
{
smooth = 0;
x = 329;
y = 560;
},
{
segmentType = curve;
smooth = 1;
x = 329;
y = 479;
},
{
smooth = 0;
x = 329;
y = 403;
},
{
smooth = 0;
x = 376;
y = 353;
},
{
segmentType = curve;
smooth = 1;
x = 456;
y = 353;
},
{
segmentType = line;
smooth = 0;
x = 531;
y = 353;
},
{
segmentType = line;
smooth = 0;
x = 531;
y = 308;
},
{
segmentType = line;
smooth = 0;
x = 397;
y = 308;
},
{
segmentType = line;
smooth = 0;
x = 381;
y = 319;
},
{
smooth = 0;
x = 244;
y = 342;
},
{
smooth = 0;
x = 142;
y = 394;
}
);
},
{
points = (
{
segmentType = line;
smooth = 0;
x = 279;
y = 0;
},
{
segmentType = line;
smooth = 0;
x = 15;
y = 0;
},
{
segmentType = line;
smooth = 0;
x = 15;
y = 16;
},
{
segmentType = line;
smooth = 0;
x = 91;
y = 59;
},
{
segmentType = line;
smooth = 0;
x = 283;
y = 361;
},
{
segmentType = line;
smooth = 0;
x = 474;
y = 336;
}
);
}
);
lib = {
};
name = uni042F;
unicodes = (
);
width = 795;
};
};
};
width = 795;
}
);
unicode = 1071;
},
{
glyphname = uni0490;
kernLeft = kern_CYR_afii10055;
layers = (
{
layerId = m001;
shapes = (
{
closed = 1;
nodes = (
(316,0,l),
(316,25,l),
(205,42,l),
(205,660,l),
(67,660,l),
(67,635,l),
(145,618,l),
(145,42,l),
(65,25,l),
(65,0,l)
);
},
{
closed = 1;
nodes = (
(515,807,l),
(495,807,l),
(453,660,l),
(174,660,l),
(174,625,l),
(515,625,l)
);
}
);
width = 555;
},
{
layerId = m002;
shapes = (
{
closed = 1;
nodes = (
(325,0,l),
(325,16,l),
(235,56,l),
(235,660,l),
(65,660,l),
(65,644,l),
(145,604,l),
(145,56,l),
(65,16,l),
(65,0,l)
);
},
{
closed = 1;
nodes = (
(544,827,l),
(528,827,l),
(450,660,l),
(172,660,l),
(172,605,l),
(544,605,l)
);
}
);
width = 564;
},
{
layerId = m003;
shapes = (
{
closed = 1;
nodes = (
(419,0,l),
(419,16,l),
(309,58,l),
(309,660,l),
(30,660,l),
(30,644,l),
(119,602,l),
(119,58,l),
(30,16,l),
(30,0,l)
);
},
{
closed = 1;
nodes = (
(602,836,l),
(586,836,l),
(478,660,l),
(207,660,l),
(207,605,l),
(602,605,l)
);
}
);
width = 602;
}
);
unicode = 1168;
},
{
glyphname = uni049A;
kernLeft = kern_CYR_afii10055;
kernRight = kern_CYR_uni0496;
layers = (
{
layerId = m001;
shapes = (
{
closed = 1;
nodes = (
(659,-147,l),
(679,-147,l),
(679,35,l),
(576,35,l),
(617,0,l)
);
},
{
closed = 1;
nodes = (
(285,0,l),
(285,25,l),
(205,42,l),
(205,618,l),
(285,635,l),
(285,660,l),
(65,660,l),
(65,635,l),
(145,618,l),
(145,42,l),
(65,25,l),
(65,0,l)
);
},
{
closed = 1;
nodes = (
(554,0,l),
(668,0,l),
(668,25,l),
(566,38,l),
(621,18,l),
(244,373,l),
(241,337,l),
(567,632,l),
(541,620,l),
(616,635,l),
(616,660,l),
(418,660,l),
(418,635,l),
(517,611,l),
(511,632,l),
(200,338,l)
);
}
);
width = 689;
},
{
layerId = m002;
shapes = (
{
closed = 1;
nodes = (
(708,-167,l),
(724,-167,l),
(724,55,l),
(630,55,l),
(630,0,l)
);
},
{
closed = 1;
nodes = (
(315,0,l),
(315,16,l),
(235,56,l),
(235,604,l),
(315,644,l),
(315,660,l),
(65,660,l),
(65,644,l),
(145,604,l),
(145,56,l),
(65,16,l),
(65,0,l)
);
},
{
closed = 1;
nodes = (
(560,0,l),
(704,0,l),
(704,16,l),
(604,59,l),
(654,31,l),
(303,386,l),
(303,338,l),
(609,638,l),
(568,611,l),
(652,644,l),
(652,660,l),
(442,660,l),
(442,644,l),
(530,602,l),
(530,627,l),
(236,338,l)
);
}
);
width = 729;
},
{
layerId = m003;
shapes = (
{
closed = 1;
nodes = (
(790,-176,l),
(806,-176,l),
(806,55,l),
(725,55,l),
(682,0,l)
);
},
{
closed = 1;
nodes = (
(398,0,l),
(398,16,l),
(309,58,l),
(309,602,l),
(398,644,l),
(398,660,l),
(30,660,l),
(30,644,l),
(119,602,l),
(119,58,l),
(30,16,l),
(30,0,l)
);
},
{
closed = 1;
nodes = (
(533,0,l),
(806,0,l),
(806,16,l),
(697,61,l),
(743,29,l),
(467,428,l),
(399,339,l),
(708,632,l),
(638,591,l),
(757,644,l),
(757,660,l),
(505,660,l),
(505,644,l),
(613,591,l),
(607,632,l),
(309,330,l)
);
}
);
width = 810;
}
);
unicode = 1178;
},
{
glyphname = uni0496;
kernLeft = kern_CYR_afii10024;
kernRight = kern_CYR_uni0496;
layers = (
{
layerId = m001;
shapes = (
{
closed = 1;
nodes = (
(959,-147,l),
(979,-147,l),
(979,35,l),
(876,35,l),
(917,0,l)
);
},
{
closed = 1;
nodes = (
(606,0,l),
(606,25,l),
(526,42,l),
(526,618,l),
(606,635,l),
(606,660,l),
(386,660,l),
(386,635,l),
(466,618,l),
(466,42,l),
(386,25,l),
(386,0,l)
);
},
{
closed = 1;
nodes = (
(855,0,l),
(969,0,l),
(969,25,l),
(872,38,l),
(922,18,l),
(565,373,l),
(562,337,l),
(888,632,l),
(862,620,l),
(937,635,l),
(937,660,l),
(739,660,l),
(739,635,l),
(838,611,l),
(832,632,l),
(521,338,l)
);
},
{
closed = 1;
nodes = (
(160,632,l),
(154,611,l),
(253,635,l),
(253,660,l),
(48,660,l),
(48,635,l),
(123,620,l),
(97,632,l),
(423,337,l),
(429,373,l),
(72,18,l),
(126,43,l),
(25,25,l),
(25,0,l),
(137,0,l),
(471,338,l)
);
}
);
width = 989;
},
{
layerId = m002;
shapes = (
{
closed = 1;
nodes = (
(998,-167,l),
(1014,-167,l),
(1014,55,l),
(920,55,l),
(920,0,l)
);
},
{
closed = 1;
nodes = (
(624,0,l),
(624,16,l),
(544,56,l),
(544,604,l),
(624,644,l),
(624,660,l),
(374,660,l),
(374,644,l),
(454,604,l),
(454,56,l),
(374,16,l),
(374,0,l)
);
},
{
closed = 1;
nodes = (
(849,0,l),
(993,0,l),
(993,16,l),
(893,59,l),
(943,31,l),
(612,386,l),
(612,338,l),
(907,638,l),
(867,611,l),
(961,644,l),
(961,660,l),
(741,660,l),
(741,644,l),
(829,602,l),
(829,627,l),
(545,338,l)
);
},
{
closed = 1;
nodes = (
(169,627,l),
(169,602,l),
(257,644,l),
(257,660,l),
(31,660,l),
(31,644,l),
(125,611,l),
(85,638,l),
(380,338,l),
(391,386,l),
(65,31,l),
(115,59,l),
(15,16,l),
(15,0,l),
(149,0,l),
(453,338,l)
);
}
);
width = 1019;
},
{
layerId = m003;
shapes = (
{
closed = 1;
nodes = (
(1132,-176,l),
(1148,-176,l),
(1148,55,l),
(1067,55,l),
(1024,0,l)
);
},
{
closed = 1;
nodes = (
(750,0,l),
(750,16,l),
(671,58,l),
(671,602,l),
(750,644,l),
(750,660,l),
(402,660,l),
(402,644,l),
(481,602,l),
(481,58,l),
(402,16,l),
(402,0,l)
);
},
{
closed = 1;
nodes = (
(880,0,l),
(1148,0,l),
(1148,16,l),
(1039,61,l),
(1085,29,l),
(829,428,l),
(750,330,l),
(1040,632,l),
(980,591,l),
(1099,644,l),
(1099,660,l),
(847,660,l),
(847,644,l),
(955,591,l),
(949,632,l),
(671,330,l)
);
},
{
closed = 1;
nodes = (
(203,632,l),
(197,591,l),
(305,644,l),
(305,660,l),
(48,660,l),
(48,644,l),
(167,591,l),
(103,632,l),
(393,330,l),
(333,428,l),
(77,29,l),
(113,61,l),
(4,16,l),
(4,0,l),
(272,0,l),
(481,330,l)
);
}
);
width = 1152;
}
);
unicode = 1174;
},
{
glyphname = uni04B2;
kernLeft = kern_CYR_afii10024;
kernRight = kern_CYR_uni0496;
layers = (
{
layerId = m001;
shapes = (
{
closed = 1;
nodes = (
(659,-147,l),
(679,-147,l),
(679,35,l),
(576,35,l),
(617,0,l)
);
},
{
closed = 1;
nodes = (
(675,0,l),
(675,25,l),
(583,33,l),
(602,34,l),
(192,614,l),
(192,619,l),
(270,635,l),
(270,660,l),
(50,660,l),
(50,635,l),
(159,609,l),
(102,643,l),
(525,43,l),
(525,39,l),
(450,25,l),
(450,0,l)
);
},
{
closed = 1;
nodes = (
(236,0,l),
(236,25,l),
(157,41,l),
(157,45,l),
(347,313,l),
(335,352,l),
(94,25,l),
(136,48,l),
(35,25,l),
(35,0,l)
);
},
{
closed = 1;
nodes = (
(465,660,l),
(465,635,l),
(538,618,l),
(538,614,l),
(357,361,l),
(372,327,l),
(606,643,l),
(569,616,l),
(650,635,l),
(650,660,l)
);
}
);
width = 689;
},
{
layerId = m002;
shapes = (
{
closed = 1;
nodes = (
(712,-167,l),
(728,-167,l),
(728,55,l),
(634,55,l),
(634,0,l)
);
},
{
closed = 1;
nodes = (
(705,0,l),
(705,16,l),
(596,76,l),
(664,16,l),
(220,602,l),
(220,607,l),
(300,644,l),
(300,660,l),
(50,660,l),
(50,644,l),
(159,584,l),
(96,632,l),
(523,56,l),
(523,52,l),
(450,16,l),
(450,0,l)
);
},
{
closed = 1;
nodes = (
(260,0,l),
(260,16,l),
(179,52,l),
(179,56,l),
(374,313,l),
(338,352,l),
(85,24,l),
(136,68,l),
(35,16,l),
(35,0,l)
);
},
{
closed = 1;
nodes = (
(470,660,l),
(470,644,l),
(546,607,l),
(546,603,l),
(366,373,l),
(399,327,l),
(636,632,l),
(599,597,l),
(680,644,l),
(680,660,l)
);
}
);
width = 733;
},
{
layerId = m003;
shapes = (
{
closed = 1;
nodes = (
(770,-176,l),
(786,-176,l),
(786,55,l),
(705,55,l),
(662,0,l)
);
},
{
closed = 1;
nodes = (
(786,0,l),
(786,16,l),
(670,65,l),
(739,21,l),
(334,598,l),
(334,603,l),
(412,644,l),
(412,660,l),
(30,660,l),
(30,644,l),
(143,579,l),
(80,632,l),
(471,59,l),
(471,55,l),
(399,16,l),
(399,0,l)
);
},
{
closed = 1;
nodes = (
(270,0,l),
(270,16,l),
(190,57,l),
(193,61,l),
(402,313,l),
(351,352,l),
(87,38,l),
(129,70,l),
(20,16,l),
(20,0,l)
);
},
{
closed = 1;
nodes = (
(514,660,l),
(514,644,l),
(594,602,l),
(594,598,l),
(412,372,l),
(453,327,l),
(713,630,l),
(638,581,l),
(765,644,l),
(765,660,l)
);
}
);
width = 806;
}
);
unicode = 1202;
},
{
glyphname = uni04A2;
kernLeft = kern_CYR_afii10055;
kernRight = kern_CYR_afii10021;
layers = (
{
layerId = m001;
shapes = (
{
closed = 1;
nodes = (
(289,0,l),
(289,25,l),
(203,42,l),
(203,618,l),
(289,635,l),
(289,660,l),
(65,660,l),
(65,635,l),
(143,618,l),
(143,42,l),
(65,25,l),
(65,0,l)
);
},
{
closed = 1;
nodes = (
(610,323,l),
(610,358,l),
(180,358,l),
(180,323,l)
);
},
{
closed = 1;
nodes = (
(729,-147,l),
(749,-147,l),
(749,35,l),
(641,35,l),
(641,618,l),
(719,635,l),
(719,660,l),
(495,660,l),
(495,635,l),
(581,618,l),
(581,42,l),
(495,25,l),
(495,0,l),
(687,0,l)
);
}
);
width = 784;
},
{
layerId = m002;
shapes = (
{
closed = 1;
nodes = (
(315,0,l),
(315,16,l),
(235,56,l),
(235,604,l),
(315,644,l),
(315,660,l),
(65,660,l),
(65,644,l),
(145,604,l),
(145,56,l),
(65,16,l),
(65,0,l)
);
},
{
closed = 1;
nodes = (
(620,313,l),
(620,368,l),
(190,368,l),
(190,313,l)
);
},
{
closed = 1;
nodes = (
(743,-167,l),
(759,-167,l),
(759,55,l),
(665,55,l),
(665,604,l),
(745,644,l),
(745,660,l),
(495,660,l),
(495,644,l),
(575,604,l),
(575,56,l),
(495,16,l),
(495,0,l),
(665,0,l)
);
}
);
width = 814;
},
{
layerId = m003;
shapes = (
{
closed = 1;
nodes = (
(386,0,l),
(386,16,l),
(309,58,l),
(309,602,l),
(386,644,l),
(386,660,l),
(30,660,l),
(30,644,l),
(119,602,l),
(119,58,l),
(30,16,l),
(30,0,l)
);
},
{
closed = 1;
nodes = (
(645,312,l),
(645,367,l),
(215,367,l),
(215,312,l)
);
},
{
closed = 1;
nodes = (
(821,-176,l),
(837,-176,l),
(837,55,l),
(735,55,l),
(735,602,l),
(822,644,l),
(822,660,l),
(466,660,l),
(466,644,l),
(545,602,l),
(545,58,l),
(466,16,l),
(466,0,l),
(713,0,l)
);
}
);
width = 867;
}
);
unicode = 1186;
},
{
glyphname = uni04B6;
kernLeft = kern_CYR_afii10041;
kernRight = kern_CYR_afii10021;
layers = (
{
layerId = m001;
shapes = (
{
closed = 1;
nodes = (
(122,323,o),
(214,286,o),
(350,286,cs),
(422.969,286,o),
(485.284,303.714,o),
(531,318,c),
(531,350,l),
(491,331,o),
(421,321,o),
(370,321,cs),
(234.222,321,o),
(182,371,o),
(182,499,cs),
(182,618,l),
(262,635,l),
(262,660,l),
(40,660,l),
(40,635,l),
(122,618,l),
(122,500,ls)
);
},
{
closed = 1;
nodes = (
(672,-147,l),
(692,-147,l),
(692,35,l),
(584,35,l),
(584,618,l),
(662,635,l),
(662,660,l),
(438,660,l),
(438,635,l),
(524,618,l),
(524,42,l),
(438,25,l),
(438,0,l),
(630,0,l)
);
}
);
width = 727;
},
{
layerId = m002;
shapes = (
{
closed = 1;
nodes = (
(99,322,o),
(191,276,o),
(327,276,cs),
(404,276,o),
(460,290,o),
(508,308,c),
(508,360,l),
(462,336,o),
(408,331,o),
(357,331,cs),
(234,331,o),
(189,370,o),
(189,494,cs),
(189,602,l),
(269,644,l),
(269,660,l),
(17,660,l),
(17,644,l),
(99,602,l),
(99,500,ls)
);
},
{
closed = 1;
nodes = (
(663,-167,l),
(679,-167,l),
(679,55,l),
(585,55,l),
(585,602,l),
(665,644,l),
(665,660,l),
(415,660,l),
(415,644,l),
(495,602,l),
(495,56,l),
(403,16,l),
(403,0,l),
(585,0,l)
);
}
);
width = 734;
},
{
layerId = m003;
shapes = (
{
closed = 1;
nodes = (
(99,312,o),
(179,262,o),
(320,262,cs),
(399,262,o),
(473,284,o),
(518,310,c),
(518,365,l),
(483,344,o),
(441,337,o),
(405,337,cs),
(323,337,o),
(289,370,o),
(289,474,cs),
(289,602,l),
(366,644,l),
(366,660,l),
(10,660,l),
(10,644,l),
(99,602,l),
(99,480,ls)
);
},
{
closed = 1;
nodes = (
(781,-176,l),
(797,-176,l),
(797,55,l),
(695,55,l),
(695,602,l),
(782,644,l),
(782,660,l),
(426,660,l),
(426,644,l),
(505,602,l),
(505,58,l),
(406,16,l),
(406,0,l),
(673,0,l)
);
}
);
width = 827;
}
);
unicode = 1206;
},
